<?xml version="1.0" encoding="utf-8"?>
<!-- Generator: Adobe Illustrator 17.0.0, SVG Export Plug-In . SVG Version: 6.00 Build 0)  -->
<!DOCTYPE svg PUBLIC "-//W3C//DTD SVG 1.1//EN" "http://www.w3.org/Graphics/SVG/1.1/DTD/svg11.dtd">
<svg version="1.1" id="Layer_1" xmlns="http://www.w3.org/2000/svg" xmlns:xlink="http://www.w3.org/1999/xlink" x="0px" y="0px"
	 width="32px" height="32px" viewBox="0 0 32 32" enable-background="new 0 0 32 32" xml:space="preserve">
<g>
	<path d="M21.965,7.851c-1.538,0-2.943,0.874-3.621,2.256l-0.699,1.425V9.911c0-1.093,0.336-2.148,0.965-3.042
		c0.367-0.523,0.584-1.158,0.584-1.844c0-1.782-1.441-3.227-3.225-3.227c-1.783,0-3.241,1.445-3.241,3.227
		c0,0.665,0.213,1.284,0.559,1.798c0.587,0.872,0.903,1.9,0.903,2.951v1.363l-0.474-0.991c-0.67-1.402-2.086-2.295-3.641-2.295
		H1.207c-0.394,0-0.758,0.21-0.955,0.551C0.056,8.743,0.056,9.163,0.253,9.504c0.553,0.959,1.339,1.762,2.285,2.336L9,15.76
		c-0.176-0.304-0.318-0.618-0.416-0.925c-0.235-0.754-0.271-1.382-0.249-1.773c0.037-1.823,1.22-2.637,2.396-2.523
		c0.72,0.071,1.323,0.489,1.655,1.073l0.686,1.22c0.008-0.005,1.213,0.96,2.967,1.438c1.916-0.609,2.975-1.443,2.98-1.438
		l0.68-1.209c0.578-1.031,1.886-1.398,2.92-0.818c0.629,0.354,1.15,1.169,1.141,2.258c-0.017,0.63-0.016,1.017-0.249,1.771
		c-0.097,0.298-0.234,0.603-0.405,0.902l6.429-3.896c0.946-0.573,1.731-1.376,2.286-2.336c0.196-0.341,0.196-0.761,0-1.102
		c-0.197-0.341-0.562-0.551-0.955-0.551H21.965z"/>
	<path d="M16.048,21.543c0.149-0.043,1.101-0.304,1.411-0.386c-0.286-0.139-1.249-0.574-1.411-0.645
		c-0.166,0.071-1.126,0.506-1.413,0.645C14.946,21.239,15.897,21.5,16.048,21.543z"/>
	<path d="M17.014,26.614c-0.316-0.02-1.62-0.02-1.934,0c-0.163,0.01-0.316,0.002-0.5,0.025c-0.128,0.017-0.224,0.036-0.392,0.053
		v1.978c0,0.951,0.776,1.721,1.729,1.721c0.951,0,1.727-0.771,1.727-1.721v-2.008c0-0.008-0.099-0.016-0.153-0.023
		C17.305,26.617,17.177,26.625,17.014,26.614z"/>
	<path d="M10.744,25.643c-0.126,0.261-0.213,0.53-0.244,0.794c-0.115,0.763,0.098,1.355,0.306,1.76
		c0.45,0.809,0.876,1.076,0.876,1.076s-0.031-0.121-0.055-0.344c-0.275-2.573,1.504-2.827,1.599-2.854
		c-1.444-0.24-2.156-0.49-2.401-0.589C10.797,25.537,10.769,25.589,10.744,25.643z"/>
	<polygon points="19.583,21.543 19.583,21.531 19.583,21.531 	"/>
	<path d="M22.482,19.279c-0.639-1.036-2.01-1.872-2.306-2.04c0.455-0.297,0.878-0.628,1.246-1.005
		c1.363-1.394,1.384-2.884,1.374-3.205c-0.021-0.319-0.032-0.49-0.032-0.49c-0.059-0.775-0.738-1.354-1.513-1.295
		c-0.775,0.061-1.355,0.739-1.293,1.514c-0.015-0.005-0.003,0.278-0.181,0.581c-0.099,0.15-0.239,0.348-0.535,0.581
		c-0.294,0.23-0.715,0.5-1.254,0.762c-0.553,0.271-1.208,0.535-1.941,0.818c-0.585-0.225-1.117-0.438-1.588-0.651
		c-0.124-0.055-0.241-0.111-0.355-0.167c-0.541-0.262-0.962-0.533-1.254-0.762c-0.296-0.233-0.438-0.431-0.537-0.581
		c-0.178-0.303-0.166-0.585-0.179-0.581c0.062-0.775-0.519-1.452-1.295-1.514c-0.773-0.059-1.451,0.52-1.513,1.295
		c0,0-0.011,0.171-0.03,0.49c-0.012,0.321,0.024,0.823,0.221,1.429c0.203,0.602,0.819,1.725,2.399,2.781
		c1.85,0.933,4.092,2.008,4.13,1.994c0.316,0.132,3.921,1.569,3.611,2.252c-0.041,0.135-0.283,0.221-0.619,0.333
		c-0.347,0.128-0.755,0.233-1.188,0.336c-0.242,0.058-0.492,0.114-0.744,0.175c2.066,0.676,3.625,1.509,4.263,1.939
		c0.027,0.017,0.05,0.034,0.073,0.051c0.144-0.092,0.288-0.197,0.434-0.318C22.639,23.341,23.833,21.464,22.482,19.279z"/>
	<path d="M20.659,24.681c-1.598-1.131-7.278-2.745-7.6-2.862c-0.334-0.112-0.566-0.266-0.61-0.333
		c-0.062-0.18,0.073-0.296,0.104-0.325c0.331-0.351,1.729-1.155,2.383-1.45c-1.612-0.713-3.341-1.456-4.003-1.839
		c-0.453,0.343-0.985,0.75-1.322,1.409c-0.584,1.146-0.584,2.372-0.584,2.372c0,0.804,0.539,1.853,1.191,2.35
		c0.171,0.142,0.339,0.261,0.505,0.365c0.467,0.289,0.908,0.442,1.3,0.561c1.083,0.316,1.995,0.429,2.861,0.524
		c0.821,0.1,1.613,0.196,2.368,0.288c0.251,0.029,2.331,0.255,2.915,1.146c0.214,0.328,0.322,0.749,0.345,1.124
		c0.03,0.38-0.011,0.702-0.044,0.92c-0.027,0.223-0.058,0.344-0.058,0.344s0.487-0.237,0.878-1.076
		C22.377,25.848,20.673,24.69,20.659,24.681z"/>
</g>
</svg>
