<?xml version="1.0" encoding="iso-8859-1"?>
<!-- Generator: Adobe Illustrator 16.0.0, SVG Export Plug-In . SVG Version: 6.00 Build 0)  -->
<!DOCTYPE svg PUBLIC "-//W3C//DTD SVG 1.1//EN" "http://www.w3.org/Graphics/SVG/1.1/DTD/svg11.dtd">
<svg version="1.1" id="Layer_1" xmlns="http://www.w3.org/2000/svg" xmlns:xlink="http://www.w3.org/1999/xlink" x="0px" y="0px"
	 width="28.257px" height="28.984px" viewBox="0 0 28.257 28.984" style="enable-background:new 0 0 28.257 28.984;"
	 xml:space="preserve">
<g>
	<path d="M6.141,15.141v0.853h0.978c-0.008-0.142-0.021-0.283-0.021-0.427c0-0.144,0.014-0.285,0.021-0.426H6.141z"/>
	<path d="M14.571,8.542V7.564h-0.854v0.978c0.143-0.01,0.283-0.022,0.427-0.022S14.431,8.532,14.571,8.542z"/>
	<path d="M22.148,15.994v-0.853h-0.977c0.009,0.142,0.021,0.283,0.021,0.426c0,0.144-0.012,0.285-0.021,0.427H22.148z"/>
	<path d="M14.571,22.594c-0.141,0.008-0.283,0.022-0.427,0.022s-0.284-0.014-0.427-0.022v0.977h0.854V22.594z"/>
	<polygon points="14.444,9.283 13.846,9.283 13.849,15.989 18.423,15.989 18.423,15.147 14.444,15.147 	"/>
	<path d="M22.361,0c-2.45,0-4.55,1.495-5.439,3.622c3.929,0.809,7.138,3.604,8.529,7.286c1.683-1.038,2.806-2.892,2.806-5.013
		C28.257,2.64,25.617,0,22.361,0z"/>
	<path d="M11.335,3.622C10.444,1.495,8.345,0,5.895,0C2.639,0,0,2.64,0,5.896c0,2.121,1.123,3.975,2.804,5.013
		C4.196,7.227,7.405,4.431,11.335,3.622z"/>
	<path d="M25.767,15.567c0-6.407-5.214-11.62-11.622-11.62c-6.407,0-11.62,5.212-11.62,11.62c0,3.819,1.852,7.212,4.705,9.332
		l-1.87,4.085h1.732l1.429-3.253c1.668,0.926,3.584,1.456,5.624,1.456c1.928,0,3.747-0.475,5.349-1.308l1.363,3.104h1.732
		l-1.786-3.901C23.801,22.979,25.767,19.499,25.767,15.567z M5.679,15.567c0-4.669,3.797-8.466,8.466-8.466
		c3.205,0,6,1.791,7.438,4.424c0.603,1.171,0.949,2.495,0.949,3.901c0,4.719-3.841,8.559-8.561,8.559
		c-0.817,0-1.605-0.122-2.354-0.336C8.18,22.571,5.679,19.355,5.679,15.567z"/>
</g>
<g>
</g>
<g>
</g>
<g>
</g>
<g>
</g>
<g>
</g>
<g>
</g>
<g>
</g>
<g>
</g>
<g>
</g>
<g>
</g>
<g>
</g>
<g>
</g>
<g>
</g>
<g>
</g>
<g>
</g>
</svg>
