<?xml version="1.0" encoding="utf-8"?>
<!-- Generator: Adobe Illustrator 16.0.4, SVG Export Plug-In . SVG Version: 6.00 Build 0)  -->
<!DOCTYPE svg PUBLIC "-//W3C//DTD SVG 1.1//EN" "http://www.w3.org/Graphics/SVG/1.1/DTD/svg11.dtd">
<svg version="1.1" id="Capa_1" xmlns="http://www.w3.org/2000/svg" xmlns:xlink="http://www.w3.org/1999/xlink" x="0px" y="0px"
	 width="100px" height="100px" viewBox="0 0 100 100" enable-background="new 0 0 100 100" xml:space="preserve">
<g id="Layer_8">
	<path d="M85.667,57.338c0,13.789-11.179,24.967-24.967,24.967H39.3c-13.789,0-24.967-11.178-24.967-24.967
		S25.511,32.371,39.3,32.371h21.4C74.488,32.371,85.667,43.549,85.667,57.338z M14.633,41.043
		c4.397-9.645,14.081-15.877,24.669-15.877h8.286c-0.927-0.604-1.542-1.646-1.542-2.836v-1.246c0-1.873,1.518-3.389,3.388-3.389
		c1.283,0,2.386,0.721,2.962,1.773c0.611-0.877,1.625-1.453,2.773-1.453c1.872,0,3.389,1.518,3.389,3.389v1.248
		c0,1.002-0.443,1.895-1.135,2.514h3.278c10.589,0,20.272,6.232,24.669,15.877c0.49,1.074,0.018,2.344-1.059,2.834
		c-1.078,0.494-2.346,0.016-2.834-1.059c-3.705-8.123-11.86-13.371-20.776-13.371h-21.4c-8.917,0-17.071,5.248-20.775,13.371
		c-0.359,0.787-1.136,1.252-1.948,1.254c-0.297,0-0.599-0.063-0.887-0.195C14.617,43.387,14.144,42.117,14.633,41.043z
		 M51.282,25.166h1.636c-0.286-0.256-0.521-0.559-0.708-0.898C51.961,24.623,51.646,24.928,51.282,25.166z"/>
</g>
</svg>
