<?xml version="1.0" encoding="iso-8859-1"?>
<!-- Generator: Adobe Illustrator 16.0.4, SVG Export Plug-In . SVG Version: 6.00 Build 0)  -->
<!DOCTYPE svg PUBLIC "-//W3C//DTD SVG 1.1//EN" "http://www.w3.org/Graphics/SVG/1.1/DTD/svg11.dtd">
<svg version="1.1" id="Capa_1" xmlns="http://www.w3.org/2000/svg" xmlns:xlink="http://www.w3.org/1999/xlink" x="0px" y="0px"
	 width="14.596px" height="15px" viewBox="0 0 14.596 15" style="enable-background:new 0 0 14.596 15;" xml:space="preserve">
<path style="fill:#010002;" d="M7.256,0H0.688C0.308,0,0,0.308,0,0.688v14.037h7.943V0.688C7.943,0.308,7.636,0,7.256,0z
	 M6.954,5.248H0.99V1.342h5.964V5.248z M11.099,15c-1.63,0-2.619-1.122-2.713-3.078c-0.038-0.771,0.155-1.62,0.359-2.519
	c0.153-0.676,0.313-1.374,0.389-2.091c0.075-0.719-0.038-0.964-0.112-1.046C8.884,6.113,8.479,6.113,8.087,6.113H7.894V5.159h0.193
	c0.572,0,1.222,0,1.644,0.469c0.329,0.365,0.441,0.933,0.352,1.784c-0.081,0.772-0.246,1.5-0.406,2.203
	c-0.189,0.833-0.369,1.621-0.338,2.26c0.069,1.441,0.662,2.171,1.761,2.171c1.207,0,1.819-0.763,1.819-2.267
	c0-1.244-0.387-2.212-0.643-2.853l-0.101-0.258c-0.267-0.698-0.302-1.324-0.33-2.273c-0.026-0.921-0.016-1.906,0.239-2.879
	c0.257-0.979,0.785-1.456,1.659-2.246l0.211-0.192l0.642,0.706l-0.214,0.193c-0.817,0.74-1.19,1.077-1.375,1.782
	c-0.225,0.855-0.232,1.759-0.208,2.608c0.026,0.926,0.062,1.422,0.267,1.961l0.096,0.243c0.267,0.666,0.711,1.779,0.711,3.207
	C13.872,13.796,12.835,15,11.099,15z M12.327,6.557l-0.024-0.954c0,0,0.739-0.019,1.158-0.024C13.47,5.41,13.47,5.146,13.47,4.869
	V4.727c0-1.141-0.178-1.292-0.383-1.468c-0.075-0.063-0.15-0.129-0.222-0.208l0.702-0.645c0.045,0.049,0.093,0.088,0.139,0.127
	c0.407,0.348,0.718,0.729,0.718,2.193v0.142c0,0.535,0.001,0.83-0.047,1.055c-0.082,0.386-0.347,0.608-0.729,0.608
	C13.339,6.531,12.328,6.557,12.327,6.557z"/>
<g>
</g>
<g>
</g>
<g>
</g>
<g>
</g>
<g>
</g>
<g>
</g>
<g>
</g>
<g>
</g>
<g>
</g>
<g>
</g>
<g>
</g>
<g>
</g>
<g>
</g>
<g>
</g>
<g>
</g>
</svg>
