<?xml version="1.0" encoding="utf-8"?>
<!-- Generator: Adobe Illustrator 16.0.2, SVG Export Plug-In . SVG Version: 6.00 Build 0)  -->
<!DOCTYPE svg PUBLIC "-//W3C//DTD SVG 1.1//EN" "http://www.w3.org/Graphics/SVG/1.1/DTD/svg11.dtd">
<svg version="1.1" id="Layer_1" xmlns="http://www.w3.org/2000/svg" xmlns:xlink="http://www.w3.org/1999/xlink" x="0px" y="0px"
	 width="512px" height="512px" viewBox="0 0 512 512" enable-background="new 0 0 512 512" xml:space="preserve">
<path d="M144,274.438L0,192v-32h177.25c11.5,8.188,20.844,19.188,27.188,32H64l80,45.563l64-36.438v36.75L144,274.438z M208,320H32
	v-91.281L0,210.438V352h208V320z M384,96c-9,0-19.938,0-32,0v128h-32V64h96V0H288v96c-58.813,0-123.875,0-160,0
	c-32.469,0-62.531,12.031-86.063,32H128c43.313,0,82.188,28.125,96,68.875V384h-96H32H0v32h224v96h96v-96h192V192
	C495.406,135.125,443.25,96,384,96z"/>
</svg>
