<?xml version="1.0" encoding="utf-8"?>
<!-- Generator: Adobe Illustrator 16.0.4, SVG Export Plug-In . SVG Version: 6.00 Build 0)  -->
<!DOCTYPE svg PUBLIC "-//W3C//DTD SVG 1.1//EN" "http://www.w3.org/Graphics/SVG/1.1/DTD/svg11.dtd">
<svg version="1.1" id="Layer_1" xmlns="http://www.w3.org/2000/svg" xmlns:xlink="http://www.w3.org/1999/xlink" x="0px" y="0px"
	 width="50px" height="50px" viewBox="0 0 50 50" enable-background="new 0 0 50 50" xml:space="preserve">
<g>
	<path d="M30.908,18.826c0-0.245-0.091-0.431-0.271-0.558c-0.104-0.075-0.279-0.145-0.523-0.212v1.545
		c0.335-0.015,0.566-0.138,0.693-0.367C30.875,19.118,30.908,18.98,30.908,18.826z"/>
	<path d="M29.836,16.069c-0.26,0.01-0.442,0.088-0.553,0.235s-0.165,0.301-0.165,0.461c0,0.194,0.064,0.345,0.193,0.456
		c0.131,0.109,0.305,0.186,0.523,0.229L29.836,16.069L29.836,16.069z"/>
	<path d="M29.972,21.299c1.865,0,3.379-1.512,3.379-3.377c0-1.865-1.514-3.378-3.379-3.378s-3.377,1.513-3.377,3.378
		C26.595,19.788,28.106,21.299,29.972,21.299z M28.896,17.583c-0.203-0.188-0.306-0.449-0.306-0.782
		c0-0.298,0.108-0.566,0.327-0.805c0.219-0.239,0.523-0.361,0.919-0.364v-0.391h0.278v0.385c0.391,0.027,0.689,0.142,0.898,0.344
		c0.207,0.203,0.316,0.469,0.326,0.802h-0.514c-0.014-0.149-0.055-0.277-0.121-0.385c-0.123-0.198-0.32-0.302-0.592-0.311v1.431
		c0.455,0.127,0.764,0.247,0.928,0.358c0.264,0.184,0.396,0.457,0.396,0.817c0,0.521-0.17,0.891-0.509,1.111
		c-0.188,0.122-0.459,0.202-0.813,0.241v0.57h-0.278v-0.57c-0.569-0.037-0.957-0.239-1.161-0.605
		c-0.111-0.197-0.167-0.465-0.167-0.802h0.521c0.017,0.268,0.059,0.464,0.127,0.588c0.121,0.221,0.35,0.345,0.682,0.373v-1.601
		C29.41,17.906,29.097,17.771,28.896,17.583z"/>
	<path d="M24.187,13.211c0-0.183-0.068-0.323-0.203-0.419c-0.078-0.056-0.209-0.108-0.393-0.159v1.159
		c0.25-0.011,0.426-0.103,0.521-0.275C24.161,13.43,24.187,13.328,24.187,13.211z"/>
	<path d="M23.382,11.145c-0.195,0.008-0.332,0.066-0.415,0.177c-0.082,0.11-0.124,0.226-0.124,0.346
		c0,0.146,0.049,0.259,0.146,0.342c0.097,0.082,0.228,0.14,0.393,0.172V11.145L23.382,11.145z"/>
	<path d="M23.483,15.067c1.398,0,2.533-1.135,2.533-2.534c0-1.399-1.135-2.533-2.533-2.533s-2.533,1.134-2.533,2.533
		C20.95,13.933,22.085,15.067,23.483,15.067z M22.676,12.279c-0.153-0.141-0.229-0.336-0.229-0.586c0-0.223,0.082-0.425,0.246-0.604
		c0.164-0.179,0.394-0.271,0.688-0.273v-0.293h0.209v0.289c0.292,0.021,0.517,0.106,0.675,0.258
		c0.155,0.152,0.237,0.352,0.244,0.601h-0.386c-0.011-0.111-0.04-0.208-0.09-0.289c-0.095-0.148-0.241-0.226-0.443-0.233v1.073
		c0.341,0.095,0.571,0.185,0.694,0.269c0.197,0.138,0.297,0.342,0.297,0.613c0,0.391-0.127,0.668-0.381,0.833
		c-0.141,0.091-0.344,0.151-0.61,0.181v0.428h-0.209v-0.428c-0.428-0.028-0.719-0.179-0.87-0.454
		c-0.084-0.148-0.127-0.349-0.127-0.602h0.393c0.011,0.201,0.043,0.348,0.094,0.441c0.092,0.166,0.263,0.259,0.512,0.28v-1.201
		C23.063,12.521,22.827,12.42,22.676,12.279z"/>
	<path d="M21.75,24.482c-0.56-0.097-0.961-0.336-1.185-0.736c-0.146-0.255-0.217-0.601-0.217-1.037h0.672
		c0.021,0.347,0.078,0.6,0.166,0.76c0.157,0.287,0.45,0.447,0.879,0.483v-2.071c-0.549-0.104-0.955-0.277-1.217-0.52
		c-0.263-0.244-0.394-0.581-0.394-1.011c0-0.385,0.142-0.731,0.423-1.041c0.283-0.308,0.678-0.465,1.188-0.471v-0.505h0.361v0.498
		c0.504,0.036,0.891,0.184,1.159,0.445c0.271,0.262,0.412,0.607,0.425,1.036h-0.664c-0.019-0.192-0.07-0.358-0.156-0.498
		c-0.16-0.255-0.414-0.39-0.764-0.402v1.85c0.588,0.165,0.985,0.32,1.196,0.463c0.343,0.238,0.513,0.59,0.513,1.056
		c0,0.674-0.219,1.152-0.656,1.436c-0.181,0.116-0.439,0.193-0.74,0.251c0.875,0.03,1.746,0.171,2.586,0.424
		c0.793-0.792,1.285-1.885,1.285-3.094c0-2.412-1.957-4.367-4.367-4.367c-2.411,0-4.367,1.955-4.367,4.367
		c0,1.246,0.523,2.367,1.361,3.162C20.051,24.695,20.897,24.536,21.75,24.482z"/>
	<path d="M21.392,20.895c0.166,0.142,0.393,0.241,0.676,0.297v-1.786c-0.334,0.013-0.573,0.114-0.715,0.304
		c-0.143,0.19-0.213,0.389-0.213,0.597C21.14,20.557,21.224,20.752,21.392,20.895z"/>
	<path d="M23.104,22.247c-0.135-0.096-0.359-0.187-0.677-0.273v1.998c0.433-0.021,0.731-0.179,0.896-0.475
		c0.087-0.152,0.13-0.329,0.13-0.528C23.453,22.651,23.337,22.412,23.104,22.247z"/>
	<path d="M37.216,33.27c0.533-0.557,0.582-1.588,0.495-2.967c-0.627-0.043-1.552,0.062-1.879,0c-0.794-1.58-1.935-2.812-3.56-3.561
		c0.055-1.031,0.193-1.979,0.789-2.472c-1.449-0.1-2.678,0.881-3.459,1.78c-0.703-0.729-1.742-1.31-2.967-1.719l-0.761,1.354
		c-2.265-0.781-4.75-0.772-7.001,0.023l-0.993-1.334c-0.002-0.004-0.006-0.008-0.009-0.011c-1.553,0.514-2.98,1.319-4.092,2.478
		c-0.723-0.055-0.641-1.521,0.297-1.285c-1.526-1.04-2.368,1.811-0.891,2.175c-1.231,1.759-1.349,5.535,0.297,6.921
		c0.24,2.082,0.608,4.037,1.621,5.348h3.322c-0.087-0.676-0.175-1.396-0.099-2.184c2.019,0.458,4.416,0.592,6.821,0.396
		c0.371,0.615,0.73,1.242,1.174,1.787h3.291c-0.119-0.871-0.252-1.783-0.014-2.678C30.39,37.172,34.463,36.137,37.216,33.27z
		 M32.676,28.855c0.452,0,0.817,0.366,0.817,0.816c0,0.453-0.365,0.818-0.817,0.818c-0.45,0-0.817-0.367-0.817-0.818
		C31.858,29.222,32.226,28.855,32.676,28.855z"/>
</g>
</svg>
