<?xml version="1.0" encoding="utf-8"?>
<!-- Generator: Adobe Illustrator 17.0.0, SVG Export Plug-In . SVG Version: 6.00 Build 0)  -->
<!DOCTYPE svg PUBLIC "-//W3C//DTD SVG 1.1//EN" "http://www.w3.org/Graphics/SVG/1.1/DTD/svg11.dtd">
<svg version="1.1" id="Layer_1" xmlns="http://www.w3.org/2000/svg" xmlns:xlink="http://www.w3.org/1999/xlink" x="0px" y="0px"
	 width="32px" height="32px" viewBox="0 0 32 32" enable-background="new 0 0 32 32" xml:space="preserve">
<g>
	<path d="M21.986,17.165V4.982c0-2.606-2.135-4.726-4.741-4.726c-2.605,0-4.74,2.12-4.74,4.726v12.18
		c-2.131,1.517-3.465,3.967-3.465,6.538c0,4.448,3.592,8.067,8.005,8.067c4.501,0,8.175-3.619,8.175-8.067
		C25.219,21.024,24.01,18.627,21.986,17.165z M17.047,29.513c-3.169,0-5.748-2.608-5.748-5.813c0-1.201,0.407-2.367,1.124-3.338
		h4.265c0.311,0,0.564-0.274,0.564-0.586c0-0.311-0.252-0.586-0.564-0.586h-3.124c0.206-0.161,0.41-0.31,0.639-0.446l0.54-0.327
		v-1.571h1.945c0.311,0,0.564-0.221,0.564-0.533c0-0.311-0.252-0.533-0.564-0.533h-1.945v-1.065h1.945
		c0.311,0,0.564-0.221,0.564-0.533c0-0.311-0.252-0.533-0.564-0.533h-1.945v-1.278h1.945c0.311,0,0.564-0.221,0.564-0.533
		s-0.252-0.533-0.564-0.533h-1.945v-1.065h1.945c0.311,0,0.564-0.221,0.564-0.533c0-0.311-0.252-0.533-0.564-0.533h-1.945V7.897
		h1.945c0.311,0,0.564-0.221,0.564-0.533s-0.252-0.533-0.564-0.533h-1.945v-1.85c0-1.363,1.141-2.472,2.503-2.472
		c1.363,0,2.504,1.109,2.504,2.472v13.435l0.534,0.327c1.71,1.013,2.682,2.819,2.682,4.956
		C22.965,26.905,20.305,29.513,17.047,29.513z"/>
	<path d="M13.457,22.918c-0.122,0.426-0.205,0.786-0.205,1.203c0,2.14,1.735,3.882,3.874,3.882c2.14,0,3.874-1.747,3.874-3.886
		c0-0.417-0.083-0.772-0.205-1.199H13.457z"/>
</g>
</svg>
