<?xml version="1.0" encoding="utf-8"?>
<!-- Generator: Adobe Illustrator 15.0.0, SVG Export Plug-In . SVG Version: 6.00 Build 0)  -->
<!DOCTYPE svg PUBLIC "-//W3C//DTD SVG 1.1//EN" "http://www.w3.org/Graphics/SVG/1.1/DTD/svg11.dtd">
<svg version="1.1" id="Layer_1" xmlns="http://www.w3.org/2000/svg" xmlns:xlink="http://www.w3.org/1999/xlink" x="0px" y="0px"
	 width="26px" height="26px" viewBox="0 0 26 26" enable-background="new 0 0 26 26" xml:space="preserve">
<g>
	<path d="M21.398,5.544h-2.051v2.529c0,0.566-0.508,1.027-1.133,1.027h-0.773c-0.625,0-1.133-0.46-1.133-1.027V5.544h-5.049v2.529
		c0,0.566-0.509,1.027-1.133,1.027H9.353C8.728,9.1,8.22,8.64,8.22,8.073V5.544H6.168c-0.341,0-0.618,0.277-0.618,0.618v14.201
		c0,0.34,0.277,0.619,0.618,0.619h15.23c0.342,0,0.619-0.279,0.619-0.619V6.162C22.018,5.821,21.74,5.544,21.398,5.544z
		 M21.182,20.113c0,0.105-0.088,0.193-0.195,0.193H6.581c-0.107,0-0.195-0.088-0.195-0.193v-8.754c0-0.107,0.087-0.195,0.195-0.195
		h14.405c0.107,0,0.195,0.088,0.195,0.195V20.113z"/>
	<path d="M9.353,8.087h0.773c0.284,0,0.515-0.183,0.515-0.408V4.374c0-0.226-0.231-0.408-0.515-0.408H9.353
		c-0.285,0-0.516,0.182-0.516,0.408v3.306C8.837,7.904,9.068,8.087,9.353,8.087z"/>
	<path d="M17.441,8.087h0.773c0.285,0,0.516-0.183,0.516-0.408V4.374c0-0.226-0.23-0.408-0.516-0.408h-0.773
		c-0.285,0-0.516,0.182-0.516,0.408v3.306C16.926,7.904,17.156,8.087,17.441,8.087z"/>
	<path d="M17.322,12.372c-0.135-0.134-0.352-0.134-0.486,0l-4.03,4.032l-2.076-2.092c-0.134-0.133-0.35-0.133-0.484,0l-0.728,0.727
		c-0.133,0.133-0.133,0.352,0,0.484l3.043,3.064c0.133,0.133,0.351,0.133,0.485,0l5.003-5.004c0.135-0.133,0.135-0.352,0-0.486
		L17.322,12.372z"/>
</g>
</svg>
