<?xml version="1.0" encoding="utf-8"?>
<!-- Generator: Adobe Illustrator 15.0.0, SVG Export Plug-In . SVG Version: 6.00 Build 0)  -->
<!DOCTYPE svg PUBLIC "-//W3C//DTD SVG 1.1//EN" "http://www.w3.org/Graphics/SVG/1.1/DTD/svg11.dtd">
<svg version="1.1" id="Layer_1" xmlns="http://www.w3.org/2000/svg" xmlns:xlink="http://www.w3.org/1999/xlink" x="0px" y="0px"
	 width="26px" height="26px" viewBox="0 0 26 26" enable-background="new 0 0 26 26" xml:space="preserve">
<rect fill="none" width="26" height="26"/>
<g>
	<path fill="#000000" d="M16.081,11.031c0.419,0,0.856,0.085,1.297,0.262c1.358,0.545,1.268,2.189,1.527,2.859
		c0.535-0.236,1.323-1.137,2.311-1.137c0.225,0,0.459,0.047,0.704,0.158c1.657,0.756,2.374,2.359,1.678,4.038
		c-0.768,1.856-2.724,2.445-4.617,3.018c-0.895,0.271-1.818,0.55-2.608,0.957c-0.072,0.038-0.151,0.058-0.232,0.058
		c-0.065,0-0.131-0.013-0.192-0.038l-0.026-0.012c-0.138-0.058-0.242-0.173-0.288-0.313c-0.271-0.848-0.727-1.698-1.166-2.521
		c-0.934-1.742-1.898-3.546-1.132-5.396C13.851,11.721,14.89,11.031,16.081,11.031 M16.081,9.561c-1.805,0-3.377,1.089-4.104,2.84
		c-1.034,2.495,0.201,4.801,1.193,6.653c0.417,0.78,0.835,1.563,1.062,2.274c0.182,0.558,0.59,1,1.121,1.223
		c0.28,0.114,0.53,0.163,0.786,0.163c0.32,0,0.639-0.079,0.921-0.229c0.655-0.338,1.514-0.598,2.344-0.849
		c2.019-0.609,4.52-1.365,5.552-3.863c0.992-2.391-0.006-4.833-2.426-5.938c-0.423-0.192-0.865-0.29-1.314-0.29
		c-0.527,0-0.995,0.131-1.401,0.313c-0.307-0.74-0.852-1.515-1.89-1.931C17.316,9.685,16.696,9.561,16.081,9.561L16.081,9.561z"/>
</g>
<path fill="#000000" d="M14.467,18.359c-0.934-1.742-1.898-3.546-1.132-5.396c0.697-1.681,2.351-2.35,4.043-1.671
	c1.358,0.545,1.268,2.189,1.527,2.859c0.478-0.211,1.158-0.943,2-1.101c0.417-0.907,0.668-1.893,0.668-2.991
	c0-3.531-2.473-6.002-6.013-6.002c-2.054,0-3.811,1.465-4.776,2.476C9.819,5.523,8.066,4.059,6.013,4.059
	C2.473,4.059,0,6.529,0,10.061c0,3.894,3.069,6.409,6.04,8.843c1.403,1.151,2.854,2.338,3.967,3.658
	c0.188,0.22,0.462,0.349,0.75,0.349h0.058c0.288,0,0.563-0.129,0.749-0.349c0.97-1.147,2.194-2.194,3.421-3.206
	C14.817,19.021,14.642,18.688,14.467,18.359z"/>
</svg>
