<?xml version="1.0" encoding="utf-8"?>
<!-- Generator: Adobe Illustrator 17.0.0, SVG Export Plug-In . SVG Version: 6.00 Build 0)  -->
<!DOCTYPE svg PUBLIC "-//W3C//DTD SVG 1.1//EN" "http://www.w3.org/Graphics/SVG/1.1/DTD/svg11.dtd">
<svg version="1.1" id="Capa_1" xmlns="http://www.w3.org/2000/svg" xmlns:xlink="http://www.w3.org/1999/xlink" x="0px" y="0px"
	 width="52px" height="52px" viewBox="0 0 52 52" enable-background="new 0 0 52 52" xml:space="preserve">
<path d="M45.393,36.918l-8.52-4.283l-2.245-7.746l0.013-0.007l-1.96-6.757l-0.04-0.102l-2.794-9.637
	c-0.362-0.924-2.198-1.168-3.117-1.168c-1.436,0-2.323,0.468-2.415,1.205c0,0-1.271,4.191-2.868,9.533
	c-0.07,0.235-0.142,0.474-0.213,0.713c-0.228,0.695-0.563,1.842-1.118,3.734l-0.029,0.099l-0.025-0.08l-0.526,1.599
	c-0.856,2.89-1.545,5.787-2.545,8.325v-0.002l-0.116,0.768l-7.522,3.292c-1.672,0.659-2.577,1.619-2.69,2.854
	c-0.166,1.808,1.543,2.97,1.944,3.215l14.347,6.523c1.194,0.679,2.466,1.023,3.779,1.023c1.959,0,3.446-0.78,3.79-0.987
	l14.401-5.809c1.736-0.618,2.258-1.68,2.39-2.462C47.637,38.827,45.77,37.221,45.393,36.918z M18.17,32.628l0.583-2.025
	c3.7,2.518,7.625,2.908,9.697,2.908c3.031,0,5.647-0.804,6.829-2.098c0.048-0.052,0.093-0.104,0.135-0.158
	c0.26,0.891,0.63,2.169,1.084,3.747l0.021,0.072l0.416,1.452c-2.043,1.828-5.868,2.912-10.323,2.912
	c-4.12,0-7.956-0.977-9.122-2.321c-0.257-0.298-0.362-0.589-0.324-0.89l0.464-1.695l0.584-1.922L18.17,32.628z M15.868,37.048
	c-0.232,0.841-0.422,1.556-0.557,2.096c-0.202,0.809-0.01,1.62,0.557,2.345c1.901,2.437,7.406,3.546,11.715,3.546
	c5.189,0,10.833-1.579,11.113-6.009l0.005-0.087l-0.593-2.048l5.37,2.662c0.2,0.182,0.376,0.392,0.493,0.556
	c-0.056,0.023-0.122,0.05-0.201,0.078l-14.592,5.886l-0.232,0.124c-0.009,0.006-0.918,0.571-2.193,0.571
	c-0.772,0-1.521-0.206-2.271-0.637l-14.246-6.467c-0.026-0.019-0.054-0.039-0.082-0.061c0.116-0.06,0.265-0.13,0.457-0.206
	L15.868,37.048z M27.257,20.393C27.258,20.393,27.258,20.393,27.257,20.393c2.16,0,3.81-0.811,4.644-1.324l1.553,5.342
	C31.927,25.463,30.047,26,27.841,26c-0.001,0-0.007,0-0.007,0c-3.55,0-6.534-1.361-7.155-1.888l0.028-0.082
	c0.53-1.786,1.055-3.465,1.554-5.123C23.882,19.889,25.56,20.393,27.257,20.393z"/>
</svg>
