<?xml version="1.0" encoding="utf-8"?>
<!-- Generator: Adobe Illustrator 16.0.4, SVG Export Plug-In . SVG Version: 6.00 Build 0)  -->
<!DOCTYPE svg PUBLIC "-//W3C//DTD SVG 1.1//EN" "http://www.w3.org/Graphics/SVG/1.1/DTD/svg11.dtd">
<svg version="1.1" id="Capa_1" xmlns="http://www.w3.org/2000/svg" xmlns:xlink="http://www.w3.org/1999/xlink" x="0px" y="0px"
	 width="64px" height="64px" viewBox="0 0 64 64" enable-background="new 0 0 64 64" xml:space="preserve">
<path d="M46.046,42.998c2.054,3.234,3.022,4.951,3.022,6.742c0,3.537-2.627,5.252-6.166,5.252c-1.56,0-2.567-0.002-5.112-1.326
	c0,0-1.649-1.509-5.508-1.354c-3.895-0.154-5.545,1.373-5.545,1.373c-2.545,1.323-3.516,1.309-5.074,1.309
	c-3.539,0-6.168-1.713-6.168-5.252c0-1.791,0.971-3.506,3.024-6.742c0,0,3.881-6.445,7.244-9.477c2.43-2.188,5.973-2.18,5.973-2.18
	h1.093v-0.001c0,0,3.698-0.009,5.976,2.181C42.064,36.665,46.046,42.999,46.046,42.998z M23.636,27.033
	c3.7,0,6.699-4.674,6.699-10.439c0-5.765-2.999-10.439-6.699-10.439c-3.7,0-6.699,4.674-6.699,10.439
	C16.937,22.359,19.936,27.033,23.636,27.033z M17.216,37.143c2.727-1.259,3.349-5.723,1.388-9.971s-5.761-6.672-8.488-5.414
	s-3.348,5.723-1.388,9.971C10.689,35.977,14.489,38.4,17.216,37.143z M39.211,27.033c3.7,0,6.7-4.674,6.7-10.439
	c0-5.765-3-10.439-6.7-10.439s-6.699,4.674-6.699,10.439C32.512,22.359,35.511,27.033,39.211,27.033z M52.732,21.757
	c-2.728-1.259-6.527,1.165-8.488,5.414s-1.339,8.713,1.389,9.972c2.728,1.258,6.527-1.166,8.488-5.414S55.46,23.016,52.732,21.757z"
	/>
</svg>
