<?xml version="1.0" encoding="utf-8"?>
<!-- Generator: Adobe Illustrator 16.0.0, SVG Export Plug-In . SVG Version: 6.00 Build 0)  -->
<!DOCTYPE svg PUBLIC "-//W3C//DTD SVG 1.1//EN" "http://www.w3.org/Graphics/SVG/1.1/DTD/svg11.dtd">
<svg version="1.1" id="Layer_1" xmlns="http://www.w3.org/2000/svg" xmlns:xlink="http://www.w3.org/1999/xlink" x="0px" y="0px"
	 width="26px" height="26px" viewBox="0 0 26 26" enable-background="new 0 0 26 26" xml:space="preserve">
<path d="M24.528,11.431c-0.127-0.023-0.257-0.534-0.387-0.559c-0.235-0.576-0.469-1.614-0.705-2.188
	c0.499-0.146,0.996-0.07,1.374-0.247c0,0-0.256-0.696-4.088-0.704c-0.498-0.62-2.132-1.826-2.554-1.64
	c-0.014,0.023-0.104,0.101,0.544,0.581v0.035c-2.218,0.625-0.795,2.056-1.55,3.841c-0.545,1.289-3.415,2.052-4.723,0.917
	c-0.094-0.437-0.189-0.87-0.282-1.306c-0.17-0.513-0.472-1.041-0.776-1.444c-0.357-0.477-1.032-1.151-1.585-1.41
	C9.282,7.239,8.5,7.711,7.984,7.64C7.107,7.367,6.295,6.981,5.588,6.512C5.094,6.186,4.273,5.063,3.719,5.067
	C3.167,5.071,3.634,6.562,4.706,7.393c-0.64-0.19-1.487-0.708-2.004-1.031C2.595,6.294,2.458,6.293,2.35,6.359
	C2.241,6.425,2.178,6.546,2.188,6.673c0.073,0.96,0.94,1.607,1.393,2.2C3.25,8.687,2.261,8.108,1.853,8.381
	c0,0-0.479,0.265,0.882,1.763c-0.164-0.083-1.144,0.261,0.704,1.549c0.142,0.105,0.185,0.28,0.401,0.705
	c1.053,1.451,4.304,0.479,4.304,0.479c-0.431,0.12-0.728,0.875-0.844,1.305c-1.539-0.339-7.08-1.274-7.26,0.032
	c0,0.035,0,0.447,1.551,0.21c0,0.015-0.986,0.221-0.957,0.525c0.096,0.414,1.134,0.438,1.766,0.462c0,0.012-0.761,0.686,1.479,0.707
	c1.539-0.021,2.572-0.235,4.052-0.105c0.002,0.002,0.04,0.036,0.071,0.065L3.87,18.207c-0.374,0.073-0.8-0.281-1.105,0.133
	c-0.169,0.338,0.574,0.395,0.571,0.43c-0.219,0.239-0.604,0.217-0.778,0.512c-0.242,0.414,1.354,0.734,1.716,0.188
	c0.184-0.271-0.077-0.521,0.089-0.768c0.103-0.151,2.698-1.537,4.147-2.271c0.23,0.134,0.508,0.271,0.867,0.361l-3.582,2.113
	c-0.368,0.1-0.818-0.224-1.094,0.21c-0.145,0.349,0.6,0.354,0.6,0.39c-0.202,0.254-0.588,0.258-0.74,0.564
	c-0.212,0.431,1.403,0.639,1.726,0.066c0.164-0.283-0.113-0.513,0.036-0.771c0.151-0.262,3.625-2.297,3.97-2.435
	c2.445,0.156,5.371-1.349,5.382-3.352c0.465-0.118,0.898-0.083,1.27-0.248c1.459-0.644,0.83-3.065,1.667-4.33
	c1.345,0.199,2.372-0.231,3.631-0.175c0,0-0.399,0.734-0.425,1.553c-1.963-0.022-2.805,2.096-1.903,3.771
	c0.637,1.183,2.353,1.59,3.878,1.054c1.177-0.413,1.887-1.446,2.099-2.071C26.068,12.354,25.799,11.329,24.528,11.431z"/>
</svg>
