<?xml version="1.0" encoding="utf-8"?>
<!-- Generator: Adobe Illustrator 17.0.0, SVG Export Plug-In . SVG Version: 6.00 Build 0)  -->
<!DOCTYPE svg PUBLIC "-//W3C//DTD SVG 1.1//EN" "http://www.w3.org/Graphics/SVG/1.1/DTD/svg11.dtd">
<svg version="1.1" id="Capa_1" xmlns="http://www.w3.org/2000/svg" xmlns:xlink="http://www.w3.org/1999/xlink" x="0px" y="0px"
	 width="64px" height="64px" viewBox="0 0 64 64" enable-background="new 0 0 64 64" xml:space="preserve">
<path fill="#1D1D1B" d="M37.061,40.606c-0.121,1.008-0.988,2.906-3.401,2.906c-0.633,0-1.204-0.133-1.699-0.398
	c-0.666-0.355-1.21-0.355-1.874,0c-0.495,0.264-1.067,0.398-1.699,0.398c-2.413,0-3.28-1.898-3.401-2.902
	c-0.025-0.204,0.031-0.406,0.159-0.569c0.127-0.162,0.31-0.265,0.515-0.289c0.442-0.01,0.811,0.286,0.857,0.674
	c0.008,0.061,0.218,1.544,1.87,1.544c0.705,0,1.211-0.243,1.547-0.744c0.082-0.122,0.151-0.259,0.208-0.404
	c-0.32-0.21-0.754-0.545-1.351-1.084c-0.742-0.67-1.381-1.332-1.385-1.337c-0.079-0.086-0.141-0.289-0.121-0.404
	c0.026-0.153,0.126-0.285,0.268-0.349c0.062-0.03,1.758-0.856,3.584-0.856c1.831,0,3.323,0.838,3.385,0.874
	c0.099,0.056,0.217,0.226,0.235,0.338c0.02,0.152-0.026,0.293-0.124,0.398c-0.066,0.069-0.687,0.706-1.383,1.336
	c-0.594,0.536-1.027,0.872-1.347,1.081c0.186,0.479,0.636,1.15,1.754,1.15c0.706,0,1.212-0.244,1.547-0.744
	c0.08-0.118,0.148-0.25,0.205-0.393c0.033-0.083,0.059-0.18,0.085-0.275c0.072-0.259,0.14-0.504,0.326-0.648
	c0.132-0.104,0.3-0.162,0.47-0.162c0.017,0,0.084,0.004,0.1,0.006C36.806,39.805,37.107,40.188,37.061,40.606z M50.766,29.916
	c-0.117,0.085-0.23,0.164-0.344,0.242c0.003,0.033-0.08,0.483-0.018,1.285c0.037,0.475,0.056,0.953,0.056,1.436
	c0,10.719-8.72,19.439-19.439,19.439c-10.715,0-19.432-8.72-19.432-19.439c0-0.515,0.019-1.027,0.058-1.533
	c0.069-0.882,0.062-1.227,0.049-1.359l-0.048-0.033c-4.613-3.448-6.049-9.27-3.257-13.017c1.424-1.909,3.778-3.004,6.458-3.004
	c1.549,0,3.161,0.368,4.662,1.062c1.048,0.486,2.699,0.536,3.686,0.101c2.473-1.093,5.106-1.648,7.824-1.648
	c2.791,0,5.489,0.582,8.02,1.73c0.982,0.445,2.614,0.39,3.651-0.109c1.546-0.743,3.212-1.136,4.817-1.136
	c2.679,0,5.034,1.095,6.459,3.005C56.762,20.685,55.326,26.506,50.766,29.916z M47.823,32.879c0-9.265-7.538-16.803-16.803-16.803
	c-9.264,0-16.802,7.538-16.802,16.803c0,9.265,7.538,16.803,16.802,16.802C40.285,49.681,47.823,42.144,47.823,32.879z M29.24,32.89
	c0.559-1.398,0.656-2.889,0.271-4.196c-0.394-1.34-1.242-2.331-2.389-2.789c-0.442-0.177-0.912-0.267-1.396-0.267
	c-2.038,0-4.029,1.554-4.954,3.867c-1.167,2.918-0.217,6.052,2.118,6.985c0.442,0.177,0.912,0.267,1.396,0.267
	C26.324,36.757,28.315,35.203,29.24,32.89z M35.239,25.901c-1.656,0.662-2.683,2.482-2.616,4.637
	c0.042,1.34,0.862,3.393,1.757,4.393c1.035,1.159,2.383,1.824,3.696,1.824c0.483,0,0.953-0.09,1.395-0.267
	c1.656-0.662,2.683-2.481,2.616-4.637c-0.042-1.341-0.862-3.394-1.757-4.394C38.913,25.874,36.882,25.244,35.239,25.901z"/>
</svg>
