<?xml version="1.0" encoding="utf-8"?>
<!-- Generator: Adobe Illustrator 16.0.0, SVG Export Plug-In . SVG Version: 6.00 Build 0)  -->
<!DOCTYPE svg PUBLIC "-//W3C//DTD SVG 1.1//EN" "http://www.w3.org/Graphics/SVG/1.1/DTD/svg11.dtd">
<svg version="1.1" id="Layer_1" xmlns="http://www.w3.org/2000/svg" xmlns:xlink="http://www.w3.org/1999/xlink" x="0px" y="0px"
	 width="64px" height="64px" viewBox="0 0 64 64" enable-background="new 0 0 64 64" xml:space="preserve">
<g>
	<g>
		<path d="M59.043,17.66c-1.836-2.666-4.717-6.069-7.957-5.788c-0.592-0.898-2.398-3.784-3.972-6.653
			c-1.705-3.32-5.232-6.073-6.484-3.976c-0.169,0.435-0.244,1.618,1.382,5.329c-1.198-2.005-2.556-3.971-4.25-4.604
			c-2.119-0.798-3.565,0.303-1.318,4.781c3.393,8.311,3.947,10.829,3.839,11.851c-0.067,0.611-0.511,1.265-1.394,0.724
			c-3.183-1.539-10.501-3.046-13.229-3.046c-12.551,0-16.102,8.166-18.012,12.555c0,0-1.689,4.334-1.764,12.112
			c-1.542-1.479-3.072-3.447-4.052-3.447C0.616,37.498,0,38.548,0,40.617s2.381,6.108,5.45,8.213
			c0.647,0.465,1.432,0.459,2.237-0.016c0.282-0.172,0.452-0.235,0.537-0.259c1.458,1.357,2.686,2.404,3.649,3.111
			c2.959,3.98,2.435,3.358,16.514,5.487c0,0,2.149,0.202,2.987-1.451c0.625-1.828-0.266-3.016-1.672-4
			c-0.383-0.279-1.494-0.921-1.941-1.111c7.456,0.822,13.116,1.713,13.978,2.196c0.967,2.248,2.968,3.586,5.972,3.985
			c1.414,0,2.394-0.546,2.896-1.626c0.987-1.948-1.739-3.648-3.22-4.745c-1.323-0.936-1.974-2.535-1.912-2.844
			c0.009-0.031,0.021-0.077,0.112-0.129c2.148-1.173,4.095-3.03,5.779-5.52c1.55-2.289,2.405-4.578,2.541-6.812
			c1.954-0.126,4.63-1.63,6.552-2.879c2.373-1.542,3.574-3.36,3.574-5.402C64.036,23.908,61.699,21.521,59.043,17.66z
			 M52.335,20.989c-0.905,0-1.644-0.737-1.644-1.645c0-0.906,0.738-1.643,1.644-1.643c0.907,0,1.643,0.737,1.643,1.643
			C53.978,20.251,53.242,20.989,52.335,20.989z"/>
	</g>
</g>
</svg>
