<?xml version="1.0" encoding="iso-8859-1"?>
<!-- Generator: Adobe Illustrator 17.1.0, SVG Export Plug-In . SVG Version: 6.00 Build 0)  -->
<!DOCTYPE svg PUBLIC "-//W3C//DTD SVG 1.1//EN" "http://www.w3.org/Graphics/SVG/1.1/DTD/svg11.dtd">
<svg version="1.1" id="Layer_1" xmlns="http://www.w3.org/2000/svg" xmlns:xlink="http://www.w3.org/1999/xlink" x="0px" y="0px"
	 viewBox="0 0 64 64" style="enable-background:new 0 0 64 64;" xml:space="preserve">
<path d="M40.301,17.99c-1.712-0.534-3.532-0.823-5.419-0.823s-3.708,0.289-5.419,0.823c-7.386,2.305-12.747,9.198-12.747,17.344
	c0,9.217,6.869,16.811,15.764,17.99l2.188-31.334l0.167-2.395l0.168,2.4l2.188,31.344c8.941-1.136,15.859-8.755,15.859-18.004
	C53.048,27.188,47.687,20.295,40.301,17.99z M22.881,44.833c-1.381,0-2.5-1.119-2.5-2.5s1.119-2.5,2.5-2.5
	c1.381,0,2.5,1.119,2.5,2.5S24.262,44.833,22.881,44.833z M23.881,30.833c-1.381,0-2.5-1.119-2.5-2.5s1.119-2.5,2.5-2.5
	c1.381,0,2.5,1.119,2.5,2.5S25.262,30.833,23.881,30.833z M28.881,37.833c-1.381,0-2.5-1.119-2.5-2.5s1.119-2.5,2.5-2.5
	c1.381,0,2.5,1.119,2.5,2.5S30.262,37.833,28.881,37.833z M30.881,24.667c-0.737,0-1.334-0.597-1.334-1.334s0.597-1.334,1.334-1.334
	c0.737,0,1.334,0.597,1.334,1.334S31.618,24.667,30.881,24.667z M38.381,26.333c0-1.381,1.119-2.5,2.5-2.5
	c1.381,0,2.5,1.119,2.5,2.5s-1.119,2.5-2.5,2.5C39.501,28.833,38.381,27.714,38.381,26.333z M39.547,35.333
	c0-0.737,0.597-1.334,1.334-1.334c0.737,0,1.334,0.597,1.334,1.334s-0.597,1.334-1.334,1.334
	C40.145,36.667,39.547,36.07,39.547,35.333z M42.881,45.667c-0.737,0-1.334-0.597-1.334-1.334s0.597-1.334,1.334-1.334
	c0.737,0,1.334,0.597,1.334,1.334S43.618,45.667,42.881,45.667z M49.381,34.333c0,1.381-1.119,2.5-2.5,2.5
	c-1.381,0-2.5-1.119-2.5-2.5s1.119-2.5,2.5-2.5C48.262,31.833,49.381,32.953,49.381,34.333z"/>
<path d="M39.545,6.395c0.767-0.663,1.502-0.577,1.542-0.567c0.277,0.042,0.526-0.141,0.572-0.411c0.046-0.271-0.138-0.53-0.41-0.576
	c-0.047-0.005-1.192-0.188-2.324,0.77c-1.182,0.998-1.886,2.82-2.118,5.4c-0.602-0.218-1.249-0.343-1.926-0.343
	c-0.456,0-0.898,0.06-1.323,0.162c-0.249-2.485-0.948-4.244-2.102-5.219c-1.132-0.957-2.276-0.774-2.324-0.77
	c-0.27,0.046-0.45,0.3-0.407,0.57s0.298,0.454,0.568,0.417c0.031-0.005,0.77-0.102,1.543,0.567c0.697,0.604,1.498,1.934,1.746,4.762
	c-1.983,0.882-3.367,2.866-3.367,5.176c0,0.23,0.018,0.455,0.044,0.678c1.779-0.547,3.666-0.845,5.622-0.845
	s3.843,0.298,5.622,0.845c0.027-0.223,0.044-0.448,0.044-0.678c0-2.074-1.117-3.882-2.78-4.87
	C37.982,8.411,38.823,7.021,39.545,6.395z"/>
</svg>
