<?xml version="1.0" encoding="utf-8"?>
<!-- Generator: Adobe Illustrator 17.1.0, SVG Export Plug-In . SVG Version: 6.00 Build 0)  -->
<!DOCTYPE svg PUBLIC "-//W3C//DTD SVG 1.1//EN" "http://www.w3.org/Graphics/SVG/1.1/DTD/svg11.dtd">
<svg version="1.1" id="Capa_1" xmlns="http://www.w3.org/2000/svg" xmlns:xlink="http://www.w3.org/1999/xlink" x="0px" y="0px"
	 width="500px" height="500px" viewBox="0 0 500 500" enable-background="new 0 0 500 500" xml:space="preserve">
<path d="M237.6,468.3l-25.4-72.1c-10.9,4.2-22.8,6.5-35.3,6.5h-14.5c-13.1,0-25.6-2.5-36.8-7.1l-25.6,72.7c0,0,19.3,39.5,68.9,12
	C218.3,507.7,237.6,468.3,237.6,468.3z"/>
<path d="M271.5,180.7c0-21.3-10.5-40.5-27.2-53.5c-1.7,0.2-3.4,0.4-5.1,0.7c-18.3,2.5-37.5,5.9-57.3,10.4c-0.9,0.2-1.7,0.3-2.6,0.3
	c-4,0-7.7-2-10-5.4L154,109.8l-3.9-6l-1.5-2.3c-0.7-1.1-1.3-2.3-1.6-3.6c-0.6-2.3-0.5-4.8,0.4-7c1.3-3.5,4.2-6.3,7.8-7.3
	c11.4-3.3,19.3-9.3,24-18.2c10.9-20.7,1.4-50.2,1.3-50.5c-0.4-1.3-0.6-2.7-0.6-4c-3.6-0.6-7.3-0.9-11.1-0.9
	c-39,0-70.5,31.6-70.5,70.5v29.2v6.9v7c-19.5,12.9-32.2,33.7-32.2,57.1l17.2,139.1c0,28.7,19,53.4,46.3,64.6
	c10,4.1,21.1,6.4,32.9,6.4h14.5c11.1,0,21.7-2.1,31.4-5.8c28.1-10.9,47.8-36,47.8-65.2L271.5,180.7z M149.9,31.4
	c15.7,0,15.7,24.4,0,24.4S134.1,31.4,149.9,31.4z"/>
<path d="M466,169.9c2.7,0,0.2-11.1-2-43.2C456.6,18.2,257.7,10.9,204.6,10.9c-8.2,0-12.9,0.2-12.9,0.2s0.4,1.1,0.9,3
	c3.6,13.3,14.6,66.6-34.1,80.8l1.9,2.9l3.9,6l3.9,6l11.1,16.9c17.3-3.9,33.5-6.9,48.8-9.2c3.4-0.5,6.8-1,10.1-1.4
	c0.3,0,0.7-0.1,1-0.1c2.8-0.4,5.5-0.7,8.2-1c19.9-2.3,38-3.4,54.5-3.4C426.7,111.5,459.8,169.9,466,169.9z"/>
</svg>
