<?xml version="1.0" encoding="utf-8"?>
<!-- Generator: Adobe Illustrator 16.0.0, SVG Export Plug-In . SVG Version: 6.00 Build 0)  -->
<!DOCTYPE svg PUBLIC "-//W3C//DTD SVG 1.1//EN" "http://www.w3.org/Graphics/SVG/1.1/DTD/svg11.dtd">
<svg version="1.1" id="Capa_1" xmlns="http://www.w3.org/2000/svg" xmlns:xlink="http://www.w3.org/1999/xlink" x="0px" y="0px"
	 width="64px" height="64px" viewBox="0 0 64 64" enable-background="new 0 0 64 64" xml:space="preserve">
<g>
	<polygon points="49.176,2.469 45.135,7.05 50.339,8.467 	"/>
	<polygon points="50.965,13.331 42.179,10.938 38.082,25.976 47.522,25.976 	"/>
	<path d="M14.377,18.372c-0.457,0-0.973-0.025-1.527-0.07l1.585,7.674h4.548l-1.679-8.122C16.385,18.298,15.27,18.372,14.377,18.372
		z"/>
	<rect x="26.901" y="0.138" width="8.988" height="25.838"/>
	<path d="M11.174,27.099v29.269c0,3.993,3.236,7.229,7.229,7.229h27.108c3.992,0,7.229-3.235,7.229-7.229V27.099H11.174z"/>
	<path d="M13.841,17.234c0.183,0.007,0.367,0.014,0.537,0.014c1.229,0,2.103-0.187,2.679-0.564c2.193-1.434-0.125-5.778-5.695-14.58
		c0-0.001-6.179,14.416,1.498,15.072C13.207,17.205,13.53,17.224,13.841,17.234z"/>
</g>
</svg>
