<?xml version="1.0" encoding="utf-8"?>
<!-- Generator: Adobe Illustrator 17.0.0, SVG Export Plug-In . SVG Version: 6.00 Build 0)  -->
<!DOCTYPE svg PUBLIC "-//W3C//DTD SVG 1.1//EN" "http://www.w3.org/Graphics/SVG/1.1/DTD/svg11.dtd">
<svg version="1.1" id="Capa_1" xmlns="http://www.w3.org/2000/svg" xmlns:xlink="http://www.w3.org/1999/xlink" x="0px" y="0px"
	 width="64px" height="64px" viewBox="0 0 64 64" enable-background="new 0 0 64 64" xml:space="preserve">
<path d="M24.611,38.736c-2.165,0.374-7.396,1.302-7.396,1.302c-0.118,0.021-0.22,0.086-0.284,0.183
	c-0.065,0.097-0.087,0.216-0.062,0.335l1.084,4.975c0.045,0.206,0.2,0.291,0.375,0.201c1.37-0.706,4.631-2.676,6.759-6.326
	C25.348,38.959,25.119,38.648,24.611,38.736z M31.119,23.523c0.347-0.149,0.728-0.233,1.129-0.233c0.464,0,0.901,0.109,1.291,0.302
	c0.463,0.227,0.767,0.119,0.776-0.398c0.073-4.31,0.147-12.105-0.188-15.747c-0.047-0.514-0.526-0.928-1.043-0.928h-1.706
	c-0.517,0-0.902,0.417-0.876,0.933c0.209,4.165,0.01,11.453-0.138,15.632C30.346,23.601,30.644,23.727,31.119,23.523z
	 M39.989,49.766h1.04c0.517,0,0.985-0.292,1.153-0.608c0.167-0.316-0.001-0.703-0.458-0.944c-0.553-0.294-1.209-0.673-1.904-1.136
	c-0.429-0.285-0.766-0.116-0.766,0.4v1.354C39.055,49.348,39.473,49.766,39.989,49.766z M29.65,48.831
	c0,0.517,0.418,0.934,0.935,0.934h0.136c0.517,0,0.935-0.418,0.935-0.934v-6.588c0-0.259,0.209-0.468,0.467-0.468
	c0.259,0,0.468,0.209,0.468,0.468v6.588c0,0.517,0.418,0.934,0.935,0.934h0.317c0.517,0,0.935-0.418,0.935-0.934v-7.293
	c0-0.042,0.007-0.083,0.019-0.121c0.021-0.064,0.023-0.269,0-0.462c-0.015-0.126-0.022-0.245-0.022-0.351v-2.663
	c0-0.399-0.213-0.977-0.455-1.236c-0.403-0.432-0.707-1.237-0.707-1.875v-2.508c0-0.092-0.009-0.172-0.021-0.239
	c-0.025-0.132-0.496-0.229-1.013-0.229h-0.723c-0.517,0-0.986,0.097-1.012,0.229c-0.013,0.067-0.022,0.147-0.022,0.239v2.508
	c0,0.638-0.304,1.443-0.706,1.874c-0.242,0.261-0.455,0.838-0.455,1.237v2.663c0,0.106-0.01,0.227-0.023,0.354
	c-0.024,0.194-0.024,0.397-0.003,0.461c0.012,0.037,0.019,0.076,0.019,0.118v7.294H29.65z M36.645,49.766h0.54
	c0.517,0,0.935-0.418,0.935-0.934v-2.084c0-0.517-0.323-1.201-0.699-1.555c-0.398-0.374-0.781-0.775-1.139-1.203
	c-0.332-0.396-0.571-0.322-0.571,0.194v4.647C35.711,49.348,36.129,49.766,36.645,49.766z M19.896,35.296
	c2.104,0,4.852-0.849,6.686-2.064c0.266-0.176,0.458-0.665,0.373-0.95c-0.368-1.234-1.485-3.318-4.831-3.406
	c-0.202,0.001-5.301,0.07-5.438,4.082c-0.023,0.643,0.143,1.138,0.507,1.514C17.714,35.011,18.648,35.296,19.896,35.296z
	 M27.314,49.766h0.467c0.517,0,0.934-0.418,0.934-0.934V44.18c0-0.517-0.241-0.592-0.576-0.2c-0.333,0.391-0.688,0.758-1.057,1.1
	c-0.377,0.352-0.703,1.033-0.703,1.55v2.202C26.38,49.348,26.798,49.766,27.314,49.766z M28.605,25.359
	c0.407,0.317,0.73,0.188,0.75-0.328c0.129-3.31,0.459-12.77,0.214-17.579c-0.025-0.516-0.478-0.933-0.994-0.933h-3.988
	c-4.631,0-9.935,3.185-12.308,7.266c-0.259,0.446-0.479,1.244-0.536,1.757l-0.926,8.396c-0.057,0.513-0.239,1.323-0.406,1.812
	c-0.482,1.404-1.486,4.356-2.65,7.914c-0.161,0.49-0.033,0.559,0.291,0.157c3.332-4.119,9.029-9.962,14.784-10.316
	C24.938,23.375,26.869,24.005,28.605,25.359z M13.791,29.12c-2.889,2.568-5.297,5.595-6.671,7.461
	c-0.306,0.416-0.673,1.156-0.829,1.648c-1.768,5.585-3.56,11.636-4.308,15.389c-0.102,0.507-0.224,1.125-0.191,1.393
	c0.03,0.268,0.477,0.366,0.977,0.245c1.151-0.277,3.329-0.735,6.129-1.014c0.514-0.051,1.014-0.493,1.116-1
	c0.974-4.831,3.364-16.9,4.354-23.806C14.442,28.925,14.176,28.777,13.791,29.12z M32.248,28.235c1.105,0,2.004-0.9,2.004-2.006
	s-0.899-2.005-2.004-2.005c-1.101,0-1.996,0.891-2.004,1.99C30.246,27.338,31.144,28.235,32.248,28.235z M41.912,29.17
	c-3.332,0.087-4.448,2.173-4.815,3.407c-0.085,0.285,0.107,0.773,0.373,0.95c1.833,1.215,4.582,2.063,6.685,2.063
	c1.247,0,2.182-0.285,2.704-0.826c0.363-0.376,0.529-0.87,0.507-1.513C47.227,29.239,42.129,29.171,41.912,29.17z M48.358,26.935
	c-2.072-1.452-4.312-2.504-6.548-2.638c-2.377-0.141-4.538,0.791-6.444,2.771c-0.357,0.372-0.837,1.068-1.228,1.403
	c-0.51,0.435-1.169,0.698-1.89,0.698c-0.727,0-1.387-0.267-1.898-0.706c-0.392-0.336-0.869-1.033-1.229-1.403
	c-1.833-1.883-3.929-2.765-6.226-2.623c-2.231,0.138-4.485,1.202-6.594,2.685c-0.423,0.296-0.804,0.967-0.872,1.479
	c-0.88,6.608-3.39,19.322-4.446,24.57c-0.101,0.506,0.233,0.89,0.748,0.869c2.047-0.085,4.301-0.048,6.661,0.215
	c0.287,0.032,0.466,0.225,0.456,0.338c-0.024,0.31,0.085,0.588,0.309,0.785c0.271,0.239,0.675,0.322,1.106,0.231
	c1.715-0.358,6.268-1.188,11.717-1.188c0.048,0,0.096,0,0.143,0c5.567,0.015,10.61,1.04,12.521,1.479
	c0.104,0.024,0.207,0.036,0.309,0.036c0.271,0,0.53-0.083,0.739-0.241c0.289-0.218,0.46-0.552,0.479-0.938l0.021-0.423
	c0.016-0.291,0.277-0.575,0.562-0.607c2.366-0.27,4.572-0.333,6.539-0.282c0.517,0.013,0.843-0.376,0.731-0.88
	c-1.25-5.678-3.918-18.056-4.785-24.153C49.165,27.902,48.781,27.23,48.358,26.935z M22.135,27.94
	c3.948,0.104,5.274,2.598,5.715,4.074c0.201,0.677-0.143,1.591-0.753,1.995c-2.002,1.329-4.895,2.221-7.201,2.221
	c-1.507,0-2.674-0.384-3.376-1.11c-0.541-0.56-0.8-1.299-0.77-2.196C15.887,28.993,19.986,27.945,22.135,27.94z M18.188,46.704
	c-0.56,0-1.021-0.393-1.146-0.975l-1.084-4.975c-0.081-0.37-0.011-0.745,0.196-1.055c0.208-0.309,0.527-0.517,0.898-0.582
	l8.288-1.471c0.484-0.085,0.848,0.067,1.04,0.378c0.098,0.159,0.227,0.497-0.013,0.976c-2.213,4.427-6.061,6.762-7.611,7.561
	C18.574,46.655,18.383,46.704,18.188,46.704z M42.327,51.555c-0.292-0.425-0.781-0.854-1.298-0.854H24.113
	c-0.517,0-1.006,0.43-1.298,0.854c-0.422,0.612-1.128,1.015-1.926,1.015c-1.289,0-2.337-1.048-2.337-2.336
	c0-0.924,0.54-1.719,1.32-2.095c0.464-0.225,1.288-0.383,1.757-0.6c1.605-0.744,4.98-2.568,6.72-5.421
	c0.224-0.368,0.374-1.08,0.374-1.514v-2.663c0-0.638,0.304-1.444,0.707-1.875c0.242-0.259,0.455-0.837,0.455-1.236v-2.508
	c0-0.812,0.398-1.402,0.947-1.402h2.765c0.549,0,0.947,0.59,0.947,1.402v2.508c0,0.399,0.213,0.977,0.455,1.237
	c0.403,0.43,0.707,1.236,0.707,1.874v2.663c0,0.433,0.15,1.146,0.374,1.516c1.7,2.814,4.94,4.699,6.572,5.516
	c0.462,0.231,1.007,0.337,1.216,0.298c0.125-0.024,0.252-0.037,0.384-0.037c1.288,0,2.336,1.048,2.336,2.337
	c0,1.288-1.048,2.336-2.336,2.336C43.454,52.569,42.749,52.167,42.327,51.555z M47.781,41.049l-1.084,4.976
	C46.571,46.607,46.11,47,45.55,47c-0.193,0-0.385-0.049-0.567-0.143c-1.552-0.799-5.399-3.134-7.611-7.562
	c-0.239-0.479-0.111-0.816-0.014-0.976c0.193-0.311,0.556-0.462,1.042-0.378l8.285,1.471c0.373,0.065,0.691,0.272,0.899,0.582
	C47.791,40.304,47.861,40.679,47.781,41.049z M47.53,35.415c-0.702,0.727-1.869,1.11-3.376,1.11c-2.306,0-5.198-0.893-7.201-2.22
	c-0.61-0.406-0.954-1.319-0.752-1.996c0.439-1.477,1.765-3.972,5.701-4.074c2.161,0.004,6.262,1.052,6.397,4.983
	C48.33,34.116,48.071,34.854,47.53,35.415z M62.262,52.745c-0.731-3.665-2.47-9.522-4.207-14.995
	c-0.156-0.492-0.521-1.234-0.824-1.652c-1.149-1.586-3.473-4.574-6.354-7.149c-0.386-0.345-0.648-0.198-0.568,0.311
	c1,6.435,3.525,18.106,4.685,23.365c0.111,0.504,0.618,0.938,1.132,0.982c2.452,0.21,4.319,0.562,5.353,0.792
	c0.503,0.111,0.947,0.007,0.978-0.261C62.485,53.87,62.363,53.251,62.262,52.745z M39.118,39.022
	c-0.508-0.09-0.735,0.214-0.477,0.659c2.135,3.668,5.396,5.639,6.768,6.345c0.177,0.09,0.33,0.003,0.375-0.201l1.084-4.976
	c0.025-0.119,0.004-0.238-0.061-0.335c-0.065-0.097-0.166-0.161-0.286-0.183C46.521,40.331,39.118,39.022,39.118,39.022z
	 M44.253,48.831c0.774,0,1.402,0.628,1.402,1.402s-0.628,1.402-1.402,1.402s-1.402-0.628-1.402-1.402S43.479,48.831,44.253,48.831z
	 M35.901,25.332c1.799-1.429,3.791-2.095,5.966-1.968c5.739,0.343,11.298,6.078,14.404,9.923c0.325,0.402,0.451,0.334,0.29-0.155
	c-1.217-3.703-2.275-6.792-2.775-8.239c-0.169-0.488-0.382-1.295-0.476-1.802l-1.451-7.924c-0.093-0.508-0.377-1.283-0.672-1.707
	c-2.725-3.899-8.306-6.941-12.936-6.941h-2.356c-0.517,0-0.879,0.415-0.833,0.929c0.393,4.422,0.228,14.108,0.152,17.561
	C35.204,25.524,35.497,25.653,35.901,25.332z M20.89,48.831c0.774,0,1.402,0.628,1.402,1.402s-0.628,1.402-1.402,1.402
	s-1.402-0.628-1.402-1.402S20.116,48.831,20.89,48.831z M25.445,48.831v-1.483c0-0.517-0.341-0.689-0.774-0.409
	c-0.578,0.373-1.134,0.689-1.629,0.95c-0.457,0.24-0.483,0.639-0.208,1.053c0.275,0.413,0.763,0.824,1.279,0.824h0.397
	C25.027,49.766,25.445,49.348,25.445,48.831z"/>
</svg>
