<?xml version="1.0" encoding="utf-8"?>
<!-- Generator: Adobe Illustrator 16.0.0, SVG Export Plug-In . SVG Version: 6.00 Build 0)  -->
<!DOCTYPE svg PUBLIC "-//W3C//DTD SVG 1.1//EN" "http://www.w3.org/Graphics/SVG/1.1/DTD/svg11.dtd">
<svg version="1.1" id="Layer_1" xmlns="http://www.w3.org/2000/svg" xmlns:xlink="http://www.w3.org/1999/xlink" x="0px" y="0px"
	 width="50px" height="50px" viewBox="0 0 50 50" enable-background="new 0 0 50 50" xml:space="preserve">
<path d="M44.125,7.068c-0.784-0.182-1.567,0.307-1.75,1.09l-2.931,12.62c-0.094,0.042-0.182,0.089-0.27,0.142v-1.7
	c0-2.521-2.045-4.574-4.563-4.589c0.006-0.061,0.019-0.122,0.019-0.185c0-0.913-0.739-1.653-1.653-1.653H10.944
	c-0.913,0-1.652,0.74-1.652,1.653c0,0.063,0.012,0.124,0.02,0.185c-2.52,0.015-4.563,2.067-4.563,4.589v4.407
	c0,2.532,2.06,4.59,4.591,4.59h7.527c2.531,0,4.592-2.059,4.592-4.59v-1.652h1.01v1.652c0,2.532,2.059,4.59,4.59,4.59h7.528
	c0.829,0,1.604-0.224,2.276-0.609l-1.635,7.037c-0.559,2.406-2.971,3.909-5.377,3.352c-2.246-0.521-3.703-2.659-3.434-4.898
	l0.762,0.178c0.959,0.223,1.916-0.375,2.139-1.332c0.223-0.959-0.375-1.916-1.332-2.139l-5.889-1.367
	c-0.957-0.223-1.914,0.375-2.138,1.332c-0.224,0.959,0.374,1.916,1.332,2.138l0.381,0.089c-0.866,4.854,2.224,9.604,7.08,10.73
	c5.017,1.166,10.043-1.968,11.207-6.982l2.832-12.197c0.181-0.773-0.034-1.544-0.508-2.109l2.931-12.621
	C45.396,8.033,44.909,7.25,44.125,7.068z M34.585,26.381h-7.527c-1.52,0-2.754-1.235-2.754-2.754v-2.57
	c0-0.507-0.412-0.918-0.918-0.918h-2.848c-0.507,0-0.918,0.411-0.918,0.918v2.57c0,1.519-1.234,2.754-2.755,2.754H9.338
	c-1.521,0-2.755-1.235-2.755-2.754V19.22c0-1.519,1.234-2.754,2.755-2.754h25.247c1.52,0,2.755,1.235,2.755,2.754v4.407
	C37.34,25.146,36.104,26.381,34.585,26.381z"/>
</svg>
