<?xml version="1.0" encoding="utf-8"?>
<!-- Generator: Adobe Illustrator 16.0.0, SVG Export Plug-In . SVG Version: 6.00 Build 0)  -->
<!DOCTYPE svg PUBLIC "-//W3C//DTD SVG 1.1//EN" "http://www.w3.org/Graphics/SVG/1.1/DTD/svg11.dtd">
<svg version="1.1" id="Capa_1" xmlns="http://www.w3.org/2000/svg" xmlns:xlink="http://www.w3.org/1999/xlink" x="0px" y="0px"
	 width="44.818px" height="52.809px" viewBox="0 0 44.818 52.809" enable-background="new 0 0 44.818 52.809" xml:space="preserve">
<g>
	<rect x="9.7" y="1.459" transform="matrix(0.7139 0.7003 -0.7003 0.7139 4.9776 -7.8347)" width="4.751" height="1.429"/>
	<rect x="0.293" y="11.308" transform="matrix(-0.7142 -0.7 0.7 -0.7142 -3.8422 22.4774)" width="4.75" height="1.429"/>
	<rect x="32.026" y="-0.202" transform="matrix(0.7006 0.7136 -0.7136 0.7006 11.354 -22.712)" width="1.43" height="4.75"/>
	<rect x="39.773" y="11.308" transform="matrix(0.7141 -0.7001 0.7001 0.7141 3.6349 32.945)" width="4.751" height="1.43"/>
	<path d="M42.107,8.591l-1.27,1.247l-1.58-1.612c0.332-0.692,0.219-1.547-0.355-2.125c-0.566-0.563-1.404-0.682-2.09-0.365
		l-2.043-2.082l1.402-1.377l-1.006-1.019l-3.387,3.33l1.002,1.021l1.404-1.375l1.965,2l-6.85,6.9l-13.784,0l-6.851-6.9l1.966-2
		l1.403,1.375l1.003-1.021v0l0,0L9.65,1.257L8.644,2.276l0,0v0l1.402,1.376L8.005,5.735C7.318,5.418,6.48,5.537,5.914,6.1
		c-0.431,0.434-0.602,1.022-0.52,1.582c0.027,0.187,0.083,0.37,0.166,0.543l-1.58,1.612L2.709,8.59L1.706,9.612l0,0v0l3.39,3.33
		l1.003-1.021v0l0,0l-1.537-1.51L6.06,8.885l10.618,10.908l-0.015,30.5c0,1.393,1.125,2.516,2.516,2.516
		c1.385,0,2.515-1.123,2.515-2.516L21.689,29.91h1.438l-0.004,20.383c0,1.393,1.129,2.516,2.514,2.516
		c1.391,0,2.516-1.123,2.516-2.516l-0.014-30.5L38.756,8.885l1.5,1.526l-1.537,1.51l1.002,1.021l3.391-3.33L42.107,8.591z"/>
	<circle cx="22.408" cy="7.094" r="4.59"/>
</g>
</svg>
