<?xml version="1.0" encoding="utf-8"?>
<!-- Generator: Adobe Illustrator 17.0.0, SVG Export Plug-In . SVG Version: 6.00 Build 0)  -->
<!DOCTYPE svg PUBLIC "-//W3C//DTD SVG 1.1//EN" "http://www.w3.org/Graphics/SVG/1.1/DTD/svg11.dtd">
<svg version="1.1" id="Capa_1" xmlns="http://www.w3.org/2000/svg" xmlns:xlink="http://www.w3.org/1999/xlink" x="0px" y="0px"
	 width="15.982px" height="21.797px" viewBox="0 0 15.982 21.797" enable-background="new 0 0 15.982 21.797" xml:space="preserve">
<path d="M7.745,8.76l8.145-1.321v11.043c0,0.914-0.681,1.644-1.744,1.913c-1.168,0.289-2.294-0.2-2.519-1.095
	c-0.224-0.897,0.541-1.858,1.708-2.15c0.527-0.13,1.047-0.103,1.481,0.05v-6.654l-5.969,1.092l-0.028,8.276
	c-0.005,0.783-0.713,1.554-1.729,1.805c-1.153,0.289-2.363-0.26-2.492-1.081c-0.221-0.886,0.534-1.837,1.691-2.127
	c0.52-0.13,1.029-0.104,1.456,0.046V8.76z M4.683,12.81L4.712,2.581c0,0,2.228-0.119,4.407,3.298c0,0,0.006-1.764-1.669-3.055
	C4.179,0.54,4.188,0,4.188,0C3.564,0.073,3.5,0.547,3.5,0.547v10.771c-0.468-0.164-1.028-0.193-1.602-0.05
	c-1.27,0.314-2.1,1.363-1.857,2.338c0.143,0.901,1.471,1.506,2.74,1.187c1.115-0.278,1.894-1.12,1.9-1.983H4.683z M10.607,6.2
	c0.388-0.097,0.659-0.39,0.661-0.69h0.001l0.01-3.559c0,0,0.775-0.041,1.533,1.148c0,0,0.001-0.614-0.582-1.062
	c-1.138-0.795-1.134-0.983-1.134-0.983c-0.217,0.025-0.24,0.19-0.24,0.19v3.748C10.694,4.934,10.5,4.924,10.3,4.973
	C9.857,5.082,9.57,5.448,9.654,5.787C9.704,6.101,10.166,6.311,10.607,6.2z M14.447,6.209c0.27-0.067,0.458-0.272,0.46-0.481
	l0.007-2.479c0,0,0.54-0.029,1.068,0.799c0,0,0.001-0.428-0.404-0.74c-0.793-0.554-0.791-0.685-0.791-0.685
	c-0.151,0.018-0.167,0.133-0.167,0.133v2.611c-0.113-0.04-0.249-0.047-0.388-0.012c-0.308,0.076-0.509,0.33-0.45,0.566
	C13.816,6.14,14.138,6.287,14.447,6.209z"/>
</svg>
