<?xml version="1.0" encoding="iso-8859-1"?>
<!-- Generator: Adobe Illustrator 16.0.4, SVG Export Plug-In . SVG Version: 6.00 Build 0)  -->
<!DOCTYPE svg PUBLIC "-//W3C//DTD SVG 1.1//EN" "http://www.w3.org/Graphics/SVG/1.1/DTD/svg11.dtd">
<svg version="1.1" id="Capa_1" xmlns="http://www.w3.org/2000/svg" xmlns:xlink="http://www.w3.org/1999/xlink" x="0px" y="0px"
	 width="35.454px" height="42.5px" viewBox="0 0 35.454 42.5" style="enable-background:new 0 0 35.454 42.5;" xml:space="preserve"
	>
<g>
	<path id="path4134" style="fill:#040606;" d="M22.099,7.009c1.467,0,2.656,1.19,2.656,2.656c0,1.467-1.189,2.656-2.656,2.656
		c-1.468,0-2.656-1.189-2.656-2.656C19.442,8.199,20.631,7.009,22.099,7.009z M21.25,42.5c4.559,0,8.77-1.448,12.226-3.894
		c1.128-0.797,1.166-2.357,0.199-3.342L22.412,23.808c-0.968-0.985-0.954-2.568,0.031-3.535L34.711,8.216
		c0.985-0.968,1.014-2.569-0.057-3.441C30.998,1.792,26.336,0,21.25,0C9.515,0,0,9.514,0,21.25S9.515,42.5,21.25,42.5"/>
</g>
<g>
</g>
<g>
</g>
<g>
</g>
<g>
</g>
<g>
</g>
<g>
</g>
<g>
</g>
<g>
</g>
<g>
</g>
<g>
</g>
<g>
</g>
<g>
</g>
<g>
</g>
<g>
</g>
<g>
</g>
</svg>
