<?xml version="1.0" encoding="utf-8"?>
<!-- Generator: Adobe Illustrator 17.0.0, SVG Export Plug-In . SVG Version: 6.00 Build 0)  -->
<!DOCTYPE svg PUBLIC "-//W3C//DTD SVG 1.1//EN" "http://www.w3.org/Graphics/SVG/1.1/DTD/svg11.dtd">
<svg version="1.1" id="Capa_1" xmlns="http://www.w3.org/2000/svg" xmlns:xlink="http://www.w3.org/1999/xlink" x="0px" y="0px"
	 width="26.761px" height="19.114px" viewBox="0 0 26.761 19.114" enable-background="new 0 0 26.761 19.114" xml:space="preserve">
<path d="M9.107,16.226c-0.057,0.002-0.114,0.007-0.17,0.007c-1.437,0-2.599-0.486-2.599-1.085c0-0.556,1.005-0.023,2.297,0.056
	C7.399,12.111,7.201,7.791,7.799,4.419C3.401,3.726,0-0.521,0,4.446c0,5.387,4.001,14.667,8.938,14.667
	c0.742,0,1.463-0.213,2.152-0.59C10.289,18.011,9.631,17.21,9.107,16.226z M4.146,8.945C2.681,8.379,1.701,7.38,1.958,6.712
	c0.257-0.667,1.654-0.75,3.12-0.186c1.465,0.565,2.444,1.565,2.187,2.232C7.008,9.426,5.611,9.51,4.146,8.945z M17.968,4.947
	c-4.657-1.641-6.616-8.116-8.406-3.036C7.77,6.994,8.459,17.076,13.115,18.716c4.655,1.64,11.512-5.781,13.303-10.863
	C28.208,2.771,22.623,6.587,17.968,4.947z M10.654,4.701c0.467-0.545,1.81-0.16,3.005,0.86c1.194,1.021,1.785,2.289,1.322,2.833
	c-0.467,0.544-1.812,0.159-3.006-0.861C10.782,6.513,10.19,5.244,10.654,4.701z M16.883,15.839c-0.199,0.565-1.459,0.638-2.813,0.16
	c-1.351-0.477-2.288-1.321-2.087-1.887c0.198-0.565,1.073,0.456,2.425,0.932C15.761,15.521,17.083,15.274,16.883,15.839z
	 M21.03,10.73c-1.571,0.057-2.863-0.478-2.888-1.194c-0.026-0.715,1.228-1.34,2.795-1.396c1.568-0.056,2.863,0.478,2.889,1.193
	S22.6,10.674,21.03,10.73z"/>
</svg>
