<?xml version="1.0" encoding="utf-8"?>
<!-- Generator: Adobe Illustrator 17.0.0, SVG Export Plug-In . SVG Version: 6.00 Build 0)  -->
<!DOCTYPE svg PUBLIC "-//W3C//DTD SVG 1.1//EN" "http://www.w3.org/Graphics/SVG/1.1/DTD/svg11.dtd">
<svg version="1.1" id="Capa_1" xmlns="http://www.w3.org/2000/svg" xmlns:xlink="http://www.w3.org/1999/xlink" x="0px" y="0px"
	 width="64px" height="64px" viewBox="0 0 64 64" enable-background="new 0 0 64 64" xml:space="preserve">
<path d="M46.934,28.88c-0.27,0.114-0.446,0.441-0.406,0.73c0.113,0.823,0.285,2.476,0.096,3.926
	c-0.191,1.474-0.548,3.25-0.729,4.111c-0.058,0.285,0.111,0.604,0.394,0.677c6.866,1.755,16.775-12.834,15.356-13.995
	C60.354,23.275,49.388,27.839,46.934,28.88z M60.132,25.592c-1.598,5.591-11.468,11.178-11.888,11.413
	c-0.041,0.024-0.085,0.034-0.129,0.034c-0.093,0-0.183-0.048-0.23-0.135c-0.072-0.127-0.025-0.288,0.102-0.36
	c0.096-0.054,9.104-5.153,11.338-10.272c0.117-0.268-0.025-0.401-0.287-0.271c-1.701,0.847-5.603,3.26-7.674,4.541
	c-1.067,0.659-1.911,1.181-2.323,1.419c-1.5,0.865-1.031,2.065-1.011,2.115c0.056,0.136-0.009,0.29-0.145,0.346
	s-0.29-0.01-0.344-0.146c-0.008-0.016-0.661-1.679,1.235-2.773c0.406-0.234,1.245-0.753,2.309-1.411
	c7.651-4.73,8.599-5.11,8.938-4.854C60.105,25.3,60.179,25.427,60.132,25.592z M16.222,29.611c0.04-0.289-0.136-0.617-0.406-0.73
	c-2.454-1.042-13.421-5.605-14.711-4.55c-1.418,1.16,8.491,15.75,15.357,13.995c0.283-0.072,0.452-0.392,0.393-0.677
	c-0.18-0.861-0.535-2.638-0.728-4.111C15.937,32.087,16.109,30.434,16.222,29.611z M15.21,34.275
	c-0.055,0.136-0.21,0.201-0.345,0.146c-0.135-0.056-0.2-0.21-0.145-0.346c0.02-0.049,0.477-1.257-1.011-2.115
	c-0.412-0.239-1.256-0.76-2.322-1.419C9.315,29.26,5.413,26.847,3.712,26c-0.261-0.13-0.403,0.002-0.287,0.271
	c2.232,5.122,11.243,10.219,11.339,10.273c0.127,0.072,0.172,0.233,0.101,0.36c-0.048,0.087-0.138,0.135-0.231,0.135
	c-0.044,0-0.088-0.01-0.129-0.034c-0.42-0.234-10.289-5.822-11.887-11.413c-0.047-0.166,0.025-0.292,0.108-0.355
	c0.34-0.256,1.289,0.124,8.938,4.854c1.063,0.658,1.903,1.177,2.309,1.411C15.87,32.596,15.217,34.26,15.21,34.275z M39.874,24.786
	c-0.519-0.789-1.796-2.429-4.004-3.467c-0.265-0.124-0.508-0.188-0.541-0.167c-0.021,0.011-0.042,0.021-0.067,0.026
	c-0.528,0.113-0.647,2.02-0.734,3.412c-0.036,0.586-0.072,1.185-0.135,1.737c2.633-0.55,4.45-1.491,4.476-1.504
	c0.129-0.067,0.288-0.018,0.357,0.111c0.067,0.129,0.018,0.288-0.111,0.356c-0.105,0.056-2.018,1.048-4.797,1.597
	c-0.286,1.757-1.537,3.545-2.093,4.27c0.519,0.125,0.91,0.355,1.196,0.605c0.506-0.884,2.788-4.423,6.742-4.062
	c4.474,0.413,4.73,5.52,4.732,5.572c0.008,0.096,0.181,2.584-1.288,4.183c-0.772,0.839-1.851,1.27-3.203,1.28h-0.037
	c-4.068,0-6.295-4.649-6.9-6.128c-0.262-0.397-0.866-1.022-2.092-1.022c-0.873,0-1.461,0.316-1.838,0.644
	c-0.251,0.694-2.498,6.506-7.047,6.506h-0.037c-1.353-0.011-2.431-0.441-3.203-1.28c-1.469-1.599-1.296-4.087-1.288-4.192
	c0.002-0.042,0.259-5.149,4.732-5.562c3.834-0.347,6.094,2.963,6.691,3.975c0.195-0.144,0.426-0.279,0.7-0.385
	c-0.476-0.601-1.84-2.456-2.178-4.301c-2.52-0.445-4.163-1.318-4.257-1.37c-0.129-0.069-0.176-0.229-0.107-0.358
	s0.231-0.176,0.358-0.106c0.022,0.012,1.564,0.831,3.923,1.278c-0.067-0.581-0.11-1.22-0.148-1.844
	c-0.061-0.979-0.139-2.21-0.362-2.894c-0.091-0.278-0.472-0.362-0.732-0.228c-2.024,1.039-3.212,2.566-3.707,3.318
	c-0.161,0.244-0.509,0.471-0.798,0.511c-6.701,0.936-5.025,8.31-5.025,8.31s0.454,9.161,5.396,10.889
	c0.275,0.097,0.738,0.201,1.023,0.264c3.862,0.846,6.538,0.874,7.613,0.838c0.292-0.009,0.763-0.007,1.055,0.002
	c0.995,0.032,3.388-0.014,7.14-0.84c0.285-0.062,0.748-0.167,1.022-0.264c4.942-1.728,5.395-10.889,5.395-10.889
	s1.677-7.374-5.024-8.31C40.383,25.257,40.034,25.029,39.874,24.786z M32.433,36.845c0.336-0.057,0.398-0.437,0.399-0.44
	c0.022-0.144,0.161-0.24,0.301-0.221c0.144,0.022,0.243,0.157,0.221,0.301c-0.043,0.283-0.269,0.788-0.834,0.883
	c-0.016,0.002-0.03,0.003-0.044,0.003c-0.126,0-0.238-0.092-0.26-0.222C32.192,37.005,32.289,36.868,32.433,36.845z M29.793,36.184
	c0.141-0.021,0.277,0.076,0.301,0.219c0.003,0.021,0.072,0.388,0.399,0.442c0.144,0.023,0.24,0.16,0.217,0.304
	c-0.021,0.13-0.134,0.222-0.26,0.222c-0.015,0-0.03-0.001-0.044-0.003c-0.566-0.095-0.791-0.6-0.835-0.883
	C29.55,36.341,29.648,36.206,29.793,36.184z M26.677,41.982l0.397,1.784c0.031,0.142-0.059,0.282-0.202,0.315
	c-0.019,0.004-0.038,0.006-0.058,0.006c-0.121,0-0.23-0.084-0.258-0.207l-0.396-1.785c-0.234-1.058,0.069-2.695,0.693-3.729
	l1.057-1.75c0.076-0.127,0.238-0.165,0.363-0.091c0.125,0.076,0.164,0.238,0.089,0.362l-1.057,1.752
	C26.753,39.556,26.471,41.056,26.677,41.982z M34.589,40.396c-0.061,0.134-0.216,0.191-0.35,0.132
	c-2.58-1.162-5.714-0.005-5.745,0.008c-0.031,0.011-0.062,0.017-0.093,0.017c-0.107,0-0.208-0.065-0.247-0.171
	c-0.053-0.137,0.017-0.29,0.153-0.341c0.137-0.052,3.373-1.246,6.15,0.007C34.59,40.107,34.649,40.264,34.589,40.396z
	 M36.781,42.096l-0.396,1.785c-0.027,0.123-0.138,0.207-0.259,0.207c-0.019,0-0.038-0.002-0.057-0.006
	c-0.143-0.033-0.233-0.174-0.201-0.315l0.396-1.784c0.205-0.927-0.076-2.427-0.629-3.342l-1.057-1.752
	c-0.076-0.124-0.036-0.286,0.089-0.362c0.125-0.074,0.288-0.036,0.363,0.091l1.057,1.75C36.712,39.4,37.016,41.038,36.781,42.096z
	 M28.979,32.033c-0.435-0.747-2.426-3.829-5.729-3.829c-0.166,0-0.335,0.007-0.507,0.023c-4.019,0.371-4.252,5.02-4.254,5.067
	c-0.002,0.032-0.162,2.379,1.152,3.805c0.669,0.727,1.616,1.1,2.815,1.107l0.033,0.264v-0.264c2.436,0,4.193-1.917,5.274-3.621
	c-0.846,0.9-2.111,1.837-3.723,1.837c-3.032,0-4.533-2.798-4.595-2.917l-0.058-0.11l0.048-0.115c0.054-0.128,1.358-3.135,4.34-3.135
	c2.39,0,4.252,1.611,4.905,2.26C28.755,32.295,28.853,32.168,28.979,32.033z M28.37,26.528c0.878,0.137,1.854,0.214,2.896,0.181
	c0.91-0.027,1.776-0.133,2.582-0.278c0.069-0.582,0.113-1.234,0.153-1.874c0.082-1.324,0.158-2.524,0.473-3.237
	c0.116-0.268,0.062-0.514-0.221-0.589c-0.795-0.211-1.675-0.339-2.652-0.339h-0.452c-1.157,0-2.176,0.181-3.077,0.466
	c-0.278,0.088-0.364,0.371-0.268,0.647c0.255,0.725,0.325,1.836,0.4,3.052C28.246,25.232,28.292,25.922,28.37,26.528z
	 M28.462,27.077c0.425,1.902,2.004,3.85,2.171,4.052c0.225-0.045,0.473-0.071,0.742-0.071c0.085,0,0.165,0.007,0.246,0.012
	c0.319-0.397,1.77-2.272,2.14-4.082c-0.775,0.13-1.605,0.223-2.478,0.25c-0.165,0.005-0.33,0.007-0.491,0.007
	C29.96,27.245,29.183,27.179,28.462,27.077z M23.974,31.368c1.058,0,1.916,0.858,1.916,1.916S25.032,35.2,23.974,35.2
	s-1.916-0.858-1.916-1.916S22.916,31.368,23.974,31.368z M38.312,31.368c1.058,0,1.916,0.858,1.916,1.916S39.37,35.2,38.312,35.2
	s-1.916-0.858-1.916-1.916S37.254,31.368,38.312,31.368z M40.4,38.207c1.201-0.008,2.148-0.381,2.817-1.109
	c1.316-1.431,1.151-3.771,1.15-3.793c-0.009-0.201-0.243-4.707-4.255-5.077c-3.726-0.347-5.912,3.228-6.276,3.875
	c0.025,0.067,0.065,0.165,0.113,0.283c0.01,0.015,0.019,0.03,0.028,0.045c0.625-0.629,2.504-2.286,4.93-2.286
	c2.981,0,4.286,3.007,4.34,3.135l0.049,0.115l-0.059,0.11c-0.062,0.119-1.562,2.917-4.595,2.917c-1.317,0-2.404-0.627-3.22-1.346
	c1.095,1.561,2.742,3.13,4.943,3.13v0.264L40.4,38.207z M19.977,33.37c0.302,0.499,1.677,2.524,4.063,2.524
	c2.358,0,3.968-2.366,4.364-3.014c-0.49-0.501-2.327-2.206-4.628-2.206C21.451,30.674,20.238,32.84,19.977,33.37z M26.419,33.284
	c0,1.348-1.096,2.444-2.444,2.444s-2.444-1.097-2.444-2.444c0-1.348,1.097-2.444,2.444-2.444S26.419,31.937,26.419,33.284z
	 M42.706,33.371c-0.262-0.53-1.479-2.697-3.798-2.697c-2.302,0-4.138,1.705-4.628,2.206c0.397,0.648,2.01,3.014,4.363,3.014
	C41.036,35.894,42.405,33.871,42.706,33.371z M35.869,33.284c0-1.348,1.096-2.444,2.443-2.444c1.349,0,2.445,1.097,2.445,2.444
	c0,1.348-1.097,2.444-2.445,2.444C36.965,35.729,35.869,34.632,35.869,33.284z"/>
</svg>
