<?xml version="1.0" encoding="iso-8859-1"?>
<!-- Generator: Adobe Illustrator 17.0.2, SVG Export Plug-In . SVG Version: 6.00 Build 0)  -->
<!DOCTYPE svg PUBLIC "-//W3C//DTD SVG 1.1//EN" "http://www.w3.org/Graphics/SVG/1.1/DTD/svg11.dtd">
<svg version="1.1" id="Layer_1" xmlns="http://www.w3.org/2000/svg" xmlns:xlink="http://www.w3.org/1999/xlink" x="0px" y="0px"
	 width="64px" height="64px" viewBox="0 0 64 64" style="enable-background:new 0 0 64 64;" xml:space="preserve">
<g>
	<path d="M5.817,42.792v5.401c0,0.552,0.447,1,1,1h13.821c0.553,0,1-0.448,1-1v-5.456l2.845,1.866v8.277c0,0.552,0.447,1,1,1h5.084
		c0.267,0,0.521-0.106,0.71-0.295c0.188-0.189,0.292-0.445,0.29-0.711l-0.079-11.676c-0.002-0.327-0.164-0.632-0.434-0.817
		l-5.508-3.786l0.653-0.897v0.265c0,0.552,0.447,1,1,1h11.072c0.553,0,1-0.448,1-1v-4.925c0-0.552-0.447-1-1-1h-5.831v-4.163
		c0-0.325-0.157-0.629-0.423-0.817l-5.958-4.21c-0.169-0.119-0.37-0.183-0.577-0.183H12.536c-0.553,0-1,0.448-1,1v11.358
		c0,0.55,0.444,0.997,0.994,1l1.84,0.011c-0.088,0.154-0.135,0.33-0.133,0.508l0.069,7.251H6.817
		C6.265,41.792,5.817,42.24,5.817,42.792z M18.553,27.112h0.709l-0.697,0.986L18.553,27.112z M7.817,43.792h7.499
		c0.267,0,0.522-0.106,0.711-0.296c0.188-0.189,0.292-0.446,0.289-0.713l-0.076-7.938l5.771-8.155
		c0.216-0.305,0.243-0.705,0.071-1.037c-0.171-0.332-0.514-0.541-0.888-0.541h-3.653c-0.268,0-0.523,0.107-0.711,0.297
		c-0.188,0.19-0.292,0.447-0.289,0.715l0.051,4.387l-1.157,1.529l-1.898-0.011v-9.364h11.63l5.275,3.728v4.645c0,0.552,0.447,1,1,1
		h5.831v2.925H28.2v-2.336c0-0.433-0.278-0.817-0.69-0.951c-0.407-0.133-0.862,0.012-1.118,0.362l-3.066,4.21
		c-0.158,0.218-0.223,0.492-0.177,0.757c0.045,0.266,0.196,0.502,0.419,0.656l5.925,4.073l0.068,10.148h-3.077v-7.817
		c0-0.337-0.17-0.651-0.451-0.836l-4.845-3.177c-0.307-0.2-0.699-0.217-1.024-0.043c-0.323,0.175-0.524,0.512-0.524,0.88v6.308
		H7.817V43.792z"/>
	<path d="M27.055,17.832c0,3.321,2.702,6.023,6.023,6.023s6.023-2.702,6.023-6.023c0-3.322-2.702-6.024-6.023-6.024
		S27.055,14.51,27.055,17.832z M29.055,17.832c0-2.219,1.805-4.024,4.023-4.024s4.023,1.805,4.023,4.024s-1.805,4.023-4.023,4.023
		S29.055,20.05,29.055,17.832z"/>
	<path d="M19.38,51.482V57.5c0,0.829,0.672,1.5,1.5,1.5h31.486c0.828,0,1.5-0.671,1.5-1.5v-52c0-0.829-0.672-1.5-1.5-1.5h-31.41
		c-0.828,0-1.5,0.671-1.5,1.5v13.057h3V7h28.41v49H22.38v-4.518H19.38z"/>
</g>
</svg>
