<?xml version="1.0" encoding="utf-8"?>
<!-- Generator: Adobe Illustrator 16.0.0, SVG Export Plug-In . SVG Version: 6.00 Build 0)  -->
<!DOCTYPE svg PUBLIC "-//W3C//DTD SVG 1.1//EN" "http://www.w3.org/Graphics/SVG/1.1/DTD/svg11.dtd">
<svg version="1.1" id="Layer_1" xmlns="http://www.w3.org/2000/svg" xmlns:xlink="http://www.w3.org/1999/xlink" x="0px" y="0px"
	 width="500px" height="500px" viewBox="0 0 500 500" enable-background="new 0 0 500 500" xml:space="preserve">
<g>
	<path d="M429.64,352.813v-63.781h-18.733v-56.318C349.734,180.85,372.34,54.518,372.34,54.518l-20.277-8.645l4.322-17.949
		c-15.625-11.639-46.543-13.299-46.543-13.299l-23.938,71.809H251.33h-2.66h-34.574l-23.939-71.809c0,0-30.916,1.66-46.541,13.299
		l4.32,17.949l-20.277,8.645c0,0,22.607,126.332-38.564,178.195v56.318H70.36v63.781h18.733v33.714H70.36v63.781h18.733v35.067
		H248.67h2.66h159.576v-35.067h18.733v-63.781h-18.733v-33.714H429.64z M382.895,418.741H117.105V291.249h265.789V418.741z"/>
	<polygon points="182.613,364.843 210.683,364.843 210.683,344.526 182.613,344.526 182.613,326.647 213.054,326.647 
		213.054,306.331 157.684,306.331 157.684,400.026 182.613,400.026 	"/>
	<path d="M291.015,392.688c6.387-4.893,9.581-11.59,9.581-20.092c0-5.725-1.304-10.381-3.909-13.971
		c-2.606-3.588-6.815-6.152-12.625-7.689v-0.643c4.399-1.066,7.946-3.459,10.638-7.178c2.692-3.717,4.038-8.201,4.038-13.457
		c0-7.988-3.088-13.875-9.261-17.656c-6.175-3.781-15.627-5.672-28.358-5.672h-32.684v93.695h36.465
		C275.922,400.026,284.627,397.581,291.015,392.688z M253.748,325.493h7.114c7.946,0,11.92,2.627,11.92,7.883
		c0,2.947-0.993,5.17-2.98,6.664c-1.986,1.496-4.796,2.244-8.427,2.244h-7.627V325.493z M253.748,380.479v-19.674h8.396
		c4.016,0,7.082,0.832,9.196,2.498c2.115,1.666,3.173,4.061,3.173,7.178c0,6.666-3.953,9.998-11.856,9.998H253.748z"/>
	<rect x="316.874" y="306.331" width="25.442" height="93.695"/>
</g>
</svg>
