<?xml version="1.0" encoding="iso-8859-1"?>
<!-- Generator: Adobe Illustrator 16.0.0, SVG Export Plug-In . SVG Version: 6.00 Build 0)  -->
<!DOCTYPE svg PUBLIC "-//W3C//DTD SVG 1.1//EN" "http://www.w3.org/Graphics/SVG/1.1/DTD/svg11.dtd">
<svg version="1.1" id="Capa_1" xmlns="http://www.w3.org/2000/svg" xmlns:xlink="http://www.w3.org/1999/xlink" x="0px" y="0px"
	 width="15.506px" height="31.311px" viewBox="0 0 15.506 31.311" style="enable-background:new 0 0 15.506 31.311;"
	 xml:space="preserve">
<path style="fill:#000000;" d="M7.756,0C3.475,0,0,3.473,0,7.75c0,3.031,1.747,5.656,4.282,6.934v3.506c0,0,2.756,0.219,2.756,1.906
	c0,1.172-1.418,1.646-2.232,2.109c-0.355,0.203-1.158,0.639-0.014,1.234c0.611,0.326,2.174,0.713,2.174,2.232
	c0,1.525-2.535,2.252-2.535,2.252l3.385,3.387l3.408-3.406V14.684c2.537-1.277,4.283-3.902,4.283-6.934
	C15.506,3.473,12.032,0,7.756,0z M2.139,6.814C2.649,4.18,4.969,2.186,7.756,2.186c2.785,0,5.104,1.994,5.613,4.629H2.139z"/>
<g>
</g>
<g>
</g>
<g>
</g>
<g>
</g>
<g>
</g>
<g>
</g>
<g>
</g>
<g>
</g>
<g>
</g>
<g>
</g>
<g>
</g>
<g>
</g>
<g>
</g>
<g>
</g>
<g>
</g>
</svg>
