<?xml version="1.0" encoding="utf-8"?>
<!-- Generator: Adobe Illustrator 16.0.0, SVG Export Plug-In . SVG Version: 6.00 Build 0)  -->
<!DOCTYPE svg PUBLIC "-//W3C//DTD SVG 1.1//EN" "http://www.w3.org/Graphics/SVG/1.1/DTD/svg11.dtd">
<svg version="1.1" id="Layer_1" xmlns="http://www.w3.org/2000/svg" xmlns:xlink="http://www.w3.org/1999/xlink" x="0px" y="0px"
	 width="100px" height="100px" viewBox="0 0 100 100" enable-background="new 0 0 100 100" xml:space="preserve">
<path d="M64.391,57.376l-8.361-6.381l8.617-7.704c1.77-1.579,1.93-4.308,0.357-6.079L52.488,23.067
	c-1.17-1.321-3.133-1.801-4.758-1.174c-1.668,0.63-2.791,2.252-2.791,4.035v14.996l-2.965-2.93
	c-1.639-1.622-4.482-1.602-6.102,0.037c-1.674,1.691-1.656,4.431,0.035,6.106l7.428,7.337l-7.646,8.752
	c-0.758,0.868-1.131,1.98-1.055,3.13c0.078,1.151,0.598,2.203,1.467,2.962c1.727,1.504,4.578,1.313,6.092-0.41l2.746-3.148v10.642
	c0,1.758,1.051,3.323,2.672,3.99c0.525,0.218,1.078,0.327,1.645,0.327c1.158,0,2.244-0.451,3.063-1.272L64.832,63.85
	c0.875-0.88,1.328-2.097,1.246-3.34C65.992,59.272,65.377,58.132,64.391,57.376z M53.576,62.934v-2.952l1.666,1.271L53.576,62.934z
	 M53.576,41.608v-4.287l2.115,2.393L53.576,41.608z"/>
</svg>
