<?xml version="1.0" encoding="iso-8859-1"?>
<!-- Generator: Adobe Illustrator 16.0.0, SVG Export Plug-In . SVG Version: 6.00 Build 0)  -->
<!DOCTYPE svg PUBLIC "-//W3C//DTD SVG 1.1//EN" "http://www.w3.org/Graphics/SVG/1.1/DTD/svg11.dtd">
<svg version="1.1" id="Capa_1" xmlns="http://www.w3.org/2000/svg" xmlns:xlink="http://www.w3.org/1999/xlink" x="0px" y="0px"
	 width="32.248px" height="24.413px" viewBox="0 0 32.248 24.413" style="enable-background:new 0 0 32.248 24.413;"
	 xml:space="preserve">
<polygon points="2.215,19.097 2.215,4.909 14.404,4.909 16.703,2.623 0,2.623 0,21.386 8.008,21.386 8.873,19.097 "/>
<path d="M29.32,6.998V2.623h-8.586l-0.791,2.286h7.162v14.188H13.451l-2.357,2.289H29.32v-4.299c0.896,0,2.928,0.166,2.928-1.511
	V8.794C32.248,6.77,30.096,6.998,29.32,6.998z"/>
<polygon points="4.111,6.808 4.111,17.201 4.111,17.204 9.59,17.204 10.951,13.737 6.232,13.741 12.494,6.808 4.111,6.808 "/>
<polygon points="23.031,8.995 15.404,17.204 25.379,17.201 25.393,6.808 19.09,6.808 18.271,8.995 "/>
<polygon points="16.791,9.974 20.748,0 8.533,12.778 12.695,12.723 7.557,24.413 20.957,9.917 "/>
<g>
</g>
<g>
</g>
<g>
</g>
<g>
</g>
<g>
</g>
<g>
</g>
<g>
</g>
<g>
</g>
<g>
</g>
<g>
</g>
<g>
</g>
<g>
</g>
<g>
</g>
<g>
</g>
<g>
</g>
</svg>
