<?xml version="1.0" encoding="utf-8"?>
<!-- Generator: Adobe Illustrator 16.0.0, SVG Export Plug-In . SVG Version: 6.00 Build 0)  -->
<!DOCTYPE svg PUBLIC "-//W3C//DTD SVG 1.1//EN" "http://www.w3.org/Graphics/SVG/1.1/DTD/svg11.dtd">
<svg version="1.1" id="Capa_1" xmlns="http://www.w3.org/2000/svg" xmlns:xlink="http://www.w3.org/1999/xlink" x="0px" y="0px"
	 width="51.921px" height="58.332px" viewBox="0 0 51.921 58.332" enable-background="new 0 0 51.921 58.332" xml:space="preserve">
<g>
	<path fill="#020202" d="M28.556,53.167c0-1.426,1.007-2.646,2.405-2.92c11.514-2.26,20.228-12.427,20.228-24.593
		c0-13.82-11.244-25.063-25.063-25.063c-13.82,0-25.063,11.243-25.063,25.063c0,12.166,8.713,22.333,20.227,24.593
		c1.396,0.274,2.406,1.497,2.406,2.92v0.015H10.133c-1.609,0-2.914,1.305-2.914,2.914c0,1.075,0.872,1.947,1.947,1.947h34.715
		c1.075,0,1.947-0.872,1.947-1.947c0-1.609-1.305-2.914-2.914-2.914H28.556V53.167z M3.979,25.654
		c0-12.212,9.935-22.146,22.146-22.146c12.211,0,22.146,9.935,22.146,22.146s-9.936,22.147-22.146,22.147
		C13.914,47.802,3.979,37.866,3.979,25.654z"/>
	<path fill="#020202" d="M26.34,46.405c3.193,0,4.994-1.039,5.853-2.722c5.57-1.881,9.984-6.268,11.908-11.817
		c1.83-0.673,2.968-2.574,2.968-6.621c0-3.389-1.171-5.21-3.039-5.999c-1.907-5.312-6.102-9.525-11.398-11.461
		c-0.571-2.006-2.455-3.27-6.721-3.27c-3.48,0-5.313,1.229-6.066,3.188c-5.321,1.868-9.558,6.027-11.532,11.297
		C6.387,19.62,5.18,21.51,5.18,25.676c0,3.284,1.101,5.093,2.87,5.919c1.841,5.584,6.199,10.021,11.727,11.984
		C20.495,45.325,22.4,46.405,26.34,46.405z M30.679,31.162c0.511-0.463,0.95-1.002,1.301-1.6c0.902,0.258,1.873,0.541,2.923,0.87
		c-0.809,1.479-1.983,2.727-3.398,3.634C31.192,32.994,30.92,32.028,30.679,31.162z M30.773,21.201
		c-0.255-0.24-0.525-0.464-0.815-0.663c0.311-1.075,0.648-2.275,1.058-3.593c1.39,0.783,2.574,1.887,3.45,3.213
		C33.051,20.569,31.826,20.905,30.773,21.201z M21.876,20.851c-0.281,0.226-0.542,0.478-0.784,0.746
		c-1.065-0.306-2.249-0.641-3.547-1.045c0.817-1.368,1.947-2.522,3.296-3.367C21.249,18.589,21.583,19.806,21.876,20.851z
		 M20.535,29.984c0.397,0.576,0.884,1.086,1.437,1.514c-0.25,0.869-0.523,1.803-0.838,2.803c-1.456-0.843-2.677-2.043-3.549-3.48
		C18.679,30.501,19.656,30.229,20.535,29.984z M31.901,35.404c-0.04-0.131-0.073-0.248-0.11-0.376
		c1.709-1.037,3.115-2.52,4.047-4.295c0.078,0.025,0.152,0.047,0.231,0.073c1.251,0.416,2.463,0.787,3.598,1.036
		c-1.43,3.113-3.896,5.646-6.96,7.163C32.557,37.87,32.28,36.661,31.901,35.404z M36.069,19.685
		c-0.224,0.067-0.425,0.125-0.64,0.189c-1.011-1.622-2.425-2.967-4.112-3.878c0.053-0.161,0.101-0.315,0.155-0.479
		c0.384-1.157,0.73-2.28,0.977-3.339c2.998,1.413,5.448,3.788,6.95,6.734C38.343,19.07,37.224,19.336,36.069,19.685z M20.349,15.517
		c0.074,0.245,0.139,0.469,0.208,0.704c-1.646,0.975-3.016,2.363-3.963,4.026c-0.139-0.045-0.272-0.086-0.413-0.133
		c-1.19-0.395-2.343-0.75-3.429-0.998c1.458-2.969,3.867-5.378,6.836-6.836C19.748,13.309,20.011,14.396,20.349,15.517z
		 M16.181,31.236c0.153-0.047,0.291-0.086,0.44-0.13c1,1.734,2.454,3.174,4.206,4.146c-0.017,0.052-0.032,0.101-0.049,0.152
		c-0.426,1.285-0.807,2.527-1.056,3.688c-3.084-1.475-5.579-3.974-7.048-7.062C13.782,31.878,14.96,31.604,16.181,31.236z
		 M32.627,42.489c0.176-0.741,0.225-1.566,0.176-2.451c3.49-1.628,6.295-4.478,7.851-8.008c0.831,0.129,1.61,0.174,2.318,0.094
		C41.141,36.872,37.372,40.651,32.627,42.489z M42.867,18.897c-0.746-0.142-1.566-0.169-2.446-0.101
		c-1.616-3.356-4.371-6.058-7.77-7.599c0.145-0.824,0.209-1.6,0.161-2.311C37.375,10.713,41.022,14.343,42.867,18.897z
		 M19.542,8.849c-0.126,0.74-0.151,1.546-0.077,2.413c-3.379,1.57-6.109,4.289-7.696,7.658c-0.839-0.141-1.626-0.198-2.344-0.136
		C11.298,14.248,14.968,10.648,19.542,8.849z M9.233,32.002c0.732,0.155,1.546,0.187,2.413,0.132
		c1.579,3.513,4.395,6.345,7.895,7.949c-0.126,0.848-0.159,1.638-0.063,2.354C14.762,40.562,11.027,36.759,9.233,32.002z"/>
</g>
</svg>
