<?xml version="1.0" encoding="utf-8"?>
<!-- Generator: Adobe Illustrator 16.0.0, SVG Export Plug-In . SVG Version: 6.00 Build 0)  -->
<!DOCTYPE svg PUBLIC "-//W3C//DTD SVG 1.1//EN" "http://www.w3.org/Graphics/SVG/1.1/DTD/svg11.dtd">
<svg version="1.1" id="Layer_1" xmlns="http://www.w3.org/2000/svg" xmlns:xlink="http://www.w3.org/1999/xlink" x="0px" y="0px"
	 width="126px" height="126px" viewBox="0 0 126 126" enable-background="new 0 0 126 126" xml:space="preserve">
<g>
	<path d="M103.474,41.585c-0.65-0.302-1.338-0.462-1.982-0.462c-0.932,0-1.707,0.326-2.193,0.914
		c-2.871,3.494-5.498,10.29-7.615,15.752c-0.973,2.524-2.279,5.903-3.162,7.49c-0.482-4.648,1.602-21.41,2.404-27.863l0.014-0.105
		c0.559-4.484,0.646-5.27,0.617-5.619c-0.215-2.498-1.088-4.188-2.592-5.021c-1.521-0.846-3.588-0.664-5.883,0.514
		c-1.152,0.594-1.617,2.872-3.293,13.235l-0.006,0.046c-0.924,5.692-3.045,18.803-4.676,20.896
		c-1.453-3.192-2.523-20.816-2.986-28.445c-0.322-5.344-0.516-8.41-0.721-9.349c-0.438-1.963-2.732-3.769-5.111-4.025
		c-1.98-0.237-3.682,0.664-4.582,2.372c-1.57,1.524-1.432,6.956-0.717,19.847c0.34,6.134,1.041,18.806-0.051,20.147
		c-1.967-0.356-4.824-8.463-8.486-24.102c-1.027-4.379-1.348-5.697-1.717-6.291c-0.666-2.023-3.293-3.729-5.754-3.729
		c-0.211,0-0.416,0.014-0.619,0.038c-1.301,0.165-4.311,1.146-4.068,6.663c1.197,7.708,2.688,13.407,4.129,18.942l0.029,0.11
		c0.863,3.313,1.68,6.446,2.4,9.907c1.697,8.174,0.471,13.088,0.457,13.145c-0.111,0.506-0.289,0.807-0.535,0.9
		c-0.088,0.031-0.199,0.051-0.322,0.051c-0.719,0-1.758-0.551-2.289-0.898c-1.096-2.514-6.574-14.508-12.158-16.51l-0.203-0.075
		l-0.207,0.005c-2.105,0.053-3.695,0.74-4.732,2.04c-1.639,2.056-1.215,4.851-1.104,5.413l0.068,0.203
		c0.041,0.088,4.025,8.773,4.461,12.715c0.379,3.381,3.279,7.217,5.613,10.299l0.096,0.127c0.76,1.008,1.416,1.881,1.926,2.68
		c6.82,8.225,18.006,15.525,18.1,15.584c1.375,1.178,2.111,2.273,2.133,3.178c0.014,0.59-0.314,0.918-0.326,0.93l-0.271,0.248
		l0.023,0.027h-0.109v2h32.512v-0.674l1.666-5.621c5.236-16.738,5.408-31.307,5.4-31.406c0.053-0.533,1.549-5.617,2.754-9.723
		l0.033-0.105c2.398-8.184,5.385-18.365,6.094-22.27C106.234,44.035,105.269,42.416,103.474,41.585z M103.701,45.305
		c-0.689,3.797-3.799,14.396-6.07,22.137c-1.965,6.699-2.775,9.5-2.84,10.252c0,0.141-0.061,14.086-5.311,30.857l-1.469,4.957
		H60.228c0.113-0.34,0.193-0.732,0.191-1.191c-0.008-1.605-1.027-3.287-3.051-5.01c-0.111-0.072-11.209-7.381-17.611-15.088
		c-0.512-0.818-1.293-1.852-2.049-2.848c-2.051-2.713-4.861-6.432-5.166-9.186c-0.457-4.109-4.123-12.25-4.592-13.271
		c-0.057-0.413-0.25-2.232,0.688-3.402c0.568-0.708,1.506-1.104,2.791-1.174c5.006,2.086,10.723,15.361,10.779,15.496l0.121,0.281
		l0.246,0.189c0.342,0.25,2.139,1.502,3.881,1.502c0.4,0,0.775-0.064,1.111-0.193c0.695-0.26,1.598-0.906,1.943-2.492
		c0.059-0.215,1.373-5.396-0.441-14.133c-0.723-3.498-1.559-6.693-2.439-10.078l-0.016-0.051
		c-1.422-5.443-2.895-11.072-4.068-18.594c-0.109-2.519,0.641-4.007,2.105-4.195c1.67-0.234,3.779,1.138,4.012,2.219l0.293,0.836
		c0.311,1.012,0.895,3.521,1.287,5.199c3.318,14.149,6.428,25.863,10.82,25.863c0.357,0,0.883-0.105,1.355-0.608
		c1.807-1.905,1.521-9.562,0.832-21.955c-0.336-6.002-0.76-16.925-0.086-17.997l0.273-0.563c0.414-0.891,1.441-1.291,2.258-1.291
		c0.119,0,0.234,0.008,0.344,0.021c1.395,0.15,2.924,1.251,3.146,2.265c0.174,0.777,0.4,4.518,0.666,8.846l0.008,0.146
		c1.5,24.758,2.494,30.803,5.047,30.803c2.9,0,4.318-5.762,7.115-23.072l0.014-0.073c0.684-4.24,1.717-10.617,2.176-11.554
		c1.5-0.752,2.863-0.936,3.652-0.502c1.004,0.555,1.334,2.045,1.432,3.184c0.002,0.309-0.307,2.793-0.605,5.195
		c-2.711,21.794-3.102,29.271-1.604,30.77c0.398,0.395,0.957,0.566,1.459,0.449c1.531-0.32,2.541-2.621,5.256-9.653
		c2.053-5.304,4.602-11.903,7.246-15.118c0.023-0.025,0.148-0.09,0.424-0.09c0.324,0,0.695,0.09,1.047,0.25
		C103.179,43.947,103.837,44.545,103.701,45.305z"/>
	<g>
		<path d="M45.371,21.596c-5.721,0-10.375,4.655-10.375,10.377c0,5.1,3.703,9.344,8.559,10.205
			c-0.238-0.713-0.371-1.422-0.465-2.154c-3.512-0.997-6.094-4.225-6.094-8.051c0-4.619,3.758-8.377,8.375-8.377
			c4.619,0,8.375,3.758,8.375,8.377c0,2.488-1.102,4.718-2.832,6.252c0.08,0.158,0.158,0.316,0.219,0.487
			c0.182,0.521,0.311,1.049,0.4,1.583c2.551-1.891,4.213-4.91,4.213-8.322C55.746,26.251,51.091,21.596,45.371,21.596z"/>
	</g>
</g>
</svg>
