<?xml version="1.0" encoding="iso-8859-1"?>
<!-- Generator: Adobe Illustrator 16.0.0, SVG Export Plug-In . SVG Version: 6.00 Build 0)  -->
<!DOCTYPE svg PUBLIC "-//W3C//DTD SVG 1.1//EN" "http://www.w3.org/Graphics/SVG/1.1/DTD/svg11.dtd">
<svg version="1.1" id="Layer_1" xmlns="http://www.w3.org/2000/svg" xmlns:xlink="http://www.w3.org/1999/xlink" x="0px" y="0px"
	 width="28.413px" height="32px" viewBox="0 0 28.413 32" style="enable-background:new 0 0 28.413 32;" xml:space="preserve">
<g>
	<path d="M28.292,28.634c-0.231-0.79-4-14.898-4.512-16.818c-0.511-1.919-1.846-2.432-3.35-2.432c-0.519,0-2.519,0-4.902,0V7.611
		C24.646,6.762,27.077,0,27.077,0H0.731c0,0,2.039,7.143,11.789,7.65v1.733c-2.218,0-4.045,0-4.537,0
		c-1.504,0-2.838,0.513-3.35,2.432c-0.512,1.92-4.28,16.028-4.512,16.818c-0.289,0.99-0.199,2.283,1.816,2.283
		c0.222,0,0.726,0,1.439,0V32h21.414v-1.083c0.836,0,1.439,0,1.684,0C28.491,30.917,28.581,29.624,28.292,28.634z M14.207,11.216
		c4.937,0,8.937,3.998,8.937,8.935c0,4.936-4,8.935-8.937,8.935c-4.935,0-8.935-3.999-8.935-8.935
		C5.272,15.214,9.272,11.216,14.207,11.216z"/>
	<path d="M9.077,16.218L8.16,15.565l-0.271,0.38l0.904,0.641C8.877,16.457,8.981,16.342,9.077,16.218z"/>
	<path d="M11.599,14.216l-0.5-1.011l-0.419,0.208l0.51,1.026C11.327,14.366,11.457,14.28,11.599,14.216z"/>
	<path d="M7.718,20.15c0-0.053,0.015-0.1,0.017-0.152H6.597v0.466H7.75C7.746,20.357,7.718,20.258,7.718,20.15z"/>
	<path d="M21.219,16.731l-0.224-0.408l-1.169,0.64c0.075,0.133,0.154,0.269,0.222,0.407L21.219,16.731z"/>
	<path d="M18.505,13.726l-0.4-0.24l-0.648,1.078c0.134,0.079,0.278,0.142,0.408,0.229L18.505,13.726z"/>
	<path d="M14.556,13.697V12.5H14.09v1.173c0.039,0,0.077-0.011,0.116-0.011C14.327,13.662,14.438,13.691,14.556,13.697z"/>
	<path d="M17.968,27.051l-0.623-1.256c-0.135,0.077-0.269,0.16-0.409,0.224l0.612,1.239L17.968,27.051z"/>
	<path d="M20.759,24.517l-1.136-0.806c-0.084,0.131-0.189,0.246-0.283,0.368l1.148,0.817L20.759,24.517z"/>
	<path d="M20.697,20.15c0,0.107-0.026,0.207-0.031,0.313h1.387v-0.466h-1.37C20.682,20.051,20.697,20.098,20.697,20.15z"/>
	<path d="M14.09,26.628v1.329h0.466v-1.354c-0.118,0.006-0.229,0.035-0.35,0.035C14.167,26.639,14.129,26.628,14.09,26.628z"/>
	<path d="M8.485,23.146l-1.059,0.577l0.224,0.408l1.055-0.575C8.625,23.423,8.556,23.285,8.485,23.146z"/>
	<path d="M11.205,25.87c-0.139-0.073-0.278-0.143-0.411-0.224l-0.652,1.085l0.4,0.24L11.205,25.87z"/>
	<path d="M11.471,24.693l0.359,0.203l2.248-3.76c0.092,0.02,0.177,0.055,0.274,0.055c0.79,0,1.429-0.639,1.429-1.427
		c0-0.789-0.639-1.429-1.429-1.429c-0.787,0-1.427,0.64-1.427,1.429c0,0.451,0.222,0.835,0.549,1.099L11.471,24.693z M14.353,19.355
		c0.228,0,0.41,0.184,0.41,0.409s-0.183,0.41-0.41,0.41c-0.226,0-0.407-0.185-0.407-0.41S14.127,19.355,14.353,19.355z"/>
</g>
<g>
</g>
<g>
</g>
<g>
</g>
<g>
</g>
<g>
</g>
<g>
</g>
<g>
</g>
<g>
</g>
<g>
</g>
<g>
</g>
<g>
</g>
<g>
</g>
<g>
</g>
<g>
</g>
<g>
</g>
</svg>
