<?xml version="1.0" encoding="iso-8859-1"?>
<!-- Generator: Adobe Illustrator 17.0.2, SVG Export Plug-In . SVG Version: 6.00 Build 0)  -->
<!DOCTYPE svg PUBLIC "-//W3C//DTD SVG 1.1//EN" "http://www.w3.org/Graphics/SVG/1.1/DTD/svg11.dtd">
<svg version="1.1" id="Capa_1" xmlns="http://www.w3.org/2000/svg" xmlns:xlink="http://www.w3.org/1999/xlink" x="0px" y="0px"
	 width="64px" height="64px" viewBox="0 0 64 64" style="enable-background:new 0 0 64 64;" xml:space="preserve">
<g>
	<path d="M16.328,15.722c-0.361,0.417-0.316,1.049,0.101,1.411c0.189,0.164,0.422,0.244,0.654,0.244c0.28,0,0.559-0.117,0.756-0.345
		c0.155-0.179,3.762-4.417,1.027-7.859c-1.517-1.91-0.396-3.02-0.152-3.227c0.424-0.345,0.493-0.969,0.151-1.398
		c-0.344-0.432-0.973-0.502-1.405-0.159c-1.048,0.835-2.431,3.169-0.16,6.028C19.003,12.559,16.354,15.692,16.328,15.722z"/>
	<path d="M25.078,15.722c-0.361,0.417-0.316,1.049,0.101,1.411c0.189,0.164,0.422,0.244,0.654,0.244c0.28,0,0.559-0.117,0.756-0.345
		c0.155-0.179,3.762-4.417,1.027-7.859c-1.517-1.91-0.396-3.02-0.152-3.227c0.424-0.345,0.493-0.969,0.151-1.398
		c-0.344-0.432-0.973-0.502-1.405-0.159c-1.048,0.835-2.431,3.169-0.16,6.028C27.753,12.559,25.104,15.692,25.078,15.722z"/>
	<path d="M33.828,15.722c-0.361,0.417-0.316,1.049,0.101,1.411c0.189,0.164,0.422,0.244,0.654,0.244c0.28,0,0.559-0.117,0.756-0.345
		c0.155-0.179,3.762-4.417,1.027-7.859c-1.517-1.91-0.396-3.02-0.152-3.227c0.424-0.345,0.493-0.969,0.151-1.398
		c-0.344-0.432-0.973-0.502-1.405-0.159c-1.048,0.835-2.431,3.169-0.16,6.028C36.503,12.559,33.854,15.692,33.828,15.722z"/>
	<path d="M42.578,15.722c-0.361,0.417-0.316,1.049,0.101,1.411c0.189,0.164,0.422,0.244,0.654,0.244c0.28,0,0.559-0.117,0.756-0.345
		c0.155-0.179,3.762-4.417,1.027-7.859c-1.517-1.91-0.396-3.02-0.152-3.227c0.424-0.345,0.493-0.969,0.151-1.398
		c-0.344-0.432-0.973-0.502-1.405-0.159c-1.048,0.835-2.431,3.169-0.16,6.028C45.253,12.559,42.604,15.692,42.578,15.722z"/>
	<path d="M13.967,56.264c1.657,0,3-1.343,3-3V24.053c0-1.657-1.343-3-3-3s-3,1.343-3,3v29.211
		C10.967,54.92,12.31,56.264,13.967,56.264z"/>
	<path d="M17.8,24.01v29.211c0,1.657,1.343,3,3,3s3-1.343,3-3V24.01c0-1.657-1.343-3-3-3S17.8,22.353,17.8,24.01z"/>
	<path d="M27.634,56.178c1.657,0,3-1.343,3-3V23.967c0-1.657-1.343-3-3-3s-3,1.343-3,3v29.211
		C24.634,54.834,25.977,56.178,27.634,56.178z"/>
	<path d="M34.467,56.135c1.657,0,3-1.343,3-3V23.924c0-1.657-1.343-3-3-3c-1.657,0-3,1.343-3,3v29.211
		C31.467,54.792,32.81,56.135,34.467,56.135z"/>
	<path d="M41.301,56.092c1.657,0,3-1.343,3-3V23.881c0-1.657-1.343-3-3-3c-1.657,0-3,1.343-3,3v29.211
		C38.301,54.749,39.644,56.092,41.301,56.092z"/>
	<path d="M45.134,23.838v29.211c0,1.657,1.343,3,3,3c1.657,0,3-1.343,3-3V33.582h0.458c1.357,0,2.458-1.716,2.458-3.833
		c0-2.117-1.101-3.833-2.458-3.833c-0.157,0-0.309,0-0.458,0v-2.078c0-1.657-1.343-3-3-3C46.477,20.838,45.134,22.182,45.134,23.838
		z"/>
</g>
</svg>
