<?xml version="1.0" encoding="utf-8"?>
<!-- Generator: Adobe Illustrator 16.0.4, SVG Export Plug-In . SVG Version: 6.00 Build 0)  -->
<!DOCTYPE svg PUBLIC "-//W3C//DTD SVG 1.1//EN" "http://www.w3.org/Graphics/SVG/1.1/DTD/svg11.dtd">
<svg version="1.1" id="Capa_1" xmlns="http://www.w3.org/2000/svg" xmlns:xlink="http://www.w3.org/1999/xlink" x="0px" y="0px"
	 width="64px" height="64px" viewBox="0 0 64 64" enable-background="new 0 0 64 64" xml:space="preserve">
<g>
	<path d="M56.352,16.35v-6.274c0-2.439-1.985-4.424-4.425-4.424H13.883c-2.439,0-4.424,1.985-4.424,4.424v6.274
		c0,0.97,0.652,1.782,1.538,2.045c-0.934,0.812-1.538,1.994-1.538,3.325v32.338c0,2.438,1.984,4.422,4.424,4.422h38.044
		c2.439,0,4.425-1.984,4.425-4.424V21.72c0-1.332-0.604-2.514-1.538-3.325C55.699,18.132,56.352,17.32,56.352,16.35z M11.459,10.076
		c0-1.337,1.087-2.424,2.424-2.424h38.044c1.337,0,2.425,1.087,2.425,2.424v6.274c0,0.078-0.063,0.142-0.142,0.142H11.6
		c-0.079,0-0.141-0.062-0.141-0.142V10.076z M54.352,54.057c0,1.337-1.088,2.424-2.425,2.424H13.883
		c-1.336,0-2.424-1.087-2.424-2.422V21.72c0-1.337,1.087-2.424,2.424-2.424h38.044c1.337,0,2.425,1.087,2.425,2.424V54.057z"/>
	<path d="M17.353,14.571h9.559c0.905,0,1.642-0.736,1.642-1.642v-1.712c0-0.905-0.737-1.642-1.642-1.642h-9.559
		c-0.904,0-1.641,0.736-1.642,1.642v1.712C15.711,13.834,16.448,14.571,17.353,14.571z M16.711,11.218
		c0-0.354,0.289-0.643,0.642-0.643h9.559c0.354,0,0.642,0.288,0.642,0.642v1.712c0,0.354-0.288,0.642-0.642,0.642h-9.559
		c-0.354,0-0.642-0.288-0.642-0.642V11.218z"/>
	<path d="M39.752,14.57h0.855c0.905,0,1.643-0.736,1.643-1.642v-1.712c0-0.905-0.737-1.642-1.643-1.642h-0.855
		c-0.904,0-1.641,0.736-1.641,1.642v1.712C38.111,13.833,38.848,14.57,39.752,14.57z M39.111,11.216
		c0-0.354,0.287-0.642,0.641-0.642h0.855c0.354,0,0.643,0.288,0.643,0.642v1.712c0,0.354-0.288,0.642-0.643,0.642h-0.855
		c-0.354,0-0.641-0.288-0.641-0.642V11.216z"/>
	<path d="M45.982,14.57h0.855c0.903,0,1.64-0.736,1.643-1.642v-1.712c0-0.905-0.737-1.642-1.643-1.642h-0.855
		c-0.905,0-1.642,0.736-1.642,1.642v1.712C44.341,13.833,45.077,14.57,45.982,14.57z M45.341,11.216
		c0-0.354,0.288-0.642,0.642-0.642h0.855c0.354,0,0.643,0.288,0.643,0.642v1.711c-0.001,0.354-0.289,0.643-0.643,0.643h-0.855
		c-0.354,0-0.642-0.288-0.642-0.642V11.216z"/>
	<path d="M49.468,36.747h-0.047c-0.699-8.617-7.922-15.419-16.716-15.419c-9.255,0-16.785,7.53-16.785,16.785
		c0,9.255,7.53,16.785,16.785,16.785c8.746,0,15.942-6.728,16.709-15.277h0.054c0.632,0,1.142-0.512,1.142-1.143v-0.59
		C50.609,37.258,50.1,36.747,49.468,36.747z M32.705,52.898c-8.152,0-14.785-6.633-14.785-14.785s6.633-14.785,14.785-14.785
		c7.691,0,14.023,5.905,14.716,13.419h-3.03c-0.68-5.849-5.657-10.405-11.686-10.405c-6.491,0-11.771,5.281-11.771,11.771
		c0,6.49,5.28,11.771,11.771,11.771c5.979,0,10.92-4.483,11.664-10.263h3.045C46.656,47.068,40.349,52.898,32.705,52.898z
		 M42.335,39.621h1.023c-0.737,5.226-5.227,9.263-10.653,9.263c-5.939,0-10.771-4.832-10.771-10.771
		c0-5.939,4.832-10.771,10.771-10.771c5.476,0,10,4.11,10.675,9.405h-1.045c-0.631,0-1.142,0.511-1.142,1.142v0.59
		C41.193,39.109,41.704,39.621,42.335,39.621z"/>
	<path d="M26.787,30.363c-2.844,1.946-3.463,4.756-3.488,4.875c-0.057,0.27,0.116,0.535,0.386,0.592
		c0.035,0.008,0.069,0.011,0.104,0.011c0.231,0,0.439-0.161,0.489-0.397c0.005-0.024,0.558-2.533,3.074-4.255
		c0.228-0.156,0.286-0.467,0.13-0.695C27.326,30.266,27.016,30.207,26.787,30.363z"/>
</g>
</svg>
