<?xml version="1.0" encoding="utf-8"?>
<!-- Generator: Adobe Illustrator 16.0.0, SVG Export Plug-In . SVG Version: 6.00 Build 0)  -->
<!DOCTYPE svg PUBLIC "-//W3C//DTD SVG 1.1//EN" "http://www.w3.org/Graphics/SVG/1.1/DTD/svg11.dtd">
<svg version="1.1" id="Layer_4" xmlns="http://www.w3.org/2000/svg" xmlns:xlink="http://www.w3.org/1999/xlink" x="0px" y="0px"
	 width="100px" height="100px" viewBox="0 0 100 100" enable-background="new 0 0 100 100" xml:space="preserve">
<path d="M77.561,44.825c0.488,0.488,0.486,1.278,0,1.766L35.213,88.937c-0.486,0.488-1.275,0.488-1.764,0L11.063,66.551
	c-0.486-0.486-0.486-1.277,0-1.765l42.346-42.347c0.488-0.486,1.279-0.486,1.766,0L77.561,44.825z M88.936,28.929L77.523,40.342
	c-0.488,0.487-1.277,0.487-1.766,0l-16.1-16.101c-0.488-0.486-0.488-1.276,0-1.764l11.414-11.414c0.486-0.487,1.277-0.487,1.764,0
	l16.1,16.101C89.424,27.651,89.424,28.441,88.936,28.929z M67.93,27.329l5.623-5.624c0.488-0.487,0.488-1.276,0-1.765l-1.545-1.544
	c-0.486-0.486-1.275-0.486-1.764,0l-5.623,5.624c-0.488,0.488-0.488,1.278-0.002,1.765l1.545,1.544
	C66.65,27.817,67.441,27.817,67.93,27.329z M81.604,27.991l-1.545-1.544c-0.486-0.487-1.277-0.487-1.764,0l-5.625,5.624
	c-0.486,0.487-0.486,1.277,0,1.765l1.545,1.544c0.486,0.487,1.277,0.487,1.764,0l5.625-5.625
	C82.09,29.269,82.09,28.479,81.604,27.991z"/>
</svg>
