<?xml version="1.0" encoding="iso-8859-1"?>
<!-- Generator: Adobe Illustrator 16.0.0, SVG Export Plug-In . SVG Version: 6.00 Build 0)  -->
<!DOCTYPE svg PUBLIC "-//W3C//DTD SVG 1.1//EN" "http://www.w3.org/Graphics/SVG/1.1/DTD/svg11.dtd">
<svg version="1.1" id="Capa_1" xmlns="http://www.w3.org/2000/svg" xmlns:xlink="http://www.w3.org/1999/xlink" x="0px" y="0px"
	 width="28.953px" height="15.764px" viewBox="0 0 28.953 15.764" style="enable-background:new 0 0 28.953 15.764;"
	 xml:space="preserve">
<path style="fill-rule:evenodd;clip-rule:evenodd;" d="M6.178,5.684v2.391C1.605,8.059,1.83,4.197,1.83,4.197L1.805,0H0v4.124
	C0,10.539,6.178,10.3,6.178,10.3v-0.153v1.806c0,0-0.227,3.812,3.725,3.812c4.682,0,11.061,0,11.061,0V2.296c0,0-6.508,0-11.201,0
	C6.164,2.296,6.178,5.684,6.178,5.684z M17.564,4.655h1.693v8.968h-1.693V4.655z"/>
<path style="fill-rule:evenodd;clip-rule:evenodd;" d="M21.801,13.875h7.152v-2.447h-7.152V13.875z M27.707,11.969
	c0.375,0,0.684,0.306,0.684,0.682c0,0.377-0.309,0.684-0.684,0.684c-0.377,0-0.684-0.307-0.684-0.684
	C27.023,12.275,27.33,11.969,27.707,11.969z"/>
<path style="fill-rule:evenodd;clip-rule:evenodd;" d="M21.801,4.655v2.448h7.152V4.655H21.801z M27.707,6.632
	c-0.377,0-0.684-0.306-0.684-0.683c0-0.376,0.307-0.682,0.684-0.682c0.375,0,0.684,0.306,0.684,0.682
	C28.391,6.326,28.082,6.632,27.707,6.632z"/>
<g>
</g>
<g>
</g>
<g>
</g>
<g>
</g>
<g>
</g>
<g>
</g>
<g>
</g>
<g>
</g>
<g>
</g>
<g>
</g>
<g>
</g>
<g>
</g>
<g>
</g>
<g>
</g>
<g>
</g>
</svg>
