<?xml version="1.0" encoding="iso-8859-1"?>
<!-- Generator: Adobe Illustrator 16.0.0, SVG Export Plug-In . SVG Version: 6.00 Build 0)  -->
<!DOCTYPE svg PUBLIC "-//W3C//DTD SVG 1.1//EN" "http://www.w3.org/Graphics/SVG/1.1/DTD/svg11.dtd">
<svg version="1.1" id="Layer_1" xmlns="http://www.w3.org/2000/svg" xmlns:xlink="http://www.w3.org/1999/xlink" x="0px" y="0px"
	 width="36px" height="36px" viewBox="0 0 36 36" style="enable-background:new 0 0 36 36;" xml:space="preserve">
<g>
	<path style="fill:#010101;" d="M21.074,15.31c0.092,0.075,0.184,0.148,0.276,0.22c0.374,0.284,0.759,0.541,1.153,0.769
		c0.787,0.459,1.605,0.822,2.45,1.117c0.845,0.292,1.714,0.513,2.616,0.639c0.451,0.064,0.91,0.1,1.381,0.108
		c0.236,0.001,0.474-0.001,0.716-0.019c0.241-0.016,0.487-0.041,0.741-0.093c-0.168-0.197-0.346-0.368-0.526-0.53
		c-0.18-0.164-0.364-0.313-0.551-0.457c-0.374-0.285-0.759-0.541-1.153-0.769c-0.785-0.458-1.606-0.822-2.451-1.114
		c-0.845-0.291-1.715-0.511-2.617-0.636c-0.451-0.064-0.91-0.1-1.381-0.108c-0.165-0.001-0.332,0.002-0.501,0.008
		c-0.046-0.875-0.677-1.597-1.509-1.779c0.061-0.155,0.116-0.309,0.168-0.463c0.146-0.447,0.264-0.894,0.35-1.34
		c0.178-0.894,0.253-1.788,0.255-2.681c0.001-0.894-0.075-1.788-0.251-2.681c-0.087-0.447-0.203-0.894-0.35-1.341
		c-0.076-0.223-0.156-0.447-0.252-0.67s-0.197-0.447-0.33-0.67c-0.133,0.223-0.236,0.447-0.33,0.67
		c-0.096,0.223-0.175,0.447-0.251,0.67C18.58,4.606,18.463,5.053,18.376,5.5c-0.176,0.894-0.252,1.787-0.25,2.681
		c0.001,0.893,0.077,1.787,0.255,2.681c0.086,0.447,0.202,0.894,0.349,1.34c0.052,0.154,0.109,0.309,0.168,0.463
		c-0.835,0.182-1.468,0.908-1.51,1.788c-0.004,0-0.009,0-0.014-0.001c-0.242-0.017-0.48-0.02-0.716-0.018
		c-0.47,0.007-0.931,0.043-1.382,0.107c-0.902,0.126-1.771,0.347-2.615,0.639c-0.844,0.294-1.664,0.657-2.449,1.117
		c-0.396,0.229-0.779,0.485-1.153,0.769c-0.187,0.145-0.373,0.293-0.552,0.455c-0.182,0.163-0.358,0.333-0.527,0.529
		c0.255,0.051,0.499,0.075,0.741,0.091c0.241,0.017,0.479,0.02,0.714,0.018c0.472-0.009,0.932-0.044,1.382-0.108
		c0.903-0.125,1.772-0.346,2.617-0.636c0.845-0.292,1.665-0.655,2.452-1.114c0.395-0.228,0.779-0.484,1.152-0.769
		c0.152-0.118,0.302-0.24,0.449-0.369c0.173,0.506,0.551,0.917,1.034,1.135l-1.468,15.789h4.51l-1.527-15.764
		C20.501,16.134,20.874,15.768,21.074,15.31z M19.308,15.287c-0.408,0-0.742-0.333-0.742-0.742c0-0.409,0.334-0.741,0.742-0.741
		c0.409,0,0.741,0.332,0.741,0.741C20.049,14.954,19.717,15.287,19.308,15.287z"/>
	<path style="fill:#010101;" d="M15.55,22.785c-0.21-0.16-0.426-0.304-0.646-0.432c-0.441-0.257-0.902-0.462-1.377-0.625
		c-0.474-0.163-0.962-0.287-1.469-0.356c-0.253-0.036-0.512-0.056-0.775-0.061c-0.092,0-0.187,0.001-0.281,0.005
		c-0.025-0.491-0.379-0.896-0.847-0.999c0.034-0.087,0.065-0.173,0.095-0.26c0.082-0.25,0.147-0.501,0.196-0.752
		c0.046-0.232,0.077-0.465,0.101-0.697c-0.396,0.051-0.807,0.085-1.229,0.096c0.021,0.2,0.047,0.401,0.086,0.601
		c0.049,0.251,0.114,0.502,0.196,0.752c0.028,0.087,0.062,0.173,0.095,0.26c-0.469,0.102-0.824,0.51-0.848,1.003
		c-0.003,0-0.006,0-0.008-0.001c-0.137-0.009-0.27-0.011-0.402-0.01c-0.264,0.004-0.522,0.024-0.775,0.06
		c-0.506,0.07-0.994,0.194-1.468,0.358c-0.474,0.165-0.935,0.369-1.376,0.627c-0.221,0.128-0.438,0.272-0.646,0.432
		c-0.105,0.081-0.209,0.165-0.311,0.255c-0.102,0.091-0.2,0.187-0.295,0.297c0.143,0.029,0.279,0.042,0.416,0.051
		c0.135,0.009,0.27,0.011,0.4,0.01c0.265-0.005,0.523-0.025,0.775-0.061c0.508-0.071,0.996-0.194,1.47-0.357
		c0.474-0.164,0.935-0.368,1.376-0.625c0.222-0.127,0.438-0.272,0.646-0.431c0.086-0.066,0.17-0.135,0.253-0.207
		c0.097,0.284,0.31,0.515,0.581,0.637L8.66,31.219h2.531l-0.857-8.849c0.261-0.107,0.47-0.313,0.582-0.57
		c0.051,0.042,0.104,0.083,0.155,0.124c0.21,0.159,0.426,0.304,0.647,0.432c0.441,0.258,0.901,0.461,1.375,0.627
		c0.475,0.164,0.963,0.288,1.469,0.358c0.254,0.036,0.512,0.056,0.775,0.061c0.133,0,0.266,0,0.402-0.011
		c0.135-0.009,0.273-0.023,0.416-0.052c-0.096-0.11-0.195-0.207-0.296-0.297C15.759,22.949,15.656,22.866,15.55,22.785z
		 M9.925,21.788c-0.23,0-0.417-0.187-0.417-0.417s0.187-0.416,0.417-0.416c0.229,0,0.416,0.187,0.416,0.416
		S10.154,21.788,9.925,21.788z"/>
	<path style="fill:#010101;" d="M10.278,15.643c-0.011-0.034-0.015-0.068-0.026-0.102c-0.043-0.125-0.088-0.25-0.143-0.376
		C10.056,15.04,10,14.914,9.925,14.789C9.85,14.914,9.792,15.04,9.74,15.165c-0.054,0.125-0.099,0.251-0.141,0.376
		c-0.064,0.192-0.107,0.385-0.151,0.577c0.103-0.064,0.202-0.144,0.306-0.204C9.921,15.816,10.104,15.734,10.278,15.643z"/>
	<path style="fill:#010101;" d="M34.113,23.041c-0.101-0.092-0.204-0.175-0.309-0.256c-0.211-0.16-0.426-0.304-0.647-0.432
		c-0.44-0.257-0.901-0.462-1.376-0.625c-0.475-0.163-0.963-0.287-1.469-0.356c-0.254-0.036-0.512-0.056-0.775-0.061
		c-0.093,0-0.188,0.001-0.281,0.005c-0.025-0.491-0.38-0.896-0.848-0.999c0.034-0.087,0.066-0.173,0.095-0.26
		c0.083-0.25,0.147-0.501,0.196-0.752c0.039-0.197,0.063-0.395,0.086-0.592h-0.052c-0.401-0.007-0.79-0.046-1.174-0.092
		c0.022,0.228,0.054,0.456,0.099,0.684c0.049,0.251,0.113,0.502,0.195,0.752c0.029,0.087,0.063,0.173,0.096,0.26
		c-0.47,0.102-0.824,0.51-0.848,1.003c-0.004,0-0.006,0-0.008-0.001c-0.137-0.009-0.27-0.011-0.402-0.01
		c-0.264,0.004-0.523,0.024-0.775,0.06c-0.507,0.07-0.994,0.194-1.469,0.358c-0.473,0.165-0.934,0.369-1.375,0.627
		c-0.222,0.128-0.438,0.272-0.646,0.432c-0.105,0.081-0.21,0.165-0.311,0.255c-0.102,0.091-0.201,0.187-0.295,0.297
		c0.143,0.029,0.279,0.042,0.416,0.051c0.135,0.009,0.269,0.011,0.4,0.01c0.264-0.005,0.523-0.025,0.775-0.061
		c0.507-0.071,0.995-0.194,1.469-0.357c0.475-0.164,0.935-0.368,1.377-0.625c0.221-0.127,0.438-0.272,0.646-0.431
		c0.086-0.066,0.17-0.135,0.252-0.207c0.098,0.284,0.31,0.515,0.581,0.637l-0.824,8.863h2.532l-0.857-8.849
		c0.26-0.107,0.469-0.313,0.582-0.57c0.051,0.042,0.103,0.083,0.154,0.124c0.211,0.159,0.426,0.304,0.647,0.432
		c0.442,0.258,0.901,0.461,1.376,0.627c0.475,0.164,0.962,0.288,1.469,0.358c0.253,0.036,0.511,0.056,0.774,0.061
		c0.133,0,0.267,0,0.402-0.011c0.136-0.009,0.273-0.023,0.416-0.052C34.314,23.228,34.214,23.132,34.113,23.041z M28.178,21.788
		c-0.229,0-0.417-0.187-0.417-0.417s0.188-0.416,0.417-0.416s0.416,0.187,0.416,0.416S28.408,21.788,28.178,21.788z"/>
	<path style="fill:#010101;" d="M28.681,16.219c-0.047-0.226-0.103-0.452-0.176-0.678c-0.043-0.125-0.088-0.25-0.143-0.376
		c-0.053-0.125-0.11-0.251-0.185-0.376c-0.075,0.125-0.133,0.251-0.186,0.376c-0.054,0.125-0.099,0.251-0.141,0.376
		c-0.018,0.053-0.026,0.106-0.042,0.159c0.135,0.073,0.281,0.136,0.411,0.212C28.378,16.003,28.527,16.119,28.681,16.219z"/>
</g>
</svg>
