<?xml version="1.0" encoding="UTF-8" standalone="no"?>
<!-- Created with Inkscape (http://www.inkscape.org/) -->

<svg
   xmlns:dc="http://purl.org/dc/elements/1.1/"
   xmlns:cc="http://creativecommons.org/ns#"
   xmlns:rdf="http://www.w3.org/1999/02/22-rdf-syntax-ns#"
   xmlns:svg="http://www.w3.org/2000/svg"
   xmlns="http://www.w3.org/2000/svg"
   xmlns:sodipodi="http://sodipodi.sourceforge.net/DTD/sodipodi-0.dtd"
   xmlns:inkscape="http://www.inkscape.org/namespaces/inkscape"
   width="554.61212"
   height="293.2644"
   id="svg2910"
   version="1.1"
   inkscape:version="0.47 r22583"
   sodipodi:docname="logo-jeedom-grand-nom-couleur.svg">
  <defs
     id="defs2912">
    <inkscape:perspective
       sodipodi:type="inkscape:persp3d"
       inkscape:vp_x="0 : 526.18109 : 1"
       inkscape:vp_y="0 : 1000 : 0"
       inkscape:vp_z="744.09448 : 526.18109 : 1"
       inkscape:persp3d-origin="372.04724 : 350.78739 : 1"
       id="perspective2917" />
    <inkscape:perspective
       id="perspective2987"
       inkscape:persp3d-origin="0.5 : 0.33333333 : 1"
       inkscape:vp_z="1 : 0.5 : 1"
       inkscape:vp_y="0 : 1000 : 0"
       inkscape:vp_x="0 : 0.5 : 1"
       sodipodi:type="inkscape:persp3d" />
  </defs>
  <sodipodi:namedview
     id="base"
     pagecolor="#ffffff"
     bordercolor="#666666"
     borderopacity="1.0"
     inkscape:pageopacity="0.0"
     inkscape:pageshadow="2"
     inkscape:zoom="2.752381"
     inkscape:cx="260.82353"
     inkscape:cy="148.2059"
     inkscape:document-units="px"
     showgrid="false"
     inkscape:window-width="2095"
     inkscape:window-height="1115"
     inkscape:window-x="20"
     inkscape:window-y="20"
     inkscape:window-maximized="0"
     inkscape:current-layer="svg2910" />
  <metadata
     id="metadata2915">
    <rdf:RDF>
      <cc:Work
         rdf:about="">
        <dc:format>image/svg+xml</dc:format>
        <dc:type
           rdf:resource="http://purl.org/dc/dcmitype/StillImage" />
        <dc:title />
      </cc:Work>
    </rdf:RDF>
  </metadata>
  <path
     style="fill:#000000"
     d="M 12.654988,289.72976 C 11.294053,288.22594 11,285.59633 11,274.92976 c 0,-8.75542 0.390016,-13.36128 1.2,-14.17126 0.671038,-0.67104 3.888889,-1.2 7.3,-1.2 3.411111,0 6.628962,0.52896 7.3,1.2 0.66,0.66 1.2,3.81 1.2,7 l 0,5.8 18.5,0 18.499999,0 0,-12.5 0,-12.5 9,0 9,0 0,19.32569 c 0,18.90794 -0.05,19.37268 -2.31445,21.5 -2.27685,2.13899 -2.83479,2.17431 -34.345013,2.17431 -29.760695,0 -32.147843,-0.12959 -33.685548,-1.82874 z M 41.145057,242.11836 36,236.67822 l 0,-46.55986 0,-46.55986 7.25,-0.0285 7.25,-0.0285 14.787019,-19.47147 14.78702,-19.47153 26.801061,0 26.80107,0 22.13663,28.25 22.13664,28.25 0.0253,38.96215 0.0253,38.96215 -4.20821,4.28785 -4.20821,4.28785 -43.29179,0 -43.291791,0 0,-36.5 0,-36.5 -9.5,0 -9.5,0 0,36.5 0,36.5 -8.854942,0 -8.854943,0 -5.145057,-5.44014 z m 41.854942,-87.05986 0,-8.5 -9.5,0 -9.5,0 0,8.5 0,8.5 9.5,0 9.5,0 0,-8.5 z M 156.5,127.4588 C 131.2,94.9861 109.77425,67.48453 108.88721,66.344195 108.00018,65.20386 106.83586,64.54191 106.29983,64.873193 105.7638,65.204477 92.356279,82.144196 76.505339,102.51701 l -28.819898,37.04149 -23.842721,0 C 10.729224,139.5585 0,139.3159 0,139.01938 0,138.2961 105.87795,0.75196485 106.93996,0.09560685 c 0.45819,-0.283176 3.97551,3.64263105 7.81626,8.72401405 3.84076,5.0813831 10.78239,14.1888791 15.42584,20.2388791 17.19812,22.407576 84.49086,110.35267 92.2027,120.5 17.2724,22.72722 21.08865,27.67541 24.87252,32.25 l 3.92896,4.75 -24.34312,-0.0292 -24.34312,-0.0292 -46,-59.04127 z M 191.25,102.53735 171,76.286974 l 0,-17.364237 0,-17.364237 20.48244,0 20.48244,0 4.65487,-4.460148 c 4.29536,-4.115675 4.60871,-4.74462 4.05716,-8.143396 C 219.99259,24.737975 217.04476,21.18853 212,18.507182 c -1.925,-1.02316 -2.91957,-1.880178 -2.21016,-1.904486 2.09113,-0.07165 8.52677,3.564619 10.99976,6.21509 1.25928,1.349657 2.54433,4.023636 2.85567,5.942175 0.47745,2.942206 0.0567,4.06842 -2.68805,7.194479 -1.78976,2.038424 -4.53253,4.367326 -6.09506,5.175338 l -2.84095,1.469112 -0.2606,43.094421 L 211.5,128.78773 191.25,102.53735 z m 15.54776,-92.05428 c 0.29313,-1.9972121 0.79312,-2.7336851 1.42615,-2.1006631 1.04238,1.042387 0.14945,5.1760931 -1.1181,5.1760931 -0.41769,0 -0.5563,-1.383943 -0.30805,-3.07543 z"
     id="path2993" />
  <path
     style="fill:#94ca02;fill-opacity:1"
     d="m 196.13905,177.99362 c -3.55311,-4.54606 -23.70885,-30.41912 -44.79053,-57.49567 -21.08169,-27.07656 -39.289,-50.456319 -40.4607,-51.955021 -1.89015,-2.417656 -3.59368,-3.988968 -4.33076,-3.994629 -0.53593,-0.0041 -22.478231,27.75832 -48.617614,61.51332 L 47.584775,139.43308 24.271549,139.32105 C 11.449275,139.25945 0.849562,139.10022 0.716631,138.96725 0.434252,138.68478 7.841482,128.85113 35.017369,93.43047 80.535529,34.102751 106.40612,0.84376285 107.17116,0.67021485 c 0.77714,-0.176292 4.72564,4.80355105 29.76166,37.53534415 12.83893,16.785467 41.78987,54.634511 64.33541,84.109001 22.54555,29.47448 42.70464,55.71539 44.79797,58.31314 2.09334,2.59776 3.96732,4.92756 4.16442,5.17734 0.28592,0.36236 -4.49171,0.45415 -23.63651,0.45415 l -23.99486,0 -6.4602,-8.26557 0,0 z"
     id="path2997" />
  <path
     style="fill:#454449;fill-opacity:1"
     d="m 41.276635,241.93826 -5.112822,-5.359 -0.01184,-46.41436 -0.01184,-46.41436 7.212575,0 7.212576,0 14.697375,-19.34688 14.69738,-19.34689 26.866001,-0.0891 26.86599,-0.0891 22.0718,28.17834 22.0718,28.17833 0,38.70791 0,38.70791 -4.04589,4.32312 -4.04588,4.32312 -43.36761,0 -43.367611,0 0,-36.51384 0,-36.51384 -9.62803,0 -9.62802,0 0,36.51384 0,36.51384 -8.681568,0 -8.681569,0 -5.112822,-5.35899 z m 41.732014,-86.92474 0,-8.71973 -9.62803,0 -9.62802,0 0,8.71973 0,8.71972 9.62802,0 9.62803,0 0,-8.71972 z"
     id="path2999" />
  <path
     style="fill:#454449;fill-opacity:1"
     d="m 16.534809,290.87144 c -3.009529,-0.39956 -4.064512,-1.18498 -4.6508,-3.46246 -1.07134,-4.16171 -0.86717,-23.80448 0.269504,-25.92837 0.602139,-1.12511 2.795021,-1.6109 7.273822,-1.61139 5.309984,-5.8e-4 7.039031,0.46428 7.649797,2.05663 0.249402,0.65022 0.525862,3.57161 0.618418,6.5349 l 0.167386,5.359 18.671473,0 18.67147,0 0,-12.53461 0,-12.5346 8.71973,0 8.71972,0 -0.009,17.8936 c -0.005,10.96042 -0.15409,18.52709 -0.38364,19.52855 -0.44529,1.94267 -2.11551,3.81873 -3.95122,4.43817 -1.5511,0.5234 -57.993661,0.76152 -61.766778,0.26058 l 1.8e-5,0 z"
     id="path3001" />
  <path
     style="fill:#454449;fill-opacity:1"
     d="m 191.19072,102.13827 -19.88887,-25.783922 -0.003,-17.348616 -0.003,-17.348616 20.37364,0 20.37364,0 3.44735,-3.179066 c 1.89605,-1.748486 3.94199,-3.914792 4.54653,-4.814014 1.00753,-1.498632 1.08125,-1.8141 0.88423,-3.783668 -0.25667,-2.565793 -1.46428,-5.354149 -3.15694,-7.289354 -0.67919,-0.776511 -2.70634,-2.361199 -4.50478,-3.52153 -3.37701,-2.178799 -3.54108,-2.748209 -0.36333,-1.260925 7.96165,3.726283 12.0786,9.644694 10.17549,14.627944 -0.81996,2.147032 -5.68753,6.986589 -8.75628,8.705898 l -2.21402,1.24043 -0.2384,5.508057 c -0.13113,3.029431 -0.26114,17.539805 -0.28892,32.245273 -0.0278,14.705469 -0.1504,31.473209 -0.27249,37.261629 l -0.22198,10.52441 -19.88887,-25.78393 z"
     id="path3003" />
  <path
     style="fill:#454449;fill-opacity:1"
     d="m 216.05319,38.148693 c 4.64676,-4.535511 5.17591,-5.431969 4.91363,-8.324447 -0.10602,-1.169207 -0.39123,-2.364966 -0.63379,-2.657241 -0.24257,-0.292275 -0.33595,-0.53141 -0.2075,-0.53141 0.12844,0 -0.11388,-0.694853 -0.53849,-1.544118 -0.87313,-1.74634 -3.56574,-4.698023 -4.02612,-4.413495 -0.16672,0.103042 -0.30313,0.03593 -0.30313,-0.149135 0,-0.185066 -0.66898,-0.779194 -1.48663,-1.320285 -2.39772,-1.586737 -1.30796,-1.52482 1.3918,0.07908 6.40699,3.806326 9.44701,9.278891 7.46943,13.446316 -0.7982,1.682084 -5.16986,6.049731 -7.80587,7.798697 -1.12941,0.749351 -2.17906,1.362457 -2.33256,1.362457 -0.1535,0 1.44815,-1.685888 3.55923,-3.746418 z"
     id="path3005" />
  <path
     style="fill:#454449;fill-opacity:1"
     d="m 206.90138,11.763054 c 0,-1.73379 0.59039,-3.4206451 1.08929,-3.1123081 0.79573,0.491787 0.15639,4.5419431 -0.71697,4.5419431 -0.20477,0 -0.37232,-0.643336 -0.37232,-1.429635 z"
     id="path3007" />
  <text
     xml:space="preserve"
     style="font-size:112.56365967px;font-style:normal;font-variant:normal;font-weight:normal;font-stretch:normal;fill:#94ca02;fill-opacity:1;stroke:none;font-family:Arial Black;-inkscape-font-specification:'Arial Black,'"
     x="209.5343"
     y="248.00797"
     id="text2819"
     transform="scale(0.85036588,1.1759644)"><tspan
       sodipodi:role="line"
       id="tspan2821"
       x="209.5343"
       y="248.00797">EEDOM</tspan></text>
  <path
     style="fill:#94ca02;fill-opacity:1;stroke:none"
     d="M 107.21335,0 C 102.30895,5.0338325 98.214367,10.931676 93.767908,16.409492 62.722271,56.457522 31.723044,96.552048 1.1848608,136.98707 c -0.60411434,0.60938 -1.85582008,2.11876 -0.33396904,2.43767 15.59568624,0.52686 31.20857624,0.43186 46.81174224,0.64717 18.830602,-23.85057 37.126372,-48.223692 56.398216,-71.765785 0.98353,-0.849457 1.81783,-2.679342 2.95948,-3.055801 3.6439,3.211666 6.12947,7.567197 9.31061,11.226825 28.70985,36.704431 57.28153,73.516651 85.91376,110.281611 16.31648,0.21917 32.72091,0.0453 49.07115,0.11353 -0.0186,-1.59157 -2.53507,-3.29738 -3.46992,-4.92266 C 219.69404,145.7513 191.97272,109.20563 164.05645,72.819879 146.49053,50.015187 129.23663,26.950082 111.46394,4.3208444 110.08369,2.9695565 109.00725,0.7637193 107.21335,0 z"
     id="path2883" />
</svg>
