<?xml version="1.0" encoding="UTF-8" standalone="no"?>
<!-- Created with Inkscape (http://www.inkscape.org/) -->

<svg
   xmlns:dc="http://purl.org/dc/elements/1.1/"
   xmlns:cc="http://creativecommons.org/ns#"
   xmlns:rdf="http://www.w3.org/1999/02/22-rdf-syntax-ns#"
   xmlns:svg="http://www.w3.org/2000/svg"
   xmlns="http://www.w3.org/2000/svg"
   xmlns:sodipodi="http://sodipodi.sourceforge.net/DTD/sodipodi-0.dtd"
   xmlns:inkscape="http://www.inkscape.org/namespaces/inkscape"
   width="251.61971"
   height="291.87976"
   id="svg2910"
   version="1.1"
   inkscape:version="0.47 r22583"
   sodipodi:docname="logo-jeedom-sans-nom-couleur.svg">
  <defs
     id="defs2912">
    <inkscape:perspective
       sodipodi:type="inkscape:persp3d"
       inkscape:vp_x="0 : 526.18109 : 1"
       inkscape:vp_y="0 : 1000 : 0"
       inkscape:vp_z="744.09448 : 526.18109 : 1"
       inkscape:persp3d-origin="372.04724 : 350.78739 : 1"
       id="perspective2917" />
    <inkscape:perspective
       id="perspective2987"
       inkscape:persp3d-origin="0.5 : 0.33333333 : 1"
       inkscape:vp_z="1 : 0.5 : 1"
       inkscape:vp_y="0 : 1000 : 0"
       inkscape:vp_x="0 : 0.5 : 1"
       sodipodi:type="inkscape:persp3d" />
  </defs>
  <sodipodi:namedview
     id="base"
     pagecolor="#ffffff"
     bordercolor="#666666"
     borderopacity="1.0"
     inkscape:pageopacity="0.0"
     inkscape:pageshadow="2"
     inkscape:zoom="2.752381"
     inkscape:cx="118.34192"
     inkscape:cy="138.34046"
     inkscape:document-units="px"
     showgrid="false"
     inkscape:window-width="2095"
     inkscape:window-height="1115"
     inkscape:window-x="20"
     inkscape:window-y="20"
     inkscape:window-maximized="0"
     inkscape:current-layer="svg2910" />
  <metadata
     id="metadata2915">
    <rdf:RDF>
      <cc:Work
         rdf:about="">
        <dc:format>image/svg+xml</dc:format>
        <dc:type
           rdf:resource="http://purl.org/dc/dcmitype/StillImage" />
        <dc:title />
      </cc:Work>
    </rdf:RDF>
  </metadata>
  <path
     style="fill:#000000"
     d="m 12.673377,289.91244 c -1.360935,-1.50382 -1.654988,-4.13343 -1.654988,-14.8 0,-8.75542 0.390016,-13.36128 1.2,-14.17126 0.671038,-0.67104 3.888889,-1.2 7.3,-1.2 3.411111,0 6.628962,0.52896 7.3,1.2 0.66,0.66 1.2,3.81 1.2,7 l 0,5.8 18.5,0 18.499999,0 0,-12.5 0,-12.5 9,0 9,0 0,19.32569 c 0,18.90794 -0.05,19.37268 -2.31445,21.5 -2.27685,2.13899 -2.83479,2.17431 -34.345013,2.17431 -29.760695,0 -32.147843,-0.12959 -33.685548,-1.82874 z m 28.490069,-47.6114 -5.145057,-5.44014 0,-46.55986 0,-46.55987 7.25,-0.0285 7.25,-0.0285 14.787019,-19.47147 14.78702,-19.47153 26.801062,0 26.80107,0 22.13663,28.25 22.13664,28.25001 0.0253,38.96215 0.0253,38.96215 -4.20821,4.28785 -4.20821,4.28785 -43.29179,0 -43.291792,0 0,-36.5 0,-36.5 -9.5,0 -9.5,0 0,36.5 0,36.5 -8.854942,0 -8.854943,0 -5.145057,-5.44014 z m 41.854942,-87.05986 0,-8.50001 -9.5,0 -9.5,0 0,8.50001 0,8.5 9.5,0 9.5,0 0,-8.5 z m 73.500002,-27.59971 c -25.3,-32.472695 -46.72575,-59.974265 -47.61279,-61.114605 -0.88703,-1.14033 -2.05135,-1.80228 -2.58738,-1.471 -0.53603,0.33129 -13.943552,17.271 -29.794492,37.643815 l -28.819898,37.04149 -23.842721,0 c -13.113496,0 -23.84271967,-0.2426 -23.84271967,-0.53912 0,-0.72328 105.87795067,-138.26741543 106.93996067,-138.92376543 0.45819,-0.28318 3.97551,3.64263003 7.81627,8.72401003 3.84076,5.0813804 10.78239,14.1888804 15.42584,20.2388804 17.19811,22.40757 84.49085,110.352665 92.20269,120.500005 17.2724,22.72722 21.08865,27.67541 24.87252,32.25 l 3.92896,4.75 -24.34312,-0.0292 -24.34312,-0.0292 -46,-59.04128 z m 34.75,-24.92145 -20.25,-26.250375 0,-17.36423 0,-17.36424 20.48244,0 20.48244,0 4.65487,-4.46015 c 4.29536,-4.11567 4.60871,-4.74462 4.05716,-8.1434 -0.68432,-4.21698 -3.63215,-7.76642 -8.67691,-10.44777 -1.925,-1.02316 -2.91957,-1.88018 -2.21016,-1.90449 2.09113,-0.0717 8.52677,3.56462 10.99976,6.21509 1.25928,1.34966 2.54433,4.02364 2.85568,5.94218 0.47745,2.94221 0.0567,4.06842 -2.68806,7.19448 -1.78976,2.03842 -4.53253,4.36732 -6.09505,5.17534 l -2.84095,1.46911 -0.2606,43.09442 -0.26062,43.094415 -20.25,-26.25038 z m 15.54777,-92.054275 c 0.29312,-1.9972104 0.79311,-2.7336904 1.42615,-2.1006604 1.04238,1.04238 0.14945,5.1760904 -1.1181,5.1760904 -0.41769,0 -0.5563,-1.38394 -0.30805,-3.07543 z"
     id="path2993" />
  <path
     style="fill:#94ca02;fill-opacity:1"
     d="m 196.15744,178.1763 c -3.55311,-4.54606 -23.70885,-30.41913 -44.79053,-57.49568 -21.08168,-27.076555 -39.28899,-50.456315 -40.4607,-51.955015 -1.89015,-2.41766 -3.59368,-3.98897 -4.33076,-3.99463 -0.53593,-0.004 -22.478232,27.75832 -48.617615,61.513315 L 47.603164,139.61575 24.289938,139.50372 C 11.467664,139.44212 0.86795133,139.28289 0.73502033,139.14992 0.45264133,138.86745 7.8598716,129.0338 35.035758,93.613145 80.553918,34.285425 106.42451,1.0264346 107.18955,0.85288457 c 0.77714,-0.17629 4.72564,4.80355003 29.76166,37.53535043 12.83893,16.78546 41.78987,54.63451 64.33541,84.108995 22.54555,29.47449 42.70464,55.7154 44.79797,58.31315 2.09334,2.59776 3.96732,4.92756 4.16442,5.17734 0.28592,0.36236 -4.49171,0.45415 -23.63651,0.45415 l -23.99485,0 -6.46021,-8.26557 0,0 z"
     id="path2997" />
  <path
     style="fill:#454449;fill-opacity:1"
     d="m 41.295024,242.12094 -5.112822,-5.359 -0.01184,-46.41436 -0.01184,-46.41437 7.212575,0 7.212576,0 14.697375,-19.34688 14.69738,-19.34689 26.866002,-0.0891 26.86599,-0.0891 22.0718,28.17834 22.0718,28.17834 0,38.70791 0,38.70791 -4.04589,4.32312 -4.04588,4.32312 -43.36761,0 -43.367612,0 0,-36.51384 0,-36.51384 -9.62803,0 -9.62802,0 0,36.51384 0,36.51384 -8.681568,0 -8.681569,0 -5.112822,-5.35899 z m 41.732014,-86.92474 0,-8.71974 -9.62803,0 -9.62802,0 0,8.71974 0,8.71972 9.62802,0 9.62803,0 0,-8.71972 z"
     id="path2999" />
  <path
     style="fill:#454449;fill-opacity:1"
     d="m 16.553198,291.05412 c -3.009529,-0.39956 -4.064512,-1.18498 -4.6508,-3.46246 -1.07134,-4.16171 -0.86717,-23.80448 0.269504,-25.92837 0.602139,-1.12511 2.795021,-1.6109 7.273822,-1.61139 5.309984,-5.8e-4 7.039031,0.46428 7.649797,2.05663 0.249402,0.65022 0.525862,3.57161 0.618418,6.5349 l 0.167386,5.359 18.671473,0 18.67147,0 0,-12.53461 0,-12.5346 8.71973,0 8.71972,0 -0.009,17.8936 c -0.005,10.96042 -0.15409,18.52709 -0.38364,19.52855 -0.44529,1.94267 -2.11551,3.81873 -3.95122,4.43817 -1.5511,0.5234 -57.993661,0.76152 -61.766778,0.26058 l 1.8e-5,0 z"
     id="path3001" />
  <path
     style="fill:#454449;fill-opacity:1"
     d="m 191.20911,102.32094 -19.88887,-25.783915 -0.003,-17.34862 -0.003,-17.34862 20.37364,0 20.37364,0 3.44735,-3.17906 c 1.89605,-1.74849 3.94199,-3.91479 4.54652,-4.81402 1.00754,-1.49863 1.08126,-1.8141 0.88424,-3.78366 -0.25668,-2.5658 -1.46429,-5.35415 -3.15694,-7.28936 -0.67919,-0.77651 -2.70635,-2.3612 -4.50479,-3.52153 -3.37701,-2.1788 -3.54107,-2.74821 -0.36332,-1.26092 7.96164,3.72628 12.0786,9.64469 10.17549,14.62794 -0.81997,2.14703 -5.68754,6.98659 -8.75628,8.7059 l -2.21403,1.24043 -0.2384,5.50806 c -0.13113,3.02943 -0.26114,17.5398 -0.28892,32.24527 -0.0278,14.70547 -0.15039,31.473205 -0.27249,37.261625 l -0.22198,10.52441 -19.88887,-25.78393 z"
     id="path3003" />
  <path
     style="fill:#454449;fill-opacity:1"
     d="m 216.07158,38.331365 c 4.64676,-4.53551 5.17591,-5.43197 4.91364,-8.32445 -0.10602,-1.1692 -0.39124,-2.36496 -0.6338,-2.65724 -0.24257,-0.29227 -0.33594,-0.53141 -0.2075,-0.53141 0.12844,0 -0.11388,-0.69485 -0.53849,-1.54411 -0.87313,-1.74634 -3.56574,-4.69803 -4.02612,-4.4135 -0.16671,0.10304 -0.30313,0.0359 -0.30313,-0.14913 0,-0.18507 -0.66898,-0.7792 -1.48663,-1.32029 -2.39771,-1.58674 -1.30796,-1.52482 1.3918,0.0791 6.40699,3.80633 9.44701,9.27889 7.46943,13.44632 -0.7982,1.68208 -5.16986,6.04973 -7.80587,7.79869 -1.12941,0.74935 -2.17906,1.36246 -2.33256,1.36246 -0.1535,0 1.44815,-1.68589 3.55923,-3.74642 z"
     id="path3005" />
  <path
     style="fill:#454449;fill-opacity:1"
     d="m 206.91977,11.945725 c 0,-1.73379 0.59039,-3.4206404 1.08929,-3.1123104 0.79573,0.49179 0.15639,4.5419504 -0.71697,4.5419504 -0.20477,0 -0.37232,-0.64334 -0.37232,-1.42964 z"
     id="path3007" />
  <path
     style="fill:#94ca02;fill-opacity:1;stroke:none"
     d="M 106.7565,5.7456682e-4 C 102.28526,4.9606946 98.371438,10.565185 94.155898,15.803655 c -31.2962,40.47474 -62.60401,80.96687 -93.42124367,121.793695 -0.789808,0.53454 -1.205644,1.99752 0.136246,2.00962 10.94289967,0.95079 21.97145067,0.43246 32.94874567,0.5904 4.722594,-0.10153 9.537411,0.20105 14.203611,-0.1476 19.189481,-24.50257 38.082391,-49.323945 57.700043,-73.436415 0.61861,-1.23911 1.50729,-1.38298 2.27076,-0.17031 22.39905,28.12518 44.32103,56.636325 66.45874,84.970675 9.2063,11.82729 18.4126,23.65458 27.6189,35.48186 11.09734,0.34868 22.34017,0.0605 33.49373,0.163 5.33968,-0.0983 10.77093,0.20508 16.05428,-0.14029 -0.8411,-2.09536 -3.07584,-3.73352 -4.37934,-5.71485 -31.61326,-40.73449 -62.7275,-81.868245 -94.10954,-122.786365 -14.36536,-18.60912 -28.36594,-37.53926 -43.12666,-55.8185504 -0.98676,-0.8412 -1.80186,-2.63531003 -3.24767,-2.59795003318 z"
     id="path2819" />
  <path
     style="fill:#000000;fill-opacity:1;stroke:none"
     d="M 107.0517,0.15845457 C 104.42929,1.7987846 102.92398,4.8619446 100.84229,7.1273046 67.453536,50.176615 34.206427,93.333485 1.2533769,136.72219 c -0.65847357,0.60456 -2.10287457,2.54847 -0.38247557,2.77016 13.41640167,1.04406 26.91147367,0.98323 40.36278067,0.79477 2.339396,-0.11853 4.715277,-0.1402 7.028006,-0.39739 19.173272,-24.56857 38.118276,-49.309435 57.771992,-73.468735 1.02662,-1.75077 2.33133,0.99253 3.02867,1.66622 31.22758,39.308035 61.91441,79.121115 92.79363,118.739165 16.40621,0.38171 32.8854,0.35491 49.30958,-0.0341 0.61159,-1.04874 -1.39167,-2.17915 -1.74849,-3.09959 C 204.98435,126.43504 161.25243,68.622455 116.97239,11.247875 113.89157,7.5960746 111.26121,3.4286046 107.65345,0.26063457 c -0.19079,-0.0808 -0.39574,-0.13974 -0.60175,-0.10218 z"
     id="path2820" />
  <path
     style="fill:#000000;fill-opacity:1;stroke:none"
     d="m 211.49536,17.257285 c -1.19949,0.50119 0.82081,1.66756 1.27162,2.00962 4.47289,2.57252 8.39439,7.18517 7.83413,12.62543 -1.5184,3.57649 -5.12938,5.89009 -7.61765,8.85989 -1.47262,1.74501 -4.23315,0.42806 -6.26806,0.83626 -11.80037,0 -23.60077,0 -35.40116,0 -0.45042,5.72136 -0.0643,11.78921 -0.19301,17.64382 0.023,5.857 -0.0458,11.72631 0.0341,17.57569 13.02591,16.77938 25.83986,33.772395 39.02305,50.399535 0.7954,1.21045 1.33785,-0.24053 1.14672,-1.07861 0.93972,-24.17349 0.23196,-48.378225 0.79984,-72.561725 0.0627,-3.60687 0.1253,-7.21375 0.18795,-10.82062 4.36657,-2.16202 8.29095,-5.52659 10.87695,-9.66209 2.18743,-5.22114 -1.9648,-10.66448 -6.34676,-13.19516 -1.66542,-0.91439 -3.42048,-2.36029 -5.34767,-2.63204 z"
     id="path2822" />
  <path
     style="fill:#000000;fill-opacity:1;stroke:none"
     d="m 207.7486,8.3218346 c -1.21855,1.23341 -1.29909,3.5841904 -0.69258,5.1432804 1.2528,0.50005 1.50255,-1.90606 1.48735,-2.70221 -0.092,-0.67159 0.27937,-2.4483904 -0.79477,-2.4410704 z"
     id="path2824" />
  <path
     style="fill:#000000;fill-opacity:1;stroke:none"
     d="m 106.85868,104.82918 c -9.019921,0.0572 -18.090209,-0.0988 -27.078827,0.0908 -9.792469,12.91934 -19.583246,25.83996 -29.372296,38.7619 -4.786347,0.13113 -9.788601,-0.25899 -14.442041,0.19301 0.03787,31.04888 -0.07572,62.12804 0.05677,93.15799 3.503913,3.62499 6.907276,7.39242 10.456855,10.94507 5.763949,0 11.527898,0 17.291847,0 0.450413,-5.71757 0.06431,-11.78164 0.193014,-17.63246 0,-18.46508 0,-36.93015 0,-55.39522 6.290009,0 12.580017,0 18.870026,0 0,24.27822 0,48.55644 0,72.83466 5.71757,0.45042 11.781636,0.0643 17.632462,0.19302 22.99524,-0.0379 46.02076,0.0757 68.99708,-0.0568 2.85071,-2.90016 5.82361,-5.72086 8.58347,-8.68566 -0.0228,-26.02897 0.0454,-52.07011 -0.0341,-78.09148 -14.7624,-18.75932 -29.38897,-37.69725 -44.24577,-56.3376 -8.96951,0.008 -17.93901,0.0151 -26.90853,0.0227 z m -33.459666,42.14533 c 3.145004,0 6.290009,0 9.435013,0 0,5.56337 0,11.12674 0,16.6901 -6.290009,0 -12.580017,0 -18.870026,0 0,-5.56336 0,-11.12673 0,-16.6901 3.145005,0 6.290009,0 9.435013,0 z"
     id="path2826" />
  <path
     style="fill:#000000;fill-opacity:1;stroke:none"
     d="m 65.031259,248.87493 c 0,8.29206 0,16.58412 0,24.87619 -12.345373,0 -24.690743,0 -37.036115,0 -0.29919,-4.1272 0.570176,-8.64708 -1.033196,-12.52325 -2.293422,-1.93613 -5.737006,-1.14552 -8.515239,-1.39868 -2.084223,0.27521 -5.057823,-0.3855 -6.449078,1.55763 -1.367716,5.16834 -0.813247,10.67721 -1.033196,15.98616 0.219369,4.01951 -0.291993,8.40937 1.407872,12.13722 2.120077,2.5079 6.016861,1.62405 8.924091,2.02098 18.175394,0.36162 36.378609,0.63505 54.543685,-0.20437 3.249531,0.0727 6.760815,-2.12593 6.710099,-5.68826 0.969212,-12.22358 0.539155,-24.5118 0.669874,-36.76362 -5.838911,-0.44985 -12.024102,-0.0637 -17.995782,-0.19302 l -0.193015,0.19302 z"
     id="path2828" />
</svg>
