<?xml version="1.0" encoding="UTF-8" standalone="no"?>
<!-- Created with Inkscape (http://www.inkscape.org/) -->

<svg
   xmlns:dc="http://purl.org/dc/elements/1.1/"
   xmlns:cc="http://creativecommons.org/ns#"
   xmlns:rdf="http://www.w3.org/1999/02/22-rdf-syntax-ns#"
   xmlns:svg="http://www.w3.org/2000/svg"
   xmlns="http://www.w3.org/2000/svg"
   xmlns:sodipodi="http://sodipodi.sourceforge.net/DTD/sodipodi-0.dtd"
   xmlns:inkscape="http://www.inkscape.org/namespaces/inkscape"
   width="251.42455"
   height="291.69675"
   id="svg2910"
   version="1.1"
   inkscape:version="0.47 r22583"
   sodipodi:docname="logo-jeedom-petit-nom-couleur.svg">
  <defs
     id="defs2912">
    <inkscape:perspective
       sodipodi:type="inkscape:persp3d"
       inkscape:vp_x="0 : 526.18109 : 1"
       inkscape:vp_y="0 : 1000 : 0"
       inkscape:vp_z="744.09448 : 526.18109 : 1"
       inkscape:persp3d-origin="372.04724 : 350.78739 : 1"
       id="perspective2917" />
    <inkscape:perspective
       id="perspective2987"
       inkscape:persp3d-origin="0.5 : 0.33333333 : 1"
       inkscape:vp_z="1 : 0.5 : 1"
       inkscape:vp_y="0 : 1000 : 0"
       inkscape:vp_x="0 : 0.5 : 1"
       sodipodi:type="inkscape:persp3d" />
  </defs>
  <sodipodi:namedview
     id="base"
     pagecolor="#ffffff"
     bordercolor="#666666"
     borderopacity="1.0"
     inkscape:pageopacity="0.0"
     inkscape:pageshadow="2"
     inkscape:zoom="2.752381"
     inkscape:cx="118.32353"
     inkscape:cy="150.62188"
     inkscape:document-units="px"
     showgrid="false"
     inkscape:window-width="2095"
     inkscape:window-height="1115"
     inkscape:window-x="20"
     inkscape:window-y="20"
     inkscape:window-maximized="0"
     inkscape:current-layer="svg2910" />
  <metadata
     id="metadata2915">
    <rdf:RDF>
      <cc:Work
         rdf:about="">
        <dc:format>image/svg+xml</dc:format>
        <dc:type
           rdf:resource="http://purl.org/dc/dcmitype/StillImage" />
        <dc:title></dc:title>
      </cc:Work>
    </rdf:RDF>
  </metadata>
  <path
     style="fill:#000000"
     d="M 12.654988,289.86802 C 11.294053,288.3642 11,285.73459 11,275.06802 c 0,-8.75542 0.390016,-13.36128 1.2,-14.17126 0.671038,-0.67104 3.888889,-1.2 7.3,-1.2 3.411111,0 6.628962,0.52896 7.3,1.2 0.66,0.66 1.2,3.81 1.2,7 l 0,5.8 18.5,0 18.499999,0 0,-12.5 0,-12.5 9,0 9,0 0,19.32569 c 0,18.90794 -0.05,19.37268 -2.31445,21.5 -2.27685,2.13899 -2.83479,2.17431 -34.345013,2.17431 -29.760695,0 -32.147843,-0.12959 -33.685548,-1.82874 z M 41.145057,242.25662 36,236.81648 l 0,-46.55986 0,-46.55986 7.25,-0.0285 7.25,-0.0285 14.787019,-19.47147 14.78702,-19.47153 26.801061,0 26.80107,0 22.13663,28.25 22.13664,28.25 0.0253,38.96215 0.0253,38.96215 -4.20821,4.28785 -4.20821,4.28785 -43.29179,0 -43.291791,0 0,-36.5 0,-36.5 -9.5,0 -9.5,0 0,36.5 0,36.5 -8.854942,0 -8.854943,0 -5.145057,-5.44014 z m 41.854942,-87.05986 0,-8.5 -9.5,0 -9.5,0 0,8.5 0,8.5 9.5,0 9.5,0 0,-8.5 z M 156.5,127.59706 C 131.2,95.124356 109.77425,67.622786 108.88721,66.482451 c -0.88703,-1.140335 -2.05135,-1.802285 -2.58738,-1.471002 -0.53603,0.331284 -13.943551,17.271003 -29.794491,37.643821 l -28.819898,37.04149 -23.842721,0 C 10.729224,139.69676 0,139.45416 0,139.15764 0,138.43436 105.87795,0.89022157 106.93996,0.23386357 c 0.45819,-0.283176 3.97551,3.64263103 7.81626,8.72401403 3.84076,5.0813824 10.78239,14.1888784 15.42584,20.2388784 17.19812,22.407576 84.49086,110.352674 92.2027,120.500004 17.2724,22.72722 21.08865,27.67541 24.87252,32.25 l 3.92896,4.75 -24.34312,-0.0292 -24.34312,-0.0292 -46,-59.04127 z M 191.25,102.67561 171,76.42523 l 0,-17.364237 0,-17.364237 20.48244,0 20.48244,0 4.65487,-4.460148 c 4.29536,-4.115675 4.60871,-4.74462 4.05716,-8.143396 -0.68432,-4.216981 -3.63215,-7.766426 -8.67691,-10.447774 -1.925,-1.02316 -2.91957,-1.880178 -2.21016,-1.904486 2.09113,-0.07165 8.52677,3.564619 10.99976,6.21509 1.25928,1.349657 2.54433,4.023636 2.85567,5.942175 0.47745,2.942206 0.0567,4.06842 -2.68805,7.194479 -1.78976,2.038424 -4.53253,4.367326 -6.09506,5.175338 l -2.84095,1.469112 -0.2606,43.094421 L 211.5,128.92599 191.25,102.67561 z m 15.54776,-92.054284 c 0.29313,-1.9972114 0.79312,-2.7336844 1.42615,-2.1006624 1.04238,1.042387 0.14945,5.1760924 -1.1181,5.1760924 -0.41769,0 -0.5563,-1.383943 -0.30805,-3.07543 z"
     id="path2993" />
  <path
     style="fill:#94ca02;fill-opacity:1;stroke:none"
     d="m 196.13905,178.13188 c -3.55311,-4.54606 -23.70885,-30.41912 -44.79053,-57.49567 -21.08169,-27.076564 -39.289,-50.456323 -40.4607,-51.955025 -1.89015,-2.417656 -3.59368,-3.988968 -4.33076,-3.994629 -0.53593,-0.0041 -22.478231,27.75832 -48.617614,61.513324 L 47.584775,139.57134 24.271549,139.45931 C 11.449275,139.39771 0.849562,139.23848 0.716631,139.10551 0.434252,138.82304 7.841482,128.98939 35.017369,93.568726 80.535529,34.241007 106.40612,0.98201957 107.17116,0.80847157 c 0.77714,-0.176292 4.72564,4.80355103 29.76166,37.53534343 12.83893,16.785467 41.78987,54.634511 64.33541,84.109005 22.54555,29.47448 42.70464,55.71539 44.79797,58.31314 2.09334,2.59776 3.96732,4.92756 4.16442,5.17734 0.28592,0.36236 -4.49171,0.45415 -23.63651,0.45415 l -23.99486,0 -6.4602,-8.26557 0,0 z"
     id="path2997" />
  <path
     style="fill:#454449;fill-opacity:1"
     d="m 41.276635,242.07652 -5.112822,-5.359 -0.01184,-46.41436 -0.01184,-46.41436 7.212575,0 7.212576,0 14.697375,-19.34688 14.69738,-19.34689 26.866001,-0.0891 26.86599,-0.0891 22.0718,28.17834 22.0718,28.17833 0,38.70791 0,38.70791 -4.04589,4.32312 -4.04588,4.32312 -43.36761,0 -43.367611,0 0,-36.51384 0,-36.51384 -9.62803,0 -9.62802,0 0,36.51384 0,36.51384 -8.681568,0 -8.681569,0 -5.112822,-5.35899 z m 41.732014,-86.92474 0,-8.71973 -9.62803,0 -9.62802,0 0,8.71973 0,8.71972 9.62802,0 9.62803,0 0,-8.71972 z"
     id="path2999" />
  <path
     style="fill:#454449;fill-opacity:1"
     d="m 16.534809,291.0097 c -3.009529,-0.39956 -4.064512,-1.18498 -4.6508,-3.46246 -1.07134,-4.16171 -0.86717,-23.80448 0.269504,-25.92837 0.602139,-1.12511 2.795021,-1.6109 7.273822,-1.61139 5.309984,-5.8e-4 7.039031,0.46428 7.649797,2.05663 0.249402,0.65022 0.525862,3.57161 0.618418,6.5349 l 0.167386,5.359 18.671473,0 18.67147,0 0,-12.53461 0,-12.5346 8.71973,0 8.71972,0 -0.009,17.8936 c -0.005,10.96042 -0.15409,18.52709 -0.38364,19.52855 -0.44529,1.94267 -2.11551,3.81873 -3.95122,4.43817 -1.5511,0.5234 -57.993661,0.76152 -61.766778,0.26058 l 1.8e-5,0 z"
     id="path3001" />
  <path
     style="fill:#454449;fill-opacity:1"
     d="m 191.19072,102.27653 -19.88887,-25.783926 -0.003,-17.348616 -0.003,-17.348616 20.37364,0 20.37364,0 3.44735,-3.179066 c 1.89605,-1.748486 3.94199,-3.914792 4.54653,-4.814014 1.00753,-1.498632 1.08125,-1.8141 0.88423,-3.783668 -0.25667,-2.565793 -1.46428,-5.354149 -3.15694,-7.289354 -0.67919,-0.776511 -2.70634,-2.361199 -4.50478,-3.52153 -3.37701,-2.178799 -3.54108,-2.748209 -0.36333,-1.260925 7.96165,3.726283 12.0786,9.644694 10.17549,14.627944 -0.81996,2.147032 -5.68753,6.986589 -8.75628,8.705898 l -2.21402,1.24043 -0.2384,5.508057 c -0.13113,3.029431 -0.26114,17.539805 -0.28892,32.245273 -0.0278,14.705469 -0.1504,31.473213 -0.27249,37.261633 l -0.22198,10.52441 -19.88887,-25.78393 z"
     id="path3003" />
  <path
     style="fill:#454449;fill-opacity:1"
     d="m 216.05319,38.286949 c 4.64676,-4.535511 5.17591,-5.431969 4.91363,-8.324447 -0.10602,-1.169207 -0.39123,-2.364966 -0.63379,-2.657241 -0.24257,-0.292275 -0.33595,-0.53141 -0.2075,-0.53141 0.12844,0 -0.11388,-0.694853 -0.53849,-1.544118 -0.87313,-1.74634 -3.56574,-4.698023 -4.02612,-4.413495 -0.16672,0.103042 -0.30313,0.03593 -0.30313,-0.149135 0,-0.185066 -0.66898,-0.779194 -1.48663,-1.320285 -2.39772,-1.586737 -1.30796,-1.52482 1.3918,0.07908 6.40699,3.806326 9.44701,9.278891 7.46943,13.446316 -0.7982,1.682084 -5.16986,6.049731 -7.80587,7.798697 -1.12941,0.749351 -2.17906,1.362457 -2.33256,1.362457 -0.1535,0 1.44815,-1.685888 3.55923,-3.746418 z"
     id="path3005" />
  <path
     style="fill:#454449;fill-opacity:1"
     d="m 206.90138,11.90131 c 0,-1.733789 0.59039,-3.4206444 1.08929,-3.1123074 0.79573,0.491787 0.15639,4.5419424 -0.71697,4.5419424 -0.20477,0 -0.37232,-0.643336 -0.37232,-1.429635 z"
     id="path3007" />
  <flowRoot
     xml:space="preserve"
     id="flowRoot3030"
     style="font-size:48px;font-style:normal;font-variant:normal;font-weight:normal;font-stretch:normal;fill:#000000;fill-opacity:1;stroke:none;font-family:Arial Black;-inkscape-font-specification:'Arial Black,'"
     transform="translate(-39.176471,-12.303244)"><flowRegion
       id="flowRegion3032"><rect
         id="rect3034"
         width="176.93771"
         height="47.231834"
         x="126.79931"
         y="262.68167"
         style="font-size:48px" /></flowRegion><flowPara
       id="flowPara3036">E</flowPara></flowRoot>  <path
     style="fill:#94ca02;fill-opacity:1;stroke:none"
     d="M 106.77217,0.02427815 C 101.41643,6.1276359 96.611645,12.861615 91.523276,19.250542 61.062526,58.68697 30.547329,98.10894 0.56425888,137.8957 c -0.90436451,0.60576 -0.56115276,1.77872 0.59480512,1.64415 12.890831,0.93338 25.884665,0.38274 38.818663,0.54498 2.645393,-0.0899 5.374695,0.17563 7.970372,-0.12489 19.19409,-24.50354 38.073766,-49.319745 57.700041,-73.43642 0.51901,-0.485296 1.09949,-1.851274 1.7939,-0.703936 5.25761,5.851279 9.80173,12.34603 14.77592,18.449637 26.69087,34.131919 53.26956,68.351339 79.89212,102.536519 14.96213,0.29805 30.05205,0.0553 45.06325,0.14569 1.43337,-0.14308 6.1449,0.7564 3.41655,-1.6259 C 238.94854,171.16469 228.06832,156.30325 216.80691,141.79869 182.80573,97.473406 149.07704,52.938097 114.9039,8.7453832 c -2.55158,-2.8711464 -4.5974,-6.4670604 -7.70029,-8.69839744 -0.13679,-0.0489114 -0.29045,-0.0647987 -0.43144,-0.0227076 z"
     id="path2825" />
</svg>
