<?xml version="1.0" encoding="UTF-8" standalone="no"?>
<!-- Created with Inkscape (http://www.inkscape.org/) -->

<svg
   xmlns:dc="http://purl.org/dc/elements/1.1/"
   xmlns:cc="http://creativecommons.org/ns#"
   xmlns:rdf="http://www.w3.org/1999/02/22-rdf-syntax-ns#"
   xmlns:svg="http://www.w3.org/2000/svg"
   xmlns="http://www.w3.org/2000/svg"
   xmlns:sodipodi="http://sodipodi.sourceforge.net/DTD/sodipodi-0.dtd"
   xmlns:inkscape="http://www.inkscape.org/namespaces/inkscape"
   width="554.61212"
   height="293.1832"
   id="svg2910"
   version="1.1"
   inkscape:version="0.47 r22583"
   sodipodi:docname="logo-jeedom-grand-nom-noir.svg">
  <defs
     id="defs2912">
    <inkscape:perspective
       sodipodi:type="inkscape:persp3d"
       inkscape:vp_x="0 : 526.18109 : 1"
       inkscape:vp_y="0 : 1000 : 0"
       inkscape:vp_z="744.09448 : 526.18109 : 1"
       inkscape:persp3d-origin="372.04724 : 350.78739 : 1"
       id="perspective2917" />
    <inkscape:perspective
       id="perspective2987"
       inkscape:persp3d-origin="0.5 : 0.33333333 : 1"
       inkscape:vp_z="1 : 0.5 : 1"
       inkscape:vp_y="0 : 1000 : 0"
       inkscape:vp_x="0 : 0.5 : 1"
       sodipodi:type="inkscape:persp3d" />
  </defs>
  <sodipodi:namedview
     id="base"
     pagecolor="#ffffff"
     bordercolor="#666666"
     borderopacity="1.0"
     inkscape:pageopacity="0.0"
     inkscape:pageshadow="2"
     inkscape:zoom="2.752381"
     inkscape:cx="260.82353"
     inkscape:cy="148.2059"
     inkscape:document-units="px"
     showgrid="false"
     inkscape:window-width="2095"
     inkscape:window-height="1115"
     inkscape:window-x="20"
     inkscape:window-y="20"
     inkscape:window-maximized="0"
     inkscape:current-layer="svg2910" />
  <metadata
     id="metadata2915">
    <rdf:RDF>
      <cc:Work
         rdf:about="">
        <dc:format>image/svg+xml</dc:format>
        <dc:type
           rdf:resource="http://purl.org/dc/dcmitype/StillImage" />
        <dc:title />
      </cc:Work>
    </rdf:RDF>
  </metadata>
  <path
     style="fill:#000000"
     d="M 12.654988,289.64856 C 11.294053,288.14474 11,285.51513 11,274.84856 c 0,-8.75542 0.390016,-13.36128 1.2,-14.17126 0.671038,-0.67104 3.888889,-1.2 7.3,-1.2 3.411111,0 6.628962,0.52896 7.3,1.2 0.66,0.66 1.2,3.81 1.2,7 l 0,5.8 18.5,0 18.499999,0 0,-12.5 0,-12.5 9,0 9,0 0,19.32569 c 0,18.90794 -0.05,19.37268 -2.31445,21.5 -2.27685,2.13899 -2.83479,2.17431 -34.345013,2.17431 -29.760695,0 -32.147843,-0.12959 -33.685548,-1.82874 z M 41.145057,242.03716 36,236.59702 l 0,-46.55986 0,-46.55986 7.25,-0.0285 7.25,-0.0285 14.787019,-19.47147 14.78702,-19.47153 26.801061,0 26.80107,0 22.13663,28.25 22.13664,28.25 0.0253,38.96215 0.0253,38.96215 -4.20821,4.28785 -4.20821,4.28785 -43.29179,0 -43.291791,0 0,-36.5 0,-36.5 -9.5,0 -9.5,0 0,36.5 0,36.5 -8.854942,0 -8.854943,0 -5.145057,-5.44014 z m 41.854942,-87.05986 0,-8.5 -9.5,0 -9.5,0 0,8.5 0,8.5 9.5,0 9.5,0 0,-8.5 z M 156.5,127.3776 C 131.2,94.9049 109.77425,67.40333 108.88721,66.262995 108.00018,65.12266 106.83586,64.46071 106.29983,64.791993 105.7638,65.123277 92.356279,82.062996 76.505339,102.43581 l -28.819898,37.04149 -23.842721,0 C 10.729224,139.4773 0,139.2347 0,138.93818 0,138.2149 105.87795,0.67076525 106.93996,0.01440725 c 0.45819,-0.283176 3.97551,3.64263105 7.81626,8.72401405 3.84076,5.0813827 10.78239,14.1888787 15.42584,20.2388787 17.19812,22.407576 84.49086,110.35267 92.2027,120.5 17.2724,22.72722 21.08865,27.67541 24.87252,32.25 l 3.92896,4.75 -24.34312,-0.0292 -24.34312,-0.0292 -46,-59.04127 z M 191.25,102.45615 171,76.205774 l 0,-17.364237 0,-17.364237 20.48244,0 20.48244,0 4.65487,-4.460148 c 4.29536,-4.115675 4.60871,-4.74462 4.05716,-8.143396 C 219.99259,24.656775 217.04476,21.10733 212,18.425982 c -1.925,-1.02316 -2.91957,-1.880178 -2.21016,-1.904486 2.09113,-0.07165 8.52677,3.564619 10.99976,6.21509 1.25928,1.349657 2.54433,4.023636 2.85567,5.942175 0.47745,2.942206 0.0567,4.06842 -2.68805,7.194479 -1.78976,2.038424 -4.53253,4.367326 -6.09506,5.175338 l -2.84095,1.469112 -0.2606,43.094421 L 211.5,128.70653 191.25,102.45615 z m 15.54776,-92.05428 c 0.29313,-1.9972117 0.79312,-2.7336847 1.42615,-2.1006627 1.04238,1.042387 0.14945,5.1760927 -1.1181,5.1760927 -0.41769,0 -0.5563,-1.383943 -0.30805,-3.07543 z"
     id="path2993" />
  <path
     style="fill:#94ca02;fill-opacity:1"
     d="M 196.13905,177.91242 C 192.58594,173.36636 172.4302,147.4933 151.34852,120.41675 130.26683,93.34019 112.05952,69.960431 110.88782,68.461729 108.99767,66.044073 107.29414,64.472761 106.55706,64.4671 106.02113,64.463 84.078829,92.22542 57.939446,125.98042 L 47.584775,139.35188 24.271549,139.23985 C 11.449275,139.17825 0.849562,139.01902 0.716631,138.88605 0.434252,138.60358 7.841482,128.76993 35.017369,93.34927 80.535529,34.021551 106.40612,0.76256325 107.17116,0.58901525 c 0.77714,-0.176292 4.72564,4.80355105 29.76166,37.53534375 12.83893,16.785467 41.78987,54.634511 64.33541,84.109001 22.54555,29.47448 42.70464,55.71539 44.79797,58.31314 2.09334,2.59776 3.96732,4.92756 4.16442,5.17734 0.28592,0.36236 -4.49171,0.45415 -23.63651,0.45415 l -23.99486,0 -6.4602,-8.26557 0,0 z"
     id="path2997" />
  <path
     style="fill:#454449;fill-opacity:1"
     d="m 41.276635,241.85706 -5.112822,-5.359 -0.01184,-46.41436 -0.01184,-46.41436 7.212575,0 7.212576,0 14.697375,-19.34688 14.69738,-19.34689 26.866001,-0.0891 26.86599,-0.0891 22.0718,28.17834 22.0718,28.17833 0,38.70791 0,38.70791 -4.04589,4.32312 -4.04588,4.32312 -43.36761,0 -43.367611,0 0,-36.51384 0,-36.51384 -9.62803,0 -9.62802,0 0,36.51384 0,36.51384 -8.681568,0 -8.681569,0 -5.112822,-5.35899 z m 41.732014,-86.92474 0,-8.71973 -9.62803,0 -9.62802,0 0,8.71973 0,8.71972 9.62802,0 9.62803,0 0,-8.71972 z"
     id="path2999" />
  <path
     style="fill:#454449;fill-opacity:1"
     d="m 16.534809,290.79024 c -3.009529,-0.39956 -4.064512,-1.18498 -4.6508,-3.46246 -1.07134,-4.16171 -0.86717,-23.80448 0.269504,-25.92837 0.602139,-1.12511 2.795021,-1.6109 7.273822,-1.61139 5.309984,-5.8e-4 7.039031,0.46428 7.649797,2.05663 0.249402,0.65022 0.525862,3.57161 0.618418,6.5349 l 0.167386,5.359 18.671473,0 18.67147,0 0,-12.53461 0,-12.5346 8.71973,0 8.71972,0 -0.009,17.8936 c -0.005,10.96042 -0.15409,18.52709 -0.38364,19.52855 -0.44529,1.94267 -2.11551,3.81873 -3.95122,4.43817 -1.5511,0.5234 -57.993661,0.76152 -61.766778,0.26058 l 1.8e-5,0 z"
     id="path3001" />
  <path
     style="fill:#454449;fill-opacity:1"
     d="m 191.19072,102.05707 -19.88887,-25.783922 -0.003,-17.348616 -0.003,-17.348616 20.37364,0 20.37364,0 3.44735,-3.179066 c 1.89605,-1.748486 3.94199,-3.914792 4.54653,-4.814014 1.00753,-1.498632 1.08125,-1.8141 0.88423,-3.783668 -0.25667,-2.565793 -1.46428,-5.354149 -3.15694,-7.289354 -0.67919,-0.776511 -2.70634,-2.361199 -4.50478,-3.52153 -3.37701,-2.178799 -3.54108,-2.748209 -0.36333,-1.260925 7.96165,3.726283 12.0786,9.644694 10.17549,14.627944 -0.81996,2.147032 -5.68753,6.986589 -8.75628,8.705898 l -2.21402,1.24043 -0.2384,5.508057 c -0.13113,3.029431 -0.26114,17.539805 -0.28892,32.245273 -0.0278,14.705469 -0.1504,31.473209 -0.27249,37.261629 l -0.22198,10.52441 -19.88887,-25.78393 z"
     id="path3003" />
  <path
     style="fill:#454449;fill-opacity:1"
     d="m 216.05319,38.067493 c 4.64676,-4.535511 5.17591,-5.431969 4.91363,-8.324447 -0.10602,-1.169207 -0.39123,-2.364966 -0.63379,-2.657241 -0.24257,-0.292275 -0.33595,-0.53141 -0.2075,-0.53141 0.12844,0 -0.11388,-0.694853 -0.53849,-1.544118 -0.87313,-1.74634 -3.56574,-4.698023 -4.02612,-4.413495 -0.16672,0.103042 -0.30313,0.03593 -0.30313,-0.149135 0,-0.185066 -0.66898,-0.779194 -1.48663,-1.320285 -2.39772,-1.586737 -1.30796,-1.52482 1.3918,0.07908 6.40699,3.806326 9.44701,9.278891 7.46943,13.446316 -0.7982,1.682084 -5.16986,6.049731 -7.80587,7.798697 -1.12941,0.749351 -2.17906,1.362457 -2.33256,1.362457 -0.1535,0 1.44815,-1.685888 3.55923,-3.746418 z"
     id="path3005" />
  <path
     style="fill:#454449;fill-opacity:1"
     d="m 206.90138,11.681854 c 0,-1.7337897 0.59039,-3.4206447 1.08929,-3.1123077 0.79573,0.491787 0.15639,4.5419427 -0.71697,4.5419427 -0.20477,0 -0.37232,-0.643336 -0.37232,-1.429635 z"
     id="path3007" />
  <text
     xml:space="preserve"
     style="font-size:112.56365967px;font-style:normal;font-variant:normal;font-weight:normal;font-stretch:normal;fill:#94ca02;fill-opacity:1;stroke:none;font-family:Arial Black;-inkscape-font-specification:'Arial Black,'"
     x="209.5343"
     y="247.93892"
     id="text2819"
     transform="scale(0.85036588,1.1759644)"><tspan
       sodipodi:role="line"
       id="tspan2821"
       x="209.5343"
       y="247.93892">EEDOM</tspan></text>
  <path
     style="fill:#000000;fill-opacity:1;stroke:none"
     d="M 156.75897,127.04237 C 131.43584,94.52328 109.97145,67.140146 109.06033,66.190968 107.20439,64.257511 106.59031,64.0977 105.5701,65.282663 101.2635,70.284714 76.447459,101.79855 52.241905,133.00403 l -4.831846,6.22915 -21.854683,-0.16058 C 3.970374,138.91399 1.3391,138.82597 1.3391,138.26251 c 0,-0.58084 20.619983,-27.63533 60.260919,-79.065487 34.5112,-44.774829 45.143931,-58.31314875 45.798011,-58.31314875 0.65038,0 13.07301,16.02419375 59.43078,76.66089975 37.89507,49.567376 79.04154,103.155706 81.31905,105.908306 l 1.80368,2.17993 -12.31228,0.22106 c -6.77175,0.12158 -17.38061,0.24196 -23.57525,0.26749 l -11.26297,0.0464 -46.04207,-59.12562 z"
     id="path2863" />
  <path
     style="fill:#000000;fill-opacity:1;stroke:none"
     d="m 41.395328,241.7277 -5.177335,-5.45955 0,-46.29941 0,-46.2994 7.357266,-0.0193 7.357267,-0.0193 14.532873,-19.22466 14.53287,-19.22466 24.887541,-0.0152 c 13.68815,-0.008 25.70502,-0.11131 26.70416,-0.22875 l 1.8166,-0.21353 22.0718,28.19904 22.0718,28.19904 0,38.73094 0,38.73095 -4.03746,4.31611 -4.03745,4.31611 -43.19438,0 -43.194371,0 0,-36.51384 0,-36.51384 -9.80969,0 -9.80969,0 0,36.51384 0,36.51384 -8.447233,-0.0144 -8.447232,-0.0144 -5.177336,-5.45956 0,-2e-5 z m 41.691181,-86.79538 0,-8.71973 -9.80969,0 -9.80969,0 0,8.71973 0,8.71972 9.80969,0 9.80969,0 0,-8.71972 z"
     id="path2865" />
  <path
     style="fill:#000000;fill-opacity:1;stroke:none"
     d="m 191.08391,101.59526 -19.71021,-25.561807 0,-17.228766 0,-17.228771 20.50898,0 20.50898,0 3.26997,-3.111798 c 1.79848,-1.711488 3.78351,-3.877794 4.41119,-4.814013 1.04072,-1.552318 1.12311,-1.883538 0.93564,-3.761257 -0.40938,-4.100438 -2.50795,-7.411938 -6.44906,-10.176464 -1.1768,-0.825479 -2.07164,-1.568867 -1.98853,-1.651974 0.27001,-0.270013 3.25971,1.417406 5.33367,3.010388 4.69797,3.608443 6.50415,8.104155 4.66402,11.609114 -0.96749,1.842807 -5.07672,6.049041 -7.32375,7.496639 -0.94918,0.611486 -1.72578,1.267893 -1.72578,1.458682 0,0.190789 -0.13043,0.266281 -0.28984,0.167759 -0.15941,-0.09852 -0.52727,-0.03236 -0.81747,0.147021 -0.62821,0.388321 -0.60539,-0.577479 -0.94841,40.136284 -0.13637,16.185983 -0.34273,32.948453 -0.45857,37.249923 l -0.21062,7.82085 -19.71021,-25.56181 z"
     id="path2867" />
  <path
     style="fill:#000000;fill-opacity:1;stroke:none"
     d="m 185.17993,244.30948 0,-47.23183 28.3391,0 28.3391,0 0,9.99135 0,9.99134 -17.80277,0 -17.80276,0 0,7.62976 0,7.62976 16.53114,0 16.53114,0 0,9.44637 0,9.44636 -16.53114,0 -16.53114,0 0,9.62803 0,9.62803 18.16609,0 18.16609,0 0,10.53633 0,10.53633 -28.70243,0 -28.70242,0 0,-47.23183 z"
     id="path2869" />
  <path
     style="fill:#000000;fill-opacity:1;stroke:none"
     d="m 16.053633,290.4961 c -0.799308,-0.14642 -1.834992,-0.47479 -2.30152,-0.72971 -0.987164,-0.53941 -1.876681,-2.44794 -1.876681,-4.02656 0,-0.6059 -0.122621,-1.10142 -0.272491,-1.10116 -0.446025,7.8e-4 0.09342,-21.48174 0.568107,-22.62377 0.229898,-0.55311 0.87054,-1.18208 1.423647,-1.39771 1.596527,-0.62243 8.006207,-0.83247 10.371028,-0.33986 3.019136,0.62892 3.187359,1.0029 3.475937,7.72735 l 0.23827,5.5522 18.801903,0.0941 18.801906,0.0941 0,-12.53788 0,-12.53787 8.56155,0 8.56155,0 -0.11432,18.82896 -0.11432,18.82896 -0.99758,1.50693 c -1.96085,2.96202 0.38189,2.76279 -33.51799,2.85029 -16.58564,0.0428 -30.809688,-0.042 -31.608996,-0.18838 l 0,0 z"
     id="path2871" />
  <path
     style="fill:#000000;fill-opacity:1;stroke:none"
     d="m 215.98402,38.363609 c 1.7939,-1.766769 3.71324,-3.894738 4.26521,-4.728821 0.91662,-1.385111 0.98469,-1.718878 0.7855,-3.851954 -0.26773,-2.867004 -1.76733,-5.999889 -3.83033,-8.002085 -0.81055,-0.786669 -1.40345,-1.500588 -1.31756,-1.586486 0.39277,-0.39277 4.3251,3.094029 5.52147,4.895888 1.05227,1.584833 1.36493,2.448773 1.48451,4.101965 0.18324,2.533191 -0.25443,3.497365 -2.90302,6.395342 -1.80372,1.973561 -6.51782,5.988458 -7.03135,5.988458 -0.12983,0 1.23168,-1.445538 3.02557,-3.212307 z"
     id="path2873" />
  <path
     style="fill:#000000;fill-opacity:1;stroke:none"
     d=""
     id="path2875" />
  <path
     style="fill:#000000;fill-opacity:1;stroke:none"
     d="m 254.5744,244.30948 0,-47.23183 28.15743,0 28.15744,0 0,9.99135 0,9.99134 -17.80276,0 -17.80277,0 0,7.62976 0,7.62976 16.53114,0 16.53114,0 0,9.44637 0,9.44636 -16.53114,0 -16.53114,0 0,9.62803 0,9.62803 18.34775,0 18.34775,0 0,10.53633 0,10.53633 -28.70242,0 -28.70242,0 0,-47.23183 z"
     id="path2877" />
  <path
     style="fill:#000000;fill-opacity:1;stroke:none"
     d="m 323.96886,244.28862 0,-47.2527 18.8019,0.12961 c 21.04492,0.14507 20.54248,0.0903 26.19406,2.85719 8.87952,4.34727 14.98269,15.62117 16.89412,31.20718 1.22488,9.98782 1.04123,21.75926 -0.47789,30.63096 -0.68225,3.98437 -2.62179,10.22764 -4.08097,13.13645 -2.73864,5.45933 -7.61092,10.92279 -11.47858,12.87131 -2.83875,1.43017 -7.35158,2.80785 -10.74253,3.27949 -1.68052,0.23373 -9.37337,0.3932 -18.96858,0.3932 l -16.14153,0 0,-47.25269 z m 33.12051,25.10177 c 6.20355,-1.91608 8.6615,-8.89382 8.6615,-24.58874 0,-14.8483 -2.32431,-22.11879 -7.99308,-25.00259 -2.33341,-1.18704 -4.93285,-1.64875 -9.28259,-1.64875 l -3.797,0 0,25.97751 0,25.97751 5.04824,0 c 3.99426,0 5.53149,-0.14927 7.36293,-0.71494 l 0,0 z"
     id="path2879" />
  <path
     style="fill:#000000;fill-opacity:1;stroke:none"
     d="m 424.8048,292.59046 c -3.39234,-0.49422 -5.91086,-1.3157 -9.64217,-3.145 -2.78967,-1.36767 -4.01783,-2.25212 -6.4045,-4.61217 -8.85565,-8.75685 -13.21488,-22.04721 -13.21488,-40.28933 0,-16.20777 3.14056,-28.02107 9.7983,-36.85655 6.25461,-8.3005 14.24444,-12.09447 25.45667,-12.08809 9.5262,0.005 16.09981,2.46399 22.21867,8.30991 6.12087,5.84784 9.89036,13.74116 12.00607,25.14073 0.67666,3.6459 0.77619,5.52054 0.78123,14.71454 0.004,8.11758 -0.13277,11.38397 -0.59772,14.22876 -1.3034,7.97485 -3.26017,13.90733 -6.46352,19.59588 -2.12665,3.77651 -7.88384,9.66307 -11.29158,11.54531 -3.00888,1.66192 -6.74859,2.9481 -10.07061,3.46353 -2.94463,0.45688 -9.41493,0.45301 -12.57596,-0.008 l 0,0 z m 11.1727,-22.227 c 4.66267,-2.14727 7.40976,-7.04429 8.60303,-15.33599 0.639,-4.44017 0.85297,-13.91107 0.41178,-18.22645 -0.82234,-8.04356 -2.46318,-12.40251 -6.00709,-15.95804 -2.83603,-2.84532 -4.81759,-3.57666 -9.05977,-3.34371 -8.65514,0.47527 -12.94068,8.02999 -13.55308,23.8919 -0.77722,20.13102 4.59115,30.69653 15.24526,30.00424 1.54508,-0.10039 3.1745,-0.48607 4.35987,-1.03195 l 0,0 z"
     id="path2881" />
  <path
     style="fill:#000000;fill-opacity:1;stroke:none"
     d="m 477.65398,244.30948 0,-47.23183 13.77612,0 13.77612,0 0.35537,1.72577 c 0.19545,0.94918 2.61228,13.86527 5.37073,28.70243 2.75845,14.83715 5.10538,26.97647 5.2154,26.97626 0.11002,-2.2e-4 2.55407,-12.71194 5.43124,-28.24827 2.87716,-15.53634 5.3062,-28.45226 5.39787,-28.70204 0.12927,-0.35226 3.2149,-0.45415 13.75235,-0.45415 l 13.5857,0 0,47.23183 0,47.23183 -8.3564,0 -8.3564,0 -0.0246,-36.24135 c -0.0151,-22.23695 -0.15311,-35.96056 -0.35719,-35.5147 -0.18293,0.39965 -3.19983,16.25865 -6.70421,35.24221 -3.50439,18.98357 -6.46375,34.9684 -6.57636,35.52184 l -0.20475,1.00628 -7.6796,-0.098 -7.6796,-0.098 -6.59359,-35.64443 c -3.62647,-19.60445 -6.68383,-35.87218 -6.79415,-36.15052 -0.11031,-0.27835 -0.21347,15.80252 -0.22924,35.73526 l -0.0287,36.24135 -8.53806,0 -8.53806,0 0,-47.23183 z"
     id="path2883" />
  <path
     style="fill:#000000;fill-opacity:1;stroke:none"
     d="M 156.11419,126.707 C 130.63625,93.999772 109.26895,66.684248 108.63131,66.005832 c -0.7237,-0.769977 -1.42851,-1.1888 -1.87564,-1.114573 -1.08368,0.179899 -11.321336,13.006161 -45.989465,57.617961 l -13.055598,16.80026 -21.09665,-0.0475 C 15.010799,139.23587 4.3322877,139.11325 2.8839315,138.9895 L 0.25055704,138.76449 9.6911973,126.30855 C 31.719146,97.244963 102.49698,5.4512049 106.93547,0.18973458 c 0.55329,-0.65588995 3.98815,3.73352272 49.72901,63.54880942 72.73156,95.110996 83.39247,109.014236 88.44587,115.345186 2.70739,3.39185 5.05327,6.37563 5.21307,6.63063 0.23451,0.37422 -4.35454,0.46331 -23.79758,0.46198 l -24.08812,-0.002 -46.32353,-59.46768 z"
     id="path2832" />
  <path
     style="fill:#000000;fill-opacity:1;stroke:none"
     d="m 185.17993,244.30948 0,-47.23184 28.3391,0 28.3391,0 0,9.99135 0,9.99135 -17.80277,0 -17.80276,0 0,7.62976 0,7.62976 16.53114,0 16.53114,0 0,9.44636 0,9.44637 -16.53717,0 -16.53718,0 0.0969,9.5372 0.0969,9.53719 18.25692,0.0942 18.25692,0.0942 0,10.53297 0,10.53297 -28.88408,0 -28.88409,0 0,-47.23183 z"
     id="path2834" />
  <path
     style="fill:#000000;fill-opacity:1;stroke:none"
     d="m 254.5744,244.30948 0,-47.23184 28.15743,0 28.15744,0 0,9.99135 0,9.99135 -17.80276,0 -17.80277,0 0,7.62976 0,7.62976 16.53114,0 16.53114,0 0,9.44266 0,9.44266 -16.44031,0.0945 -16.44031,0.0945 0,9.44637 0,9.44636 18.25692,0.0942 18.25692,0.0942 0,10.53297 0,10.53297 -28.70242,0 -28.70242,0 0,-47.23183 z"
     id="path2836" />
  <path
     style="fill:#000000;fill-opacity:1;stroke:none"
     d="m 323.96886,244.31034 0,-47.27409 18.98356,0.12925 c 21.1012,0.14366 20.74038,0.10621 26.06834,2.70596 2.08869,1.01917 3.44597,2.05707 5.81315,4.44523 4.61762,4.65857 7.7155,10.66561 9.63121,18.67572 3.29584,13.7808 2.96403,34.57119 -0.73208,45.86885 -2.07678,6.34798 -4.807,11.09515 -8.62686,14.99994 -3.40353,3.47921 -5.74812,4.79037 -11.56893,6.46968 l -3.41787,0.98606 -18.07526,0.13375 -18.07526,0.13374 0,-47.27409 z m 32.1476,25.23639 c 3.83951,-1.00006 5.78854,-2.84466 7.44434,-7.04547 2.48418,-6.30241 2.88709,-24.49867 0.72928,-32.93564 -0.98976,-3.86991 -2.73373,-6.93009 -4.87711,-8.55793 -2.48929,-1.89056 -4.75548,-2.52064 -9.92076,-2.75831 l -4.45069,-0.20479 0,26.03036 0,26.03037 4.46519,0 c 2.84525,0 5.24322,-0.20265 6.60975,-0.55859 z"
     id="path2838" />
  <path
     style="fill:#000000;fill-opacity:1;stroke:none"
     d="m 425.15398,292.75408 c -10.9202,-1.71952 -18.35799,-7.42014 -23.766,-18.21518 -4.41486,-8.8126 -6.07688,-18.26602 -5.74963,-32.70341 0.31672,-13.97286 2.6176,-23.31947 7.78877,-31.63947 2.24473,-3.6116 7.21233,-8.59712 10.46388,-10.50164 7.2843,-4.26659 18.10495,-5.4669 26.90457,-2.98446 12.6372,3.56506 21.11398,14.79159 24.24052,32.1038 0.69746,3.862 0.79803,5.71027 0.80358,14.76911 0.007,11.27979 -0.30068,14.56435 -1.99553,21.30862 -3.60622,14.35011 -11.53286,23.70654 -22.9051,27.03666 -2.20112,0.64455 -3.82303,0.81138 -8.70029,0.89492 -3.29714,0.0565 -6.48529,0.0254 -7.08477,-0.069 z m 9.62802,-22.00731 c 4.1354,-1.26727 7.11264,-4.99257 8.69824,-10.88374 2.11643,-7.86337 2.29312,-22.03877 0.3693,-29.6265 -0.97997,-3.86508 -2.59634,-7.01203 -4.72312,-9.19551 -2.60587,-2.67534 -4.4991,-3.43715 -8.52262,-3.42938 -2.9321,0.006 -3.47089,0.117 -5.21563,1.07772 -3.29367,1.81364 -5.77936,5.18286 -7.10757,9.63396 -2.28752,7.66589 -2.54445,21.67104 -0.55269,30.12749 2.35579,10.00203 8.97238,14.77258 17.05409,12.29596 z"
     id="path2840" />
  <path
     style="fill:#000000;fill-opacity:1;stroke:none"
     d="m 477.65398,244.30948 0,-47.23184 13.78174,0 c 12.81389,0 13.79453,0.0446 13.96383,0.63582 0.10014,0.34969 2.50054,13.06141 5.33421,28.24826 2.83366,15.18686 5.21517,27.68058 5.29222,27.76385 0.0771,0.0833 0.1956,0.0833 0.26342,0 0.0678,-0.0833 2.29572,-11.84127 4.95088,-26.1289 2.65516,-14.28763 5.01855,-26.95847 5.25198,-28.15744 l 0.4244,-2.17993 13.69911,-0.0952 13.6991,-0.0952 0,47.2362 0,47.23621 -8.3564,0 -8.3564,0 0,-28.46234 c 0,-15.65428 -0.11056,-31.71765 -0.24569,-35.69636 l -0.24568,-7.23403 -0.85288,4.54152 c -0.46908,2.49784 -3.384,18.19334 -6.47759,34.87889 -3.09359,16.68555 -5.70876,30.70523 -5.81147,31.15484 -0.18648,0.81625 -0.19834,0.81748 -7.90801,0.81748 l -7.72125,0 -6.49444,-35.15139 c -3.57194,-19.33326 -6.62909,-35.39662 -6.79365,-35.69636 -0.16457,-0.29974 -0.30419,15.51838 -0.31026,35.15138 l -0.0111,35.69637 -8.53806,0 -8.53806,0 0,-47.23183 z"
     id="path2842" />
  <path
     style="fill:#000000;fill-opacity:1;stroke:none"
     d="m 16.23093,290.832 c -3.533808,-0.47027 -4.14289,-1.22861 -4.778163,-5.94905 -0.488338,-3.62864 -0.18708,-20.92203 0.397824,-22.83674 0.326181,-1.06776 0.68146,-1.43282 1.760855,-1.80935 1.799667,-0.62777 9.980831,-0.63028 11.776543,-0.004 1.818343,0.63457 2.198743,1.91258 2.451771,8.23713 l 0.203497,5.0865 18.529412,0 18.529411,0 0.0956,-12.44377 0.0956,-12.44375 8.714952,0 8.714953,0 -0.0089,17.8936 c -0.0054,10.98722 -0.153831,18.52463 -0.384431,19.52854 -0.428742,1.86653 -1.755517,3.45494 -3.603226,4.31378 -1.13865,0.52926 -4.368032,0.59641 -30.882352,0.64216 -16.2859,0.0281 -30.511914,-0.0688 -31.613365,-0.21542 l 1.8e-5,0 z"
     id="path2844" />
  <path
     style="fill:#000000;fill-opacity:1;stroke:none"
     d="m 41.205711,241.97612 -4.987713,-5.23992 0,-46.52575 0,-46.52575 7.175605,-0.0985 7.175605,-0.0985 14.836445,-19.52855 14.836442,-19.52855 26.634075,0 26.63407,0 22.20163,28.33676 22.20163,28.33676 0,38.8339 0,38.83391 -4.03185,4.22207 -4.03185,4.22207 -43.3799,0 -43.3799,0 -0.09257,-36.42301 -0.09258,-36.42301 -9.446367,0 -9.446366,0 -0.09258,36.42301 -0.09258,36.42301 -8.816768,0 -8.816768,0 -4.987714,-5.23993 z m 41.880798,-87.04381 0,-8.71972 -9.628028,0 -9.628027,0 0,8.71972 0,8.71973 9.628027,0 9.628028,0 0,-8.71973 z"
     id="path2846" />
  <path
     style="fill:#000000;fill-opacity:1;stroke:none"
     d="m 191.08391,102.06645 -20.07353,-26.034829 0,-17.227852 0,-17.227854 20.48659,0 20.48658,0 3.42065,-3.237296 c 1.88136,-1.780513 3.88416,-3.906138 4.45067,-4.723611 0.93545,-1.349856 1.01312,-1.696795 0.84599,-3.778885 -0.36106,-4.498107 -2.68077,-7.731001 -7.86976,-10.96782 -1.60173,-0.999135 -2.91967,-1.927818 -2.92876,-2.063739 -0.0596,-0.890853 6.14329,2.238944 9.09683,4.590005 2.37939,1.894033 4.2527,5.073864 4.57064,7.758376 0.28038,2.367348 -0.62546,4.35299 -3.30726,7.24965 -1.8656,2.015077 -5.95714,5.084918 -7.50237,5.628951 -0.80554,0.283613 -1.043,8.177382 -1.10655,36.784853 -0.028,12.5891 -0.15104,28.828291 -0.27352,36.087081 l -0.22267,13.19781 -20.07353,-26.03484 z"
     id="path2848" />
</svg>
