<?xml version="1.0" encoding="UTF-8" standalone="no"?>
<!-- Created with Inkscape (http://www.inkscape.org/) -->

<svg
   xmlns:dc="http://purl.org/dc/elements/1.1/"
   xmlns:cc="http://creativecommons.org/ns#"
   xmlns:rdf="http://www.w3.org/1999/02/22-rdf-syntax-ns#"
   xmlns:svg="http://www.w3.org/2000/svg"
   xmlns="http://www.w3.org/2000/svg"
   xmlns:sodipodi="http://sodipodi.sourceforge.net/DTD/sodipodi-0.dtd"
   xmlns:inkscape="http://www.inkscape.org/namespaces/inkscape"
   width="250.91812"
   height="299.11118"
   id="svg2"
   version="1.1"
   inkscape:version="0.47 r22583"
   sodipodi:docname="logo-jeedom-sans-nom-noir.svg">
  <defs
     id="defs4">
    <inkscape:perspective
       sodipodi:type="inkscape:persp3d"
       inkscape:vp_x="0 : 526.18109 : 1"
       inkscape:vp_y="0 : 1000 : 0"
       inkscape:vp_z="744.09448 : 526.18109 : 1"
       inkscape:persp3d-origin="372.04724 : 350.78739 : 1"
       id="perspective10" />
    <inkscape:perspective
       id="perspective2884"
       inkscape:persp3d-origin="0.5 : 0.33333333 : 1"
       inkscape:vp_z="1 : 0.5 : 1"
       inkscape:vp_y="0 : 1000 : 0"
       inkscape:vp_x="0 : 0.5 : 1"
       sodipodi:type="inkscape:persp3d" />
    <inkscape:perspective
       id="perspective2884-7"
       inkscape:persp3d-origin="0.5 : 0.33333333 : 1"
       inkscape:vp_z="1 : 0.5 : 1"
       inkscape:vp_y="0 : 1000 : 0"
       inkscape:vp_x="0 : 0.5 : 1"
       sodipodi:type="inkscape:persp3d" />
    <inkscape:perspective
       id="perspective2965"
       inkscape:persp3d-origin="0.5 : 0.33333333 : 1"
       inkscape:vp_z="1 : 0.5 : 1"
       inkscape:vp_y="0 : 1000 : 0"
       inkscape:vp_x="0 : 0.5 : 1"
       sodipodi:type="inkscape:persp3d" />
  </defs>
  <sodipodi:namedview
     id="base"
     pagecolor="#ffffff"
     bordercolor="#666666"
     borderopacity="1.0"
     inkscape:pageopacity="0.0"
     inkscape:pageshadow="2"
     inkscape:zoom="2.7514854"
     inkscape:cx="125.45906"
     inkscape:cy="149.55558"
     inkscape:document-units="px"
     inkscape:current-layer="layer1"
     showgrid="false"
     inkscape:window-width="2057"
     inkscape:window-height="1071"
     inkscape:window-x="50"
     inkscape:window-y="26"
     inkscape:window-maximized="0" />
  <metadata
     id="metadata7">
    <rdf:RDF>
      <cc:Work
         rdf:about="">
        <dc:format>image/svg+xml</dc:format>
        <dc:type
           rdf:resource="http://purl.org/dc/dcmitype/StillImage" />
        <dc:title></dc:title>
      </cc:Work>
    </rdf:RDF>
  </metadata>
  <g
     inkscape:label="Layer 1"
     inkscape:groupmode="layer"
     id="layer1"
     transform="translate(-220.20124,-333.50193)">
    <path
       style="fill:#000000"
       d="m 225.27123,630.74771 c -1.42924,-1.57929 -1.65499,-4.68935 -1.65499,-22.8 0,-14.97765 0.34296,-21.31422 1.2,-22.17126 1.64034,-1.64034 20.95966,-1.64034 22.6,0 0.77007,0.77007 1.2,4.71111 1.2,11 l 0,9.8 18.5,0 18.5,0 0,-12.5 0,-12.5 13,0 13,0 0,23.32569 c 0,23.08909 -0.0235,23.34774 -2.31445,25.5 -2.29673,2.15766 -2.62101,2.17431 -42.34501,2.17431 -37.51097,0 -40.13473,-0.1151 -41.68555,-1.82874 z m 36.49007,-55.6114 -5.14506,-5.44014 0,-46.55986 0,-46.55986 7.25,-0.002 7.25,-0.002 14.83987,-19.49804 14.83988,-19.49796 26.67672,0 26.67672,0 22.23341,28.42498 22.2334,28.42498 0,38.78717 0,38.78717 -4.20821,4.28785 -4.20821,4.28785 -38.79179,0 -38.79179,0 0,-36.5 0,-36.5 -14,0 -14,0 0,36.5 0,36.5 -8.85494,0 -8.85495,0 -5.14505,-5.44014 z m 51.85494,-91.05986 0,-12.5 -14.5,0 -14.5,0 0,12.5 0,12.5 14.5,0 14.5,0 0,-12.5 z m 62.41464,-25.75 c -26.23019,-33.6875 -47.8848,-61.46828 -48.12134,-61.73506 -0.23655,-0.26678 -1.18681,0.48444 -2.11169,1.66939 -0.92489,1.18495 -14.28161,18.37214 -29.68161,38.19376 l -28,36.0393 -23.86869,0.0413 -23.86869,0.0413 2.83161,-3.75 c 16.97706,-22.48333 103.81389,-134.82104 104.38521,-135.03943 0.99559,-0.38058 0.20296,-1.40847 130.3498,169.03943 l 12.78959,16.75 -23.50646,0 -23.50646,0 -47.69127,-61.25 z m 35.80842,-22.93002 -20.22306,-26.18003 0,-17.31997 0,-17.31998 20.5,0 20.5,0 0,43.5 c 0,23.925 -0.12463,43.5 -0.27694,43.5 -0.15232,0 -9.37732,-11.78101 -20.5,-26.18002 z m 21.77694,-61.75259 c 0,-0.51294 0.93105,-1.22812 2.069,-1.58929 1.13794,-0.36117 2.93626,-2.07899 3.99626,-3.81739 3.6029,-5.90875 2.05904,-10.91912 -4.67636,-15.17653 -5.60946,-3.54571 -4.91736,-4.56996 0.81714,-1.20932 5.71408,3.34867 7.76452,5.76889 8.44616,9.96932 0.50556,3.11539 0.0878,3.99205 -3.87133,8.12403 -4.19287,4.37592 -6.78087,5.78776 -6.78087,3.69918 z m -6.19321,-30.20435 c 0.35362,-2.40931 0.66175,-2.77719 1.32841,-1.58594 0.47739,0.85306 0.59413,2.26469 0.25941,3.13696 -1.0475,2.72972 -2.06956,1.73134 -1.58782,-1.55102 z"
       id="path2892" />
    <path
       style="fill:#94ca02;fill-opacity:1;stroke:none"
       d="M 170.17185,143.61607 C 152.01044,120.30062 130.45981,92.625796 122.28157,82.116457 l -14.86954,-19.107892 -0.85681,0.771428 c -0.47125,0.424284 -13.820915,17.451684 -29.665925,37.838667 l -28.809112,37.06725 -24.050709,0.23276 c -13.227889,0.12802 -24.12055681,0.16291 -24.20592822,0.0775 C -0.47739486,138.69526 57.664489,63.156582 101.61658,6.7453913 c 2.9878,-3.8347453 5.54829,-6.98008427 5.68999,-6.98964199 0.4728,-0.0318921 2.11261,1.91422939 9.35713,11.10501469 5.25385,6.66532 125.58121,163.827046 133.05491,173.785416 l 1.02189,1.36162 -23.77395,0 -23.77396,0 -33.02074,-42.39173 0,0 z"
       id="path2895"
       transform="translate(220.37886,333.74656)" />
    <path
       style="fill:#454449;fill-opacity:1;stroke:none"
       d="M 209.53012,125.09806 C 204.33643,118.5383 189.79389,99.896185 180.99271,88.515904 l -9.82833,-12.70844 -0.0143,-17.519493 -0.0143,-17.519492 20.6966,0 20.6966,0 0,30.259329 c 0,33.116662 -0.31868,56.521162 -0.7696,56.521162 -0.15882,0 -1.16199,-1.10291 -2.22927,-2.45091 z"
       id="path2981"
       transform="translate(220.37886,333.74656)" />
    <path
       style="fill:#454449;fill-opacity:1;stroke:none"
       d="m 213.30264,40.49404 c -0.47263,-0.88311 -0.17244,-1.28812 1.63304,-2.203293 3.20888,-1.626527 5.94457,-6.121122 5.94457,-9.766592 0,-3.233729 -2.05754,-5.965951 -7.27641,-9.662413 -1.45691,-1.031911 -2.71686,-2.080444 -2.79989,-2.330074 -0.29431,-0.884845 1.38386,-0.441523 4.12347,1.089295 6.11413,3.416403 8.77949,6.608527 9.12638,10.930074 0.23268,2.898618 -0.26681,3.908466 -3.68141,7.4429 -4.37661,4.530219 -6.37341,5.801238 -7.06975,4.500103 z"
       id="path2983"
       transform="translate(220.37886,333.74656)" />
    <path
       style="fill:#454449;fill-opacity:1;stroke:none"
       d="m 206.84847,12.259385 c -0.30708,-0.800244 0.21617,-4.4789422 0.67764,-4.7641491 1.1347,-0.7012858 1.88303,3.3400681 0.86645,4.6792521 -0.59329,0.78156 -1.26264,0.818361 -1.54409,0.0849 z"
       id="path2985"
       transform="translate(220.37886,333.74656)" />
    <path
       style="fill:#454449;fill-opacity:1;stroke:none"
       d="m 41.222151,241.59071 -5.158931,-5.4176 0,-46.68701 0,-46.687 7.200253,0 7.200252,0 14.857969,-19.58433 14.857969,-19.58433 26.869277,-0.0147 26.86927,-0.0148 22.22364,28.40421 22.22365,28.40421 0.0161,39.02761 0.0161,39.02761 -4.26073,4.27186 -4.26073,4.27186 -38.94797,0 -38.947963,0 0,-36.49138 0,-36.49138 -13.797735,0 -13.797735,0 0,36.49138 0,36.49138 -9.001903,0 -9.001903,0 -5.15893,-5.4176 0,0 z m 51.847501,-91.16655 0,-12.34534 -14.342382,0 -14.342383,0 0,12.34534 0,12.34535 14.342383,0 14.342382,0 0,-12.34535 z"
       id="path2987"
       transform="translate(220.37886,333.74656)" />
    <path
       style="fill:#454449;fill-opacity:1;stroke:none"
       d="m 9.920143,298.54919 c -5.6471653,-0.51402 -6.0342432,-0.98092 -6.5396676,-7.8883 -0.6706103,-9.16489 -0.2998168,-34.51514 0.5546428,-37.91958 0.1972735,-0.786 0.572724,-1.03957 2.1139308,-1.42772 2.6155582,-0.65872 16.806271,-0.65935 19.385977,-8.6e-4 1.717625,0.43844 1.937307,0.61123 2.303547,1.81188 0.225037,0.73773 0.491044,5.39926 0.598917,10.49545 l 0.194066,9.16823 18.289765,0 18.289763,0 0,-12.52689 0,-12.52689 13.08677,0 13.086774,0 -0.10601,22.96596 c -0.100349,21.74042 -0.142945,23.04036 -0.798177,24.35999 -1.125467,2.26668 -2.769554,3.09434 -6.955064,3.50129 -4.257241,0.41392 -68.941115,0.40287 -73.505234,-0.0126 z"
       id="path2989"
       transform="translate(220.37886,333.74656)" />
  </g>
</svg>
