<?xml version="1.0" encoding="UTF-8" standalone="no"?>
<!-- Created with Inkscape (http://www.inkscape.org/) -->

<svg
   xmlns:dc="http://purl.org/dc/elements/1.1/"
   xmlns:cc="http://creativecommons.org/ns#"
   xmlns:rdf="http://www.w3.org/1999/02/22-rdf-syntax-ns#"
   xmlns:svg="http://www.w3.org/2000/svg"
   xmlns="http://www.w3.org/2000/svg"
   xmlns:sodipodi="http://sodipodi.sourceforge.net/DTD/sodipodi-0.dtd"
   xmlns:inkscape="http://www.inkscape.org/namespaces/inkscape"
   width="251.18623"
   height="291.47729"
   id="svg2910"
   version="1.1"
   inkscape:version="0.47 r22583"
   sodipodi:docname="logo-jeedom-petit-nom-noir.svg">
  <defs
     id="defs2912">
    <inkscape:perspective
       sodipodi:type="inkscape:persp3d"
       inkscape:vp_x="0 : 526.18109 : 1"
       inkscape:vp_y="0 : 1000 : 0"
       inkscape:vp_z="744.09448 : 526.18109 : 1"
       inkscape:persp3d-origin="372.04724 : 350.78739 : 1"
       id="perspective2917" />
    <inkscape:perspective
       id="perspective2987"
       inkscape:persp3d-origin="0.5 : 0.33333333 : 1"
       inkscape:vp_z="1 : 0.5 : 1"
       inkscape:vp_y="0 : 1000 : 0"
       inkscape:vp_x="0 : 0.5 : 1"
       sodipodi:type="inkscape:persp3d" />
  </defs>
  <sodipodi:namedview
     id="base"
     pagecolor="#ffffff"
     bordercolor="#666666"
     borderopacity="1.0"
     inkscape:pageopacity="0.0"
     inkscape:pageshadow="2"
     inkscape:zoom="2.752381"
     inkscape:cx="118.32353"
     inkscape:cy="150.62187"
     inkscape:document-units="px"
     showgrid="false"
     inkscape:window-width="2095"
     inkscape:window-height="1115"
     inkscape:window-x="20"
     inkscape:window-y="20"
     inkscape:window-maximized="0"
     inkscape:current-layer="svg2910" />
  <metadata
     id="metadata2915">
    <rdf:RDF>
      <cc:Work
         rdf:about="">
        <dc:format>image/svg+xml</dc:format>
        <dc:type
           rdf:resource="http://purl.org/dc/dcmitype/StillImage" />
        <dc:title />
      </cc:Work>
    </rdf:RDF>
  </metadata>
  <path
     style="fill:#000000"
     d="M 12.654988,289.64856 C 11.294053,288.14474 11,285.51513 11,274.84856 c 0,-8.75542 0.390016,-13.36128 1.2,-14.17126 0.671038,-0.67104 3.888889,-1.2 7.3,-1.2 3.411111,0 6.628962,0.52896 7.3,1.2 0.66,0.66 1.2,3.81 1.2,7 l 0,5.8 18.5,0 18.499999,0 0,-12.5 0,-12.5 9,0 9,0 0,19.32569 c 0,18.90794 -0.05,19.37268 -2.31445,21.5 -2.27685,2.13899 -2.83479,2.17431 -34.345013,2.17431 -29.760695,0 -32.147843,-0.12959 -33.685548,-1.82874 z M 41.145057,242.03716 36,236.59702 l 0,-46.55986 0,-46.55986 7.25,-0.0285 7.25,-0.0285 14.787019,-19.47147 14.78702,-19.47153 26.801061,0 26.80107,0 22.13663,28.25 22.13664,28.25 0.0253,38.96215 0.0253,38.96215 -4.20821,4.28785 -4.20821,4.28785 -43.29179,0 -43.291791,0 0,-36.5 0,-36.5 -9.5,0 -9.5,0 0,36.5 0,36.5 -8.854942,0 -8.854943,0 -5.145057,-5.44014 z m 41.854942,-87.05986 0,-8.5 -9.5,0 -9.5,0 0,8.5 0,8.5 9.5,0 9.5,0 0,-8.5 z M 156.5,127.3776 C 131.2,94.9049 109.77425,67.40333 108.88721,66.262995 108.00018,65.12266 106.83586,64.46071 106.29983,64.791993 105.7638,65.123277 92.356279,82.062996 76.505339,102.43581 l -28.819898,37.04149 -23.842721,0 C 10.729224,139.4773 0,139.2347 0,138.93818 0,138.2149 105.87795,0.67076525 106.93996,0.01440725 c 0.45819,-0.283176 3.97551,3.64263105 7.81626,8.72401405 3.84076,5.0813827 10.78239,14.1888787 15.42584,20.2388787 17.19812,22.407576 84.49086,110.35267 92.2027,120.5 17.2724,22.72722 21.08865,27.67541 24.87252,32.25 l 3.92896,4.75 -24.34312,-0.0292 -24.34312,-0.0292 -46,-59.04127 z M 191.25,102.45615 171,76.205774 l 0,-17.364237 0,-17.364237 20.48244,0 20.48244,0 4.65487,-4.460148 c 4.29536,-4.115675 4.60871,-4.74462 4.05716,-8.143396 C 219.99259,24.656775 217.04476,21.10733 212,18.425982 c -1.925,-1.02316 -2.91957,-1.880178 -2.21016,-1.904486 2.09113,-0.07165 8.52677,3.564619 10.99976,6.21509 1.25928,1.349657 2.54433,4.023636 2.85567,5.942175 0.47745,2.942206 0.0567,4.06842 -2.68805,7.194479 -1.78976,2.038424 -4.53253,4.367326 -6.09506,5.175338 l -2.84095,1.469112 -0.2606,43.094421 L 211.5,128.70653 191.25,102.45615 z m 15.54776,-92.05428 c 0.29313,-1.9972117 0.79312,-2.7336847 1.42615,-2.1006627 1.04238,1.042387 0.14945,5.1760927 -1.1181,5.1760927 -0.41769,0 -0.5563,-1.383943 -0.30805,-3.07543 z"
     id="path2993" />
  <path
     style="fill:#94ca02;fill-opacity:1;stroke:none"
     d="M 196.13905,177.91242 C 192.58594,173.36636 172.4302,147.4933 151.34852,120.41675 130.26683,93.34019 112.05952,69.960431 110.88782,68.461729 108.99767,66.044073 107.29414,64.472761 106.55706,64.4671 106.02113,64.463 84.078829,92.22542 57.939446,125.98042 L 47.584775,139.35188 24.271549,139.23985 C 11.449275,139.17825 0.849562,139.01902 0.716631,138.88605 0.434252,138.60358 7.841482,128.76993 35.017369,93.34927 80.535529,34.021551 106.40612,0.76256325 107.17116,0.58901525 c 0.77714,-0.176292 4.72564,4.80355105 29.76166,37.53534375 12.83893,16.785467 41.78987,54.634511 64.33541,84.109001 22.54555,29.47448 42.70464,55.71539 44.79797,58.31314 2.09334,2.59776 3.96732,4.92756 4.16442,5.17734 0.28592,0.36236 -4.49171,0.45415 -23.63651,0.45415 l -23.99486,0 -6.4602,-8.26557 0,0 z"
     id="path2997" />
  <path
     style="fill:#454449;fill-opacity:1"
     d="m 41.276635,241.85706 -5.112822,-5.359 -0.01184,-46.41436 -0.01184,-46.41436 7.212575,0 7.212576,0 14.697375,-19.34688 14.69738,-19.34689 26.866001,-0.0891 26.86599,-0.0891 22.0718,28.17834 22.0718,28.17833 0,38.70791 0,38.70791 -4.04589,4.32312 -4.04588,4.32312 -43.36761,0 -43.367611,0 0,-36.51384 0,-36.51384 -9.62803,0 -9.62802,0 0,36.51384 0,36.51384 -8.681568,0 -8.681569,0 -5.112822,-5.35899 z m 41.732014,-86.92474 0,-8.71973 -9.62803,0 -9.62802,0 0,8.71973 0,8.71972 9.62802,0 9.62803,0 0,-8.71972 z"
     id="path2999" />
  <path
     style="fill:#454449;fill-opacity:1"
     d="m 16.534809,290.79024 c -3.009529,-0.39956 -4.064512,-1.18498 -4.6508,-3.46246 -1.07134,-4.16171 -0.86717,-23.80448 0.269504,-25.92837 0.602139,-1.12511 2.795021,-1.6109 7.273822,-1.61139 5.309984,-5.8e-4 7.039031,0.46428 7.649797,2.05663 0.249402,0.65022 0.525862,3.57161 0.618418,6.5349 l 0.167386,5.359 18.671473,0 18.67147,0 0,-12.53461 0,-12.5346 8.71973,0 8.71972,0 -0.009,17.8936 c -0.005,10.96042 -0.15409,18.52709 -0.38364,19.52855 -0.44529,1.94267 -2.11551,3.81873 -3.95122,4.43817 -1.5511,0.5234 -57.993661,0.76152 -61.766778,0.26058 l 1.8e-5,0 z"
     id="path3001" />
  <path
     style="fill:#454449;fill-opacity:1"
     d="m 191.19072,102.05707 -19.88887,-25.783922 -0.003,-17.348616 -0.003,-17.348616 20.37364,0 20.37364,0 3.44735,-3.179066 c 1.89605,-1.748486 3.94199,-3.914792 4.54653,-4.814014 1.00753,-1.498632 1.08125,-1.8141 0.88423,-3.783668 -0.25667,-2.565793 -1.46428,-5.354149 -3.15694,-7.289354 -0.67919,-0.776511 -2.70634,-2.361199 -4.50478,-3.52153 -3.37701,-2.178799 -3.54108,-2.748209 -0.36333,-1.260925 7.96165,3.726283 12.0786,9.644694 10.17549,14.627944 -0.81996,2.147032 -5.68753,6.986589 -8.75628,8.705898 l -2.21402,1.24043 -0.2384,5.508057 c -0.13113,3.029431 -0.26114,17.539805 -0.28892,32.245273 -0.0278,14.705469 -0.1504,31.473209 -0.27249,37.261629 l -0.22198,10.52441 -19.88887,-25.78393 z"
     id="path3003" />
  <path
     style="fill:#454449;fill-opacity:1"
     d="m 216.05319,38.067493 c 4.64676,-4.535511 5.17591,-5.431969 4.91363,-8.324447 -0.10602,-1.169207 -0.39123,-2.364966 -0.63379,-2.657241 -0.24257,-0.292275 -0.33595,-0.53141 -0.2075,-0.53141 0.12844,0 -0.11388,-0.694853 -0.53849,-1.544118 -0.87313,-1.74634 -3.56574,-4.698023 -4.02612,-4.413495 -0.16672,0.103042 -0.30313,0.03593 -0.30313,-0.149135 0,-0.185066 -0.66898,-0.779194 -1.48663,-1.320285 -2.39772,-1.586737 -1.30796,-1.52482 1.3918,0.07908 6.40699,3.806326 9.44701,9.278891 7.46943,13.446316 -0.7982,1.682084 -5.16986,6.049731 -7.80587,7.798697 -1.12941,0.749351 -2.17906,1.362457 -2.33256,1.362457 -0.1535,0 1.44815,-1.685888 3.55923,-3.746418 z"
     id="path3005" />
  <path
     style="fill:#454449;fill-opacity:1"
     d="m 206.90138,11.681854 c 0,-1.7337897 0.59039,-3.4206447 1.08929,-3.1123077 0.79573,0.491787 0.15639,4.5419427 -0.71697,4.5419427 -0.20477,0 -0.37232,-0.643336 -0.37232,-1.429635 z"
     id="path3007" />
  <flowRoot
     xml:space="preserve"
     id="flowRoot3030"
     style="font-size:48px;font-style:normal;font-variant:normal;font-weight:normal;font-stretch:normal;fill:#000000;fill-opacity:1;stroke:none;font-family:Arial Black;-inkscape-font-specification:'Arial Black,'"
     transform="translate(-39.176471,-12.5227)"><flowRegion
       id="flowRegion3032"><rect
         id="rect3034"
         width="176.93771"
         height="47.231834"
         x="126.79931"
         y="262.68167"
         style="font-size:48px" /></flowRegion><flowPara
       id="flowPara3036">E</flowPara></flowRoot>  <text
     xml:space="preserve"
     style="font-size:40px;font-style:normal;font-variant:normal;font-weight:normal;font-stretch:normal;fill:#94ca02;fill-opacity:1;stroke:none;font-family:Arial Black;-inkscape-font-specification:'Arial Black,'"
     x="90.892731"
     y="283.22125"
     id="text3038"><tspan
       sodipodi:role="line"
       id="tspan3040"
       x="90.892731"
       y="283.22125">EEDOM</tspan></text>
  <path
     style="fill:#000000;fill-opacity:1;stroke:none"
     d="M 156.50917,126.74038 C 131.09582,94.118621 109.59185,66.73324 108.72256,65.883975 c -0.86928,-0.849264 -1.75314,-1.544117 -1.96414,-1.544117 -0.74094,0 -6.899749,7.672419 -33.407318,41.617622 -10.774421,13.79756 -20.97956,26.90958 -22.678089,29.13783 l -3.088236,4.05135 -11.657878,0.0188 c -15.06341,0.0242 -34.665651,-0.38694 -34.665651,-0.72711 0,-1.12636 92.554597,-121.54687 103.232682,-134.3135055 l 2.80632,-3.35520149 2.0539,2.26523619 c 2.24483,2.4757986 24.79043,31.7180618 64.49308,83.6493188 29.91105,39.123792 71.66124,93.514522 74.18339,96.643602 l 1.7571,2.17993 -1.73296,0.24066 c -0.95312,0.13236 -11.54443,0.25499 -23.53623,0.27249 l -21.80326,0.0318 -46.2061,-59.31228 z"
     id="path2825" />
  <path
     style="fill:#000000;fill-opacity:1;stroke:none"
     d="M 180.01557,157.2596 C 99.679703,54.117734 107.98168,64.613083 106.85855,64.774594 c -0.46631,0.06706 -2.1712,1.818171 -4.35211,4.470108 -4.162196,5.061142 -23.994461,30.312199 -42.161071,53.680798 l -12.63938,16.25865 -22.586557,-0.043 C 12.696825,139.11752 2.0634664,138.9949 1.4897456,138.86867 0.45072261,138.64007 0.48508396,138.5884 10.219685,125.74124 32.369282,96.5095 95.257426,14.957033 106.83431,0.45274806 c 0.49692,-0.62257364 3.63999,3.08248244 13.20434,15.56530994 8.3015,10.834637 92.20752,120.491322 108.83817,142.240482 6.57036,8.59256 14.20077,18.44313 16.95647,21.89014 l 5.01036,6.2673 -24.06023,-0.001 -24.06023,-0.001 -22.70762,-29.15392 z"
     id="path2827" />
  <path
     style="fill:#000000;fill-opacity:1;stroke:none"
     d="m 41.317476,241.94905 -5.177335,-5.50431 0,-46.45036 0,-46.45037 7.248894,0 7.248894,0 14.761454,-19.43772 14.761455,-19.43771 26.765602,0.0164 26.7656,0.0164 22.0718,28.2118 22.0718,28.21181 0,38.89001 0,38.89002 -4.26335,4.27449 -4.26335,4.27448 -43.15014,0 -43.150147,0 0,-36.51384 0,-36.51384 -9.628028,0 -9.628028,0 0,36.51384 0,36.51384 -8.628892,-3.4e-4 -8.628893,-3.4e-4 -5.177336,-5.50431 z m 41.691177,-86.9604 0,-8.53807 -9.628028,0 -9.628028,0 0,8.53807 0,8.53806 9.628028,0 9.628028,0 0,-8.53806 z"
     id="path2829" />
  <path
     style="fill:#000000;fill-opacity:1;stroke:none"
     d="m 152.03979,268.85604 0,-14.20355 8.44724,0.12668 c 8.18762,0.12279 8.50871,0.15547 10.44771,1.06329 5.00153,2.34167 7.17257,6.96834 6.82926,14.5537 -0.2447,5.40647 -1.89022,8.74674 -5.29064,10.73951 -2.67357,1.56682 -5.02679,1.91203 -13.0763,1.91824 l -7.35727,0.006 0,-14.20354 z m 14.53288,7.39069 c 2.02373,-1.01097 2.70919,-2.82633 2.70919,-7.17504 0,-5.97745 -1.37287,-7.78816 -6.13676,-8.09388 l -2.7489,-0.17642 0,8.04086 0,8.04086 2.45242,-5.8e-4 c 1.60675,-3.6e-4 2.89091,-0.21962 3.72405,-0.63581 l 0,1e-5 z"
     id="path2831" />
  <path
     style="fill:#000000;fill-opacity:1;stroke:none"
     d="m 122.97405,268.89003 0,-14.16955 11.6263,0 11.6263,0 0,2.90657 0,2.90658 -7.4647,0 -7.4647,0 0.10743,2.45242 0.10743,2.45242 6.81229,0.0989 6.81228,0.0988 0,2.71689 0,2.7169 -6.90311,0 -6.90312,0 0,2.90658 0,2.90657 7.62976,0 7.62976,0 0,3.08824 0,3.08823 -11.80796,0 -11.80796,0 0,-14.16955 z"
     id="path2833" />
  <path
     style="fill:#000000;fill-opacity:1;stroke:none"
     d="m 93.908307,268.89003 0,-14.16955 11.807963,0 11.80795,0 0,2.90657 0,2.90658 -7.44809,0 -7.4481,0 0,2.54325 0,2.54325 6.90311,0 6.90312,0 0,2.72492 0,2.72491 -6.90312,0 -6.90311,0 0,2.90658 0,2.90657 7.62976,0 7.62976,0 0,3.08824 0,3.08823 -11.98962,0 -11.989623,0 0,-14.16955 z"
     id="path2835" />
  <path
     style="fill:#000000;fill-opacity:1;stroke:none"
     d="m 191.18772,102.08245 -19.89187,-25.795064 0,-17.418402 0,-17.4184 20.43685,-0.001 20.43685,-0.001 3.32286,-3.081744 c 1.82757,-1.694935 3.84428,-3.860789 4.48159,-4.812985 1.06122,-1.585572 1.13971,-1.899154 0.9327,-3.726301 -0.49618,-4.379634 -2.8463,-7.631756 -7.92404,-10.965383 -1.55605,-1.021578 -2.74043,-1.946165 -2.63196,-2.054637 0.10847,-0.108472 1.7883,0.605389 3.73295,1.586357 4.55992,2.300228 7.63709,5.20366 8.75956,8.264993 0.92959,2.535328 0.97543,4.245745 0.16126,6.017103 -0.88854,1.933126 -6.46789,7.324734 -8.87227,8.573711 l -2.03391,1.056527 -0.23583,6.747802 c -0.12971,3.71129 -0.25847,18.437681 -0.28613,32.725311 -0.0277,14.28763 -0.15074,30.504666 -0.27352,36.037856 l -0.22322,10.06034 -19.89187,-25.79505 z"
     id="path2837" />
  <path
     style="fill:#000000;fill-opacity:1;stroke:none"
     d="m 21.607269,291.06299 c -9.261217,-0.33254 -9.609401,-0.59296 -10.228089,-7.65005 -0.418902,-4.77822 -0.17148,-17.80317 0.392796,-20.67785 0.174186,-0.88738 0.596478,-1.81799 0.938427,-2.06803 1.549089,-1.13272 11.62656,-1.17234 13.335764,-0.0524 1.27035,0.83236 1.737572,3.16007 1.737572,8.6566 l 0,4.34197 18.711073,0 18.711073,0 0,-12.5346 0,-12.5346 8.734935,0 8.734932,0 -0.106039,19.01064 -0.106043,19.01064 -0.902062,1.31602 c -1.74841,2.55075 -2.860586,2.87875 -10.868768,3.20532 -8.143844,0.3321 -39.600054,0.31696 -49.085571,-0.0236 z"
     id="path2839" />
  <path
     style="fill:#000000;fill-opacity:1;stroke:none"
     d="m 191.01915,282.91359 c -5.91592,-1.91755 -9.18697,-6.83244 -9.18697,-13.80384 0,-7.53142 3.30705,-12.43234 9.60013,-14.22702 3.36231,-0.95887 9.12566,-0.61193 12.10265,0.72856 5.63498,2.53734 8.45349,8.57369 7.41896,15.88905 -0.7552,5.3402 -3.11469,8.83725 -7.26867,10.77304 -1.8228,0.84945 -2.55936,0.96634 -6.59355,1.04637 -3.07558,0.061 -5.03572,-0.0701 -6.07255,-0.40616 z m 8.87679,-6.68426 c 1.59301,-1.13432 2.34275,-3.01512 2.54976,-6.39636 0.3647,-5.95689 -1.71664,-9.01986 -6.12916,-9.01986 -2.32534,0 -3.88665,0.96701 -4.97457,3.08103 -0.73075,1.41999 -0.87654,2.2341 -0.87637,4.89374 2.7e-4,4.45603 1.05247,6.82613 3.53786,7.96912 1.53976,0.70811 4.53349,0.44002 5.89248,-0.52767 l 0,0 z"
     id="path2843" />
  <path
     style="fill:#000000;fill-opacity:1;stroke:none"
     d="m 215.98443,268.89003 0,-14.16955 5.81315,0 c 3.19723,0 5.81315,0.0759 5.81315,0.16856 0,0.21772 3.98021,15.83723 4.20596,16.50541 0.0941,0.27839 0.25611,0.42105 0.36013,0.31704 0.10402,-0.10402 1.00715,-3.35645 2.00696,-7.22761 0.99981,-3.87117 1.97987,-7.65159 2.17792,-8.40094 l 0.36008,-1.36246 5.61749,0 5.61748,0 0,14.16955 0,14.16955 -3.45156,0 -3.45155,0 -0.0287,-10.80882 c -0.0158,-5.94486 -0.12649,-10.56358 -0.24604,-10.26384 -0.11954,0.29974 -1.39025,5.12283 -2.8238,10.71799 l -2.60644,10.17301 -3.23316,0.10138 -3.23315,0.10139 -2.72492,-10.73448 -2.72491,-10.73448 -0.0962,10.72393 -0.0962,10.72392 -3.62781,0 -3.62781,0 0,-14.16955 z"
     id="path2845" />
  <path
     style="fill:#000000;fill-opacity:1;stroke:none"
     d="m 93.908306,268.89002 0,-14.16955 11.807954,0 11.80796,0 0,2.90658 0,2.90657 -7.44809,0 -7.4481,0 0,2.3616 0,2.36159 6.90311,0 6.90312,0 0,2.90657 0,2.90658 -6.90312,0 -6.90311,0 0,2.90657 0,2.90657 7.62976,0 7.62975,0 0,3.08824 0,3.08823 -11.98962,0 -11.989614,0 0,-14.16955 z"
     id="path2838" />
  <path
     style="fill:#000000;fill-opacity:1;stroke:none"
     d="m 93.908306,268.89002 0,-14.16955 11.807954,0 11.80796,0 0,2.90658 0,2.90657 -7.44809,0 -7.4481,0 0,2.3616 0,2.36159 6.90311,0 6.90312,0 0,2.90657 0,2.90658 -6.90312,0 -6.90311,0 0,2.90657 0,2.90657 7.62976,0 7.62975,0 0,3.08824 0,3.08823 -11.98962,0 -11.989614,0 0,-14.16955 z"
     id="path2840" />
  <path
     style="fill:#000000;fill-opacity:1;stroke:none"
     d="m 122.97405,268.89002 0,-14.16955 11.6263,0 11.62629,0 0,2.90658 0,2.90657 -7.44809,0 -7.4481,0 0,2.3616 0,2.36159 6.90311,0 6.90312,0 0,2.90657 0,2.90658 -6.90312,0 -6.90311,0 0,2.90657 0,2.90657 7.62976,0 7.62976,0 0,3.08824 0,3.08823 -11.80796,0 -11.80796,0 0,-14.16955 z"
     id="path2842" />
  <path
     style="fill:#000000;fill-opacity:1;stroke:none"
     d="m 152.03979,268.8858 0,-14.23231 8.62889,0.13193 c 8.58015,0.13118 8.64064,0.13765 10.70837,1.14529 4.28593,2.0886 6.1007,5.58144 6.37266,12.26528 0.24983,6.13972 -0.9218,9.61228 -4.13744,12.26288 -2.56904,2.11762 -3.8096,2.3553 -13.12525,2.5147 l -8.44723,0.14455 0,-14.23232 z m 14.38533,7.30584 c 2.07636,-0.94299 2.69324,-2.6027 2.68282,-7.21814 -0.0135,-5.96039 -1.25427,-7.55674 -6.19575,-7.97101 l -2.516,-0.21093 0,8.04577 0,8.04577 2.27076,-0.008 c 1.42264,-0.005 2.82631,-0.26028 3.75817,-0.68349 l 0,0 z"
     id="path2844" />
  <path
     style="fill:#000000;fill-opacity:1;stroke:none"
     d=""
     id="path2846" />
  <path
     style="fill:#000000;fill-opacity:1;stroke:none"
     d="m 215.98443,268.89002 0,-14.16955 5.79914,0 5.79915,0 0.35099,1.36246 c 0.19304,0.74935 1.10567,4.30536 2.02806,7.90225 1.95223,7.61283 2.03543,7.90592 2.19797,7.74338 0.0675,-0.0676 0.88327,-3.06365 1.81273,-6.65801 0.92947,-3.59436 1.9336,-7.39354 2.2314,-8.44264 l 0.54146,-1.90744 5.60571,0 5.60571,0 0,14.16955 0,14.16955 -3.45156,0 -3.45156,0 0,-10.41522 c 0,-5.72837 -0.1057,-10.30953 -0.23488,-10.18034 -0.12919,0.12918 -1.41241,4.77516 -2.85161,10.32439 l -2.61672,10.08951 -3.24769,0.10345 -3.2477,0.10344 -2.71125,-10.63978 -2.71126,-10.63977 -0.0963,10.62716 -0.0963,10.62716 -3.62773,0 -3.62773,0 0,-14.16955 z"
     id="path2848" />
  <path
     style="fill:#000000;fill-opacity:1;stroke:none"
     d="m 215.98443,268.89002 0,-14.16955 5.78866,0 c 5.19758,0 5.8083,0.0649 5.98088,0.63582 0.10572,0.3497 1.02477,3.90571 2.04233,7.90225 1.01757,3.99654 1.94209,7.51168 2.0545,7.81142 0.28442,0.75838 0.63891,-0.34732 2.85383,-8.90139 l 1.88152,-7.26643 5.6853,-0.10006 5.6853,-0.10006 0,14.17878 0,14.17877 -3.45156,0 -3.45156,0 0,-10.06401 c 0,-6.2019 -0.12952,-9.93156 -0.33752,-9.71886 -0.18563,0.18984 -1.4575,4.67777 -2.82636,9.97319 l -2.48885,9.62802 -3.28913,0.10366 -3.28913,0.10366 -2.47393,-9.73169 c -1.36066,-5.35242 -2.60395,-10.05867 -2.76286,-10.45832 -0.15891,-0.39966 -0.29929,3.97383 -0.31196,9.71885 l -0.023,10.4455 -3.63321,0 -3.63322,0 0,-14.16955 z"
     id="path2850" />
  <path
     style="fill:#000000;fill-opacity:1;stroke:none"
     d="m 191.09689,282.93124 c -4.0603,-1.33713 -6.81912,-3.83697 -8.21959,-7.44798 -1.09405,-2.82092 -1.34122,-8.14054 -0.52669,-11.33555 1.18334,-4.64165 4.409,-7.93241 9.0817,-9.26499 3.36231,-0.95887 9.12566,-0.61193 12.10265,0.72856 2.60312,1.17215 5.22365,3.73712 6.29693,6.16344 1.16643,2.63692 1.62798,6.67565 1.1294,9.88265 -0.81856,5.26522 -2.91757,8.43519 -6.87647,10.38498 -2.31714,1.14121 -2.65313,1.20294 -6.98444,1.28318 -3.0015,0.0556 -5.04485,-0.0786 -6.00349,-0.39429 z m 8.57616,-6.61282 c 1.81096,-0.93649 2.66116,-3.29734 2.67513,-7.4284 0.0135,-3.99939 -0.66595,-5.78358 -2.74484,-7.20743 -1.04878,-0.71832 -1.58841,-0.82784 -3.49904,-0.71017 -2.59818,0.16002 -3.75036,0.95946 -4.8657,3.37608 -0.77824,1.68622 -0.92918,6.37839 -0.28036,8.71548 0.43965,1.58368 2.38217,3.6655 3.67996,3.94389 1.30887,0.28075 3.82495,-0.0638 5.03485,-0.68945 z"
     id="path2852" />
  <path
     style="fill:#000000;fill-opacity:1;stroke:none"
     d="m 191.09689,282.93124 c -6.30761,-2.07721 -9.24998,-6.54653 -9.2604,-14.0661 -0.01,-7.21457 3.17155,-12.01202 9.17545,-13.83565 3.68517,-1.11934 9.32529,-0.8581 12.51868,0.57984 5.76271,2.59487 8.66206,9.02802 7.39314,16.40406 -0.87116,5.0639 -2.95779,8.11745 -6.86052,10.03959 -2.29199,1.12882 -2.64025,1.19247 -6.96286,1.27255 -3.0015,0.0556 -5.04485,-0.0786 -6.00349,-0.39429 z m 8.51561,-6.74191 c 1.54661,-1.08726 2.18097,-2.32352 2.55037,-4.97031 0.92466,-6.62514 -1.42508,-10.57231 -6.08538,-10.22246 -3.53912,0.26569 -5.1919,2.33304 -5.45159,6.81906 -0.29261,5.0547 1.111,8.19245 4.03707,9.02483 1.52089,0.43264 3.84228,0.12726 4.94953,-0.65112 l 0,0 z"
     id="path2854" />
  <path
     style="fill:#000000;fill-opacity:1;stroke:none"
     d="m 152.03979,268.85653 0,-14.20304 8.62889,0.12432 c 8.60877,0.12404 8.63375,0.12671 10.70864,1.1456 4.29864,2.1109 6.10054,5.5892 6.37348,12.30313 0.14588,3.58824 0.056,4.62455 -0.58343,6.72985 -1.25582,4.13451 -4.18758,6.84203 -8.34183,7.70379 -1.05893,0.21967 -5.26892,0.39939 -9.35553,0.39939 l -7.43022,0 0,-14.20304 z m 14.73323,7.13943 c 1.85656,-1.21647 2.16124,-2.19034 2.16124,-6.9083 0,-6.36391 -0.8661,-7.50504 -6.10347,-8.04163 l -2.4346,-0.24943 0,8.09569 0,8.0957 2.74867,-0.20788 c 1.56832,-0.11862 3.12635,-0.45535 3.62816,-0.78415 l 0,0 z"
     id="path2856" />
  <path
     style="fill:#000000;fill-opacity:1;stroke:none"
     d="m 152.03979,268.89002 0,-14.16955 7.61188,0 c 4.18653,0 8.44005,0.17762 9.45228,0.3947 3.59201,0.77035 6.95278,3.97823 8.09094,7.72288 0.27612,0.90846 0.45909,3.5377 0.45909,6.59696 0,4.40588 -0.10237,5.30774 -0.76503,6.73991 -1.58823,3.43252 -4.45251,5.73622 -8.06341,6.48526 -1.05893,0.21967 -5.26892,0.39939 -9.35553,0.39939 l -7.43022,0 0,-14.16955 z m 14.32857,7.27505 c 2.15991,-0.8212 3.10691,-4.46972 2.46509,-9.49723 -0.5264,-4.12344 -1.59193,-5.09029 -6.18211,-5.60961 l -2.25515,-0.25514 0,8.09218 0,8.09218 2.52078,-0.23428 c 1.38643,-0.12886 2.93956,-0.3935 3.45139,-0.5881 z"
     id="path2858" />
  <path
     style="fill:#000000;fill-opacity:1;stroke:none"
     d="m 122.97405,268.89002 0,-14.16955 11.6263,0 11.62629,0 0,2.90658 0,2.90657 -7.44809,0 -7.4481,0 0,2.3616 0,2.36159 6.90311,0 6.90312,0 0,2.90657 0,2.90658 -6.90312,0 -6.90311,0 0,2.90657 0,2.90657 7.62976,0 7.62976,0 0,3.08824 0,3.08823 -11.80796,0 -11.80796,0 0,-14.16955 z"
     id="path2860" />
  <path
     style="fill:#000000;fill-opacity:1;stroke:none"
     d="m 122.97405,268.89002 0,-14.16955 11.6263,0 11.62629,0 0,2.90658 0,2.90657 -7.44809,0 -7.4481,0 0,2.3616 0,2.36159 6.90311,0 6.90312,0 0,2.90657 0,2.90658 -6.90312,0 -6.90311,0 0,2.90657 0,2.90657 7.62976,0 7.62976,0 0,3.08824 0,3.08823 -11.80796,0 -11.80796,0 0,-14.16955 z"
     id="path2862" />
  <path
     style="fill:#000000;fill-opacity:1;stroke:none"
     d="m 93.908306,268.89002 0,-14.16955 11.807954,0 11.80796,0 0,2.90658 0,2.90657 -7.44809,0 -7.4481,0 0,2.3616 0,2.36159 6.90311,0 6.90312,0 0,2.90657 0,2.90658 -6.90312,0 -6.90311,0 0,2.90657 0,2.90657 7.62976,0 7.62975,0 0,3.08824 0,3.08823 -11.98962,0 -11.989614,0 0,-14.16955 z"
     id="path2864" />
  <path
     style="fill:#000000;fill-opacity:1;stroke:none"
     d="m 93.908306,268.89002 0,-14.16955 11.807954,0 11.80796,0 0,2.90658 0,2.90657 -7.44809,0 -7.4481,0 0,2.3616 0,2.36159 6.90311,0 6.90312,0 0,2.90657 0,2.90658 -6.90312,0 -6.90311,0 0,2.90657 0,2.90657 7.62976,0 7.62975,0 0,3.08824 0,3.08823 -11.98962,0 -11.989614,0 0,-14.16955 z"
     id="path2866" />
</svg>
