<?xml version="1.0" encoding="utf-8"?>
<!-- Generator: Adobe Illustrator 17.0.2, SVG Export Plug-In . SVG Version: 6.00 Build 0)  -->
<!DOCTYPE svg PUBLIC "-//W3C//DTD SVG 1.1//EN" "http://www.w3.org/Graphics/SVG/1.1/DTD/svg11.dtd">
<svg version="1.1" id="Capa_1" xmlns="http://www.w3.org/2000/svg" xmlns:xlink="http://www.w3.org/1999/xlink" x="0px" y="0px"
	 width="64px" height="64px" viewBox="0 0 64 64" enable-background="new 0 0 64 64" xml:space="preserve">
<path d="M11.94,40.275c-3.245,2.204-5.229,5.901-5.229,9.843c0,6.561,5.337,11.898,11.898,11.898c2.587,0,5.098-0.849,7.158-2.405
	c3.244,0.957,6.622,1.047,9.949,0.236c1.996,1.404,4.397,2.169,6.842,2.169c6.561,0,11.898-5.337,11.898-11.898
	c0-3.435-1.453-6.635-4.012-8.897c0-0.028,0-0.056,0-0.084c0-6.525-3.283-12.542-8.673-16.089c1.355-2.058,2.087-4.471,2.087-6.952
	c0-0.535-0.037-1.078-0.111-1.625c2.722-1.086,4.575-3.728,4.575-6.757c0-4.022-3.272-7.295-7.295-7.295
	c-2.573,0-4.92,1.371-6.221,3.528c-2.343-0.701-4.906-0.701-7.249,0c-1.301-2.157-3.647-3.528-6.221-3.528
	c-4.022,0-7.294,3.272-7.294,7.295c0,3.029,1.853,5.671,4.575,6.757c-0.074,0.547-0.111,1.09-0.111,1.625
	c0,2.481,0.732,4.894,2.087,6.952C15.442,28.438,12.215,34.085,11.94,40.275z M23.513,26.799c0.404-0.217,0.687-0.605,0.768-1.057
	c0.082-0.451-0.048-0.914-0.351-1.257c-1.562-1.773-2.423-4.042-2.423-6.388c0-0.753,0.099-1.536,0.295-2.327
	c0.1-0.404,0.027-0.832-0.2-1.18s-0.59-0.587-1-0.658c-2.062-0.357-3.559-2.131-3.559-4.217c0-2.368,1.926-4.295,4.294-4.295
	c1.811,0,3.433,1.163,4.035,2.894c0.137,0.393,0.43,0.711,0.811,0.879c0.38,0.169,0.814,0.171,1.196,0.007
	c2.413-1.033,5.194-1.033,7.607,0c0.382,0.164,0.816,0.162,1.196-0.007c0.38-0.168,0.674-0.486,0.811-0.879
	c0.603-1.731,2.224-2.894,4.035-2.894c2.368,0,4.295,1.927,4.295,4.295c0,2.086-1.497,3.859-3.559,4.217
	c-0.41,0.071-0.772,0.31-1,0.658s-0.3,0.776-0.2,1.18c0.196,0.791,0.295,1.574,0.295,2.327c0,2.347-0.86,4.615-2.423,6.388
	c-0.303,0.343-0.433,0.807-0.351,1.257c0.081,0.451,0.364,0.84,0.768,1.056c5.3,2.842,8.592,8.336,8.592,14.339
	c0,0.125-0.009,0.248-0.018,0.371l-0.019,0.324c-0.021,0.486,0.196,0.952,0.581,1.25c2.204,1.704,3.467,4.269,3.467,7.036
	c0,4.906-3.992,8.898-8.898,8.898c-2.051,0-3.98-0.682-5.58-1.973c-0.27-0.218-0.603-0.333-0.942-0.333
	c-0.137,0-0.275,0.019-0.41,0.057c-3.246,0.921-6.545,0.823-9.693-0.251c-0.506-0.173-1.068-0.062-1.473,0.291
	c-1.626,1.424-3.705,2.208-5.853,2.208c-4.906,0-8.898-3.992-8.898-8.898c0-3.163,1.709-6.114,4.46-7.704
	c0.463-0.268,0.749-0.762,0.75-1.297C14.928,35.123,18.22,29.636,23.513,26.799z"/>
<path d="M18.799,44.957c1.499,0.272,2.801,1.111,3.668,2.363c0.867,1.251,1.195,2.766,0.922,4.264
	c-0.148,0.815,0.393,1.596,1.208,1.744c0.091,0.016,0.181,0.024,0.27,0.024c0.711,0,1.342-0.508,1.474-1.232
	c0.415-2.287-0.085-4.598-1.408-6.508c-1.323-1.911-3.312-3.191-5.598-3.607c-0.812-0.145-1.596,0.393-1.744,1.208
	C17.443,44.028,17.984,44.809,18.799,44.957z"/>
<path d="M37.183,53.353c0.089,0,0.179-0.008,0.27-0.024c0.815-0.148,1.356-0.929,1.208-1.744c-0.562-3.093,1.498-6.065,4.59-6.627
	c0.815-0.148,1.356-0.929,1.208-1.744c-0.148-0.815-0.929-1.353-1.744-1.208c-4.72,0.857-7.863,5.395-7.006,10.115
	C35.84,52.845,36.472,53.353,37.183,53.353z"/>
<path d="M30.417,21.167h2.167c1.935,0,1.935-3,0-3h-2.167C28.483,18.167,28.483,21.167,30.417,21.167z"/>
</svg>
