<?xml version="1.0" encoding="utf-8"?>
<!-- Generator: Adobe Illustrator 17.0.2, SVG Export Plug-In . SVG Version: 6.00 Build 0)  -->
<!DOCTYPE svg PUBLIC "-//W3C//DTD SVG 1.1//EN" "http://www.w3.org/Graphics/SVG/1.1/DTD/svg11.dtd">
<svg version="1.1" id="Capa_1" xmlns="http://www.w3.org/2000/svg" xmlns:xlink="http://www.w3.org/1999/xlink" x="0px" y="0px"
	 width="64px" height="64px" viewBox="0 0 64 64" enable-background="new 0 0 64 64" xml:space="preserve">
<g>
	<path d="M27.495,8.748c0.659,1.434,2.084,4.353,4.016,7.267c3.449-3.157,4.035-6.118,4.135-7.063
		c-1.25-0.186-2.683-0.273-4.356-0.22C31.291,8.73,29.613,8.475,27.495,8.748z"/>
	<path d="M53.332,18.968c-0.972-0.663-4.92-3.335-7.691-4.936c-2.43-1.404-4.252-3.917-9.005-4.901
		c-0.135,1.217-0.848,4.375-4.554,7.715c1.112,1.591,2.363,3.136,3.718,4.381c3.726,3.425,6.59,7.083,8.875,11.52
		c-1.874-6.754-2.788-8.321-2.923-9.809c0,0,4.065-0.208,7.311,3.142c-0.015,0.565,0.23,1.135,1.029,1.559l1.934,0.927
		c0.845,0.405,2.157,0.294,2.803-0.384c0.869-0.912,1.979-2.398,2.643-4.516c0.281-0.894-0.043-2.268-0.584-3.033l-1.071-1.513
		C55.818,19.121,54.828,17.858,53.332,18.968z"/>
	<path d="M9.732,17.798c-0.408,0.204-0.73,0.37-0.99,0.495c-1.086,0.52-1.058,1.944-0.921,2.871
		c0.187,1.263,0.819,3.147,2.693,5.345c0.608,0.712,1.928,1.28,2.847,1.097c0.805-0.16,2.4-1.102,2.45-1.062
		c0,0,4.135-0.53,6.15-2.545c0,0-1.168,7.74-0.478,12.618c0.69,4.878,1.609,5.902,1.893,8.307c0.283,2.402,0.369,4.604,0.416,4.73
		c-0.474,1.119-1.454,3.291-2.326,4.315c-1.202,1.415-1.202,4.453,1.626,5.02c2.828,0.565,7.281-0.637,7.847-3.534
		c0.333-1.709,0.371-3.56,0.347-4.796c1.06-0.628,1.771-1.736,1.704-3.685c-0.142-4.171-0.495-7.562,1.201-7.705
		c1.697-0.141,2.262,1.768,3.464,7.211c0.565,2.56,1.178,3.754,1.859,4.331c0.132,1.562,0.882,5.076,4.855,7.331
		c0,0,3.039,1.344,5.23,0c2.191-1.343,0.424-5.443,0-6.221c-0.31-0.568-1.9-2.193-2.763-3.855c0.055-0.357,0.061-0.744,0.008-1.162
		c0,0,0.084-3.56-0.9-8.8c-2.531-6.678-5.91-11.625-10.819-16.138c-4.404-4.047-7.672-10.857-8.652-13.045
		c-1.94,0.399-4.068,1.291-5.572,3.204c-3.274,4.167-8.496,5.456-9.154,5.604C11.319,17.461,10.67,17.329,9.732,17.798z
		 M30.28,30.06c-0.542,0-0.98-0.438-0.98-0.98s0.439-0.981,0.98-0.981s0.981,0.439,0.981,0.981S30.822,30.06,30.28,30.06z
		 M34.014,30.06c-0.541,0-0.981-0.438-0.981-0.98s0.44-0.981,0.981-0.981c0.542,0,0.98,0.439,0.98,0.981S34.555,30.06,34.014,30.06z
		 M28.33,28.29c0-0.325,0.242-0.692,0.542-0.82l1.42-0.606c0,0,0-0.488,0-0.976c0-0.54,0.527-0.977,1.177-0.977h1.52
		c0.65,0,1.177,0.235,1.177,0.525v0.524l1.186,0.829c0.266,0.186,0.482,0.6,0.482,0.925v0.629c0,0.322-0.259,0.583-0.58,0.587
		c-0.08-0.6-0.588-1.065-1.21-1.065c-0.622,0-1.131,0.465-1.21,1.066h-1.355c-0.079-0.601-0.588-1.066-1.21-1.066
		c-0.622,0-1.131,0.465-1.21,1.066h-0.139c-0.325,0-0.588-0.263-0.588-0.588V28.29z"/>
</g>
</svg>
