<?xml version="1.0" encoding="utf-8"?>
<!-- Generator: Adobe Illustrator 17.0.2, SVG Export Plug-In . SVG Version: 6.00 Build 0)  -->
<!DOCTYPE svg PUBLIC "-//W3C//DTD SVG 1.1//EN" "http://www.w3.org/Graphics/SVG/1.1/DTD/svg11.dtd">
<svg version="1.1" id="Capa_1" xmlns="http://www.w3.org/2000/svg" xmlns:xlink="http://www.w3.org/1999/xlink" x="0px" y="0px"
	 width="64px" height="64px" viewBox="0 0 64 64" enable-background="new 0 0 64 64" xml:space="preserve">
<path d="M8.192,22.86c0.381,1.222,1.656,2.037,2.936,1.849l2.415-0.358l-2.063,23.145c-0.06,0.67,0.148,1.313,0.587,1.81
	c0.438,0.498,1.081,0.798,1.763,0.824c3.286,0.122,11.015,1.229,11.8,8.858c0.133,1.316,1.257,2.347,2.559,2.347h7.793
	c1.321,0,2.421-1.008,2.559-2.344c0.785-7.632,8.513-8.739,11.799-8.861c0.682-0.025,1.324-0.325,1.763-0.823
	c0.438-0.497,0.646-1.139,0.587-1.811l-2.062-23.139l2.413,0.353c0.123,0.018,0.247,0.027,0.371,0.027
	c1.167,0,2.222-0.771,2.565-1.876l3.529-11.361c0.402-1.294-0.313-2.704-1.596-3.144l-15.76-5.406
	c-0.258-0.089-0.523-0.134-0.79-0.134c-1.095,0-2.02,0.737-2.302,1.834c-1.042,4.068-4.27,4.935-6.101,5.09
	c-0.48,0.04-1.266,0.04-1.746,0c-1.831-0.155-5.06-1.022-6.102-5.09c-0.28-1.097-1.205-1.834-2.301-1.834
	c-0.267,0-0.532,0.045-0.79,0.133L6.258,8.354c-1.281,0.439-1.997,1.85-1.595,3.144L8.192,22.86z M22.375,5.997
	c1.73,5.552,6.542,6.559,8.584,6.731c0.622,0.053,1.632,0.053,2.25,0c2.042-0.172,6.854-1.178,8.584-6.731l14.711,5.047
	l-3.31,10.656l-3.024-0.442c-0.81-0.12-1.53,0.146-2.033,0.697c-0.433,0.473-0.639,1.102-0.579,1.771l2.088,23.435
	c-3.659,0.241-12.867,1.789-14.051,11.173h-7.021C27.39,48.948,18.181,47.4,14.521,47.16l2.089-23.436
	c0.06-0.669-0.146-1.298-0.579-1.771c-0.503-0.55-1.22-0.819-2.033-0.697l-3.023,0.447l-3.312-10.66L22.375,5.997z"/>
<path d="M23.628,28.523c0,4.061,3.791,7.354,8.468,7.354s8.468-3.292,8.468-7.354c0-1.05-0.255-2.048-0.712-2.951
	c0.771-0.693,1.259-1.695,1.259-2.813c0-2.09-1.694-3.784-3.784-3.784c-1.582,0-2.935,0.971-3.501,2.349
	c-0.559-0.101-1.137-0.154-1.73-0.154c-0.601,0-1.187,0.055-1.753,0.159c-0.565-1.38-1.919-2.354-3.503-2.354
	c-2.09,0-3.784,1.694-3.784,3.784c0,1.126,0.495,2.135,1.276,2.828C23.88,26.487,23.628,27.479,23.628,28.523z"/>
</svg>
