<?xml version="1.0" encoding="utf-8"?>
<!-- Generator: Adobe Illustrator 17.0.0, SVG Export Plug-In . SVG Version: 6.00 Build 0)  -->
<!DOCTYPE svg PUBLIC "-//W3C//DTD SVG 1.1//EN" "http://www.w3.org/Graphics/SVG/1.1/DTD/svg11.dtd">
<svg version="1.1" id="Layer_1" xmlns="http://www.w3.org/2000/svg" xmlns:xlink="http://www.w3.org/1999/xlink" x="0px" y="0px"
	 width="26px" height="26px" viewBox="0 0 26 26" enable-background="new 0 0 26 26" xml:space="preserve">
<path d="M16.702,6.292c-1.11-1.11-2.585-1.721-4.154-1.721S9.503,5.182,8.393,6.292L1.72,12.965c-2.29,2.291-2.29,6.018,0,8.309
	l3.006,3.004c1.11,1.11,2.585,1.722,4.155,1.723c1.568,0,3.043-0.611,4.154-1.721l6.673-6.674c1.11-1.11,1.722-2.585,1.722-4.154
	s-0.611-3.044-1.722-4.155L16.702,6.292z M18.835,15.495l-2.716-2.717c-0.391-0.391-1.023-0.391-1.414,0
	c-0.391,0.39-0.391,1.024,0,1.415l2.793,2.793l-1.586,1.586l-2.793-2.793c-0.391-0.391-1.023-0.391-1.414,0s-0.391,1.023,0,1.414
	l2.793,2.793l-1.586,1.586l-2.794-2.794c-0.391-0.391-1.023-0.391-1.414,0s-0.391,1.023,0,1.414l2.781,2.781
	c-1.482,1.341-3.922,1.313-5.345-0.111l-3.006-3.004c-1.51-1.511-1.51-3.97,0-5.48l6.673-6.672c0.732-0.732,1.706-1.135,2.741-1.135
	s2.008,0.403,2.74,1.135l3.005,3.005c0.732,0.732,1.136,1.706,1.136,2.741C19.429,14.187,19.216,14.887,18.835,15.495z
	 M24.594,3.966c-0.328,0.328-0.257,0.975-0.128,1.184c0.769,1.243,0.622,2.388-0.521,3.531l-1.156,1.157
	c-0.512,0.514-1.688-0.723-3.172-2.206L18.376,6.39c-1.484-1.483-2.762-2.614-2.206-3.172l1.157-1.158
	c1.132-1.131,2.261-1.292,3.495-0.542c0.221,0.135,0.894,0.223,1.22-0.105c0.327-0.328,1.088-1.088,1.088-1.088
	c0.476-0.477,1.069-0.3,1.548,0.178l0.826,0.828c0.477,0.476,0.654,1.072,0.177,1.547C25.681,2.878,24.921,3.638,24.594,3.966z"/>
</svg>
