<?xml version="1.0" encoding="utf-8"?>
<!-- Generator: Adobe Illustrator 17.0.0, SVG Export Plug-In . SVG Version: 6.00 Build 0)  -->
<!DOCTYPE svg PUBLIC "-//W3C//DTD SVG 1.1//EN" "http://www.w3.org/Graphics/SVG/1.1/DTD/svg11.dtd">
<svg version="1.1" id="Capa_1" xmlns="http://www.w3.org/2000/svg" xmlns:xlink="http://www.w3.org/1999/xlink" x="0px" y="0px"
	 width="21.41px" height="26.656px" viewBox="0 0 21.41 26.656" enable-background="new 0 0 21.41 26.656" xml:space="preserve">
<path d="M14.581,11.245c-0.577,0.627-1.119,0.828-1.589,0.828c-0.462,0-0.86-0.197-1.144-0.396c-0.142-0.1-0.254-0.201-0.331-0.275
	c-0.077-0.075-0.116-0.122-0.116-0.122c-0.022-0.026-0.062-0.03-0.089-0.009c-0.027,0.022-0.03,0.063-0.008,0.09
	c0.011,0.009,0.693,0.834,1.688,0.838h0.001c0.508,0,1.089-0.223,1.68-0.868c0.024-0.025,0.021-0.065-0.004-0.09
	C14.644,11.22,14.604,11.22,14.581,11.245z M11.76,11.073c0,0-0.66-0.453-0.847,0.331C10.913,11.404,11.203,10.866,11.76,11.073z
	 M14.258,11.073c0.557-0.207,0.846,0.331,0.846,0.331C14.919,10.62,14.258,11.073,14.258,11.073z M13.013,10.543
	c0,0-0.001,0.112-0.005,0.271c-0.01-0.16-0.015-0.271-0.015-0.271l0.001,0.602c-0.021,0.359-0.064,0.743-0.158,0.743h0.16h0.066
	h0.16c-0.092,0-0.153-0.386-0.187-0.745L13.013,10.543c0.003,0,0.006,0,0.01,0c0.002,0,0.006,0,0.009,0
	c0.807-0.039,0.942-0.647,0.942-0.647c0.041-0.386-0.417-0.519-0.942-0.526V9.369c-0.003,0-0.007,0-0.009,0c-0.003,0-0.007,0-0.01,0
	V9.37c-0.525,0.007-0.982,0.14-0.941,0.526C12.071,9.896,12.206,10.505,13.013,10.543z M12.957,9.456
	c-0.799,0.069-0.729,0.504-0.729,0.504C11.95,9.404,12.957,9.456,12.957,9.456z M21.341,16.053c0,0,0.179-0.595-0.042-1.279v-0.042
	c0,0-0.035-0.11-0.126-0.265c-0.096-0.188-0.227-0.377-0.406-0.556c0,0-0.586-0.645-1.53-0.467l-2.689-0.862
	c1.619-0.966,1.877-2.459,1.832-3.479c0.764-0.307,1.022-0.897,1.022-0.897c1.146-1.876-0.557-3.51-0.557-3.51
	c-0.453-0.462-1.022-0.653-1.585-0.7c-0.072-0.006-0.468-0.494-0.54-0.497c-0.04-0.104-0.09-0.207-0.145-0.309
	c-0.005-0.006-0.013-0.012-0.019-0.02c0,0-1.154-3.941-8.204-3.035c0,0-1.081,0.267-1.519,0.583C6.339,0.97,5.623,1.856,5.438,2.091
	C5.369,2.178,5.326,2.235,5.326,2.235C5.004,2.712,4.801,3.336,4.672,3.96C4.399,5.208,4.461,6.57,4.461,6.57
	c-0.026,0.282-0.094,0.503-0.19,0.679C4.247,7.294,4.22,7.335,4.19,7.373C4.004,7.585,3.765,7.694,3.522,7.742
	C3.521,7.74,3.521,7.739,3.52,7.736c-0.007-0.015-0.013-0.03-0.021-0.044C3.495,7.686,3.49,7.68,3.487,7.674
	C3.479,7.662,3.473,7.651,3.464,7.641C3.459,7.635,3.456,7.629,3.451,7.624c-0.009-0.01-0.016-0.019-0.025-0.027
	C3.42,7.592,3.415,7.588,3.41,7.582C3.401,7.575,3.391,7.567,3.383,7.56C3.377,7.557,3.372,7.552,3.366,7.548
	c-0.01-0.007-0.021-0.014-0.032-0.02c-0.005-0.003-0.01-0.006-0.015-0.009C3.304,7.511,3.288,7.503,3.271,7.495
	C3.268,7.493,3.264,7.492,3.26,7.489c-0.014-0.005-0.027-0.01-0.041-0.016C3.218,7.471,3.217,7.471,3.217,7.471
	C3.213,7.47,3.207,7.467,3.203,7.466C3.188,7.46,3.173,7.454,3.159,7.448c-0.034-0.013-0.07-0.027-0.104-0.042
	c-0.001,0-0.003-0.001-0.003-0.002C3.025,7.392,2.999,7.38,2.974,7.365C2.971,7.364,2.968,7.362,2.966,7.361
	c-0.026-0.015-0.05-0.032-0.074-0.05C2.876,7.298,2.861,7.284,2.844,7.267C2.835,7.26,2.827,7.252,2.817,7.243
	c-0.015-0.014-0.03-0.027-0.048-0.042C2.761,7.193,2.752,7.186,2.743,7.178c-0.011-0.01-0.022-0.019-0.034-0.029
	c-0.008-0.007-0.017-0.014-0.025-0.02c-0.012-0.01-0.023-0.018-0.035-0.027c-0.008-0.006-0.017-0.01-0.026-0.017
	C2.61,7.077,2.597,7.07,2.583,7.063C2.567,7.054,2.55,7.046,2.534,7.041c-0.01-0.002-0.019-0.002-0.028-0.003
	C2.497,7.036,2.489,7.033,2.48,7.033l0.005,0.001H2.483c-0.001,0-0.003,0-0.003-0.001c-0.069-0.034-0.138-0.067-0.209-0.1
	C2.263,6.929,2.253,6.925,2.244,6.919c-0.03-0.013-0.06-0.027-0.091-0.04C2.14,6.874,2.127,6.868,2.113,6.862
	c-0.029-0.01-0.059-0.021-0.087-0.033C2.011,6.823,1.996,6.817,1.98,6.812c-0.029-0.01-0.058-0.018-0.088-0.027
	C1.876,6.78,1.86,6.775,1.844,6.771c-0.03-0.008-0.061-0.014-0.091-0.019C1.737,6.749,1.722,6.743,1.705,6.741
	c-0.034-0.004-0.066-0.008-0.101-0.01C1.59,6.729,1.576,6.728,1.561,6.726c-0.049-0.002-0.099,0-0.149,0.003
	c-0.133,0.01-0.269,0.055-0.384,0.123C0.976,6.88,0.905,6.971,0.857,6.986c-0.128,0.045-0.181-0.032-0.3,0.082
	C0.475,7.147,0.391,7.307,0.414,7.422c-0.221,0.062-0.52,0.449-0.274,0.66C0.093,8.123,0.057,8.187,0.033,8.264
	C0.032,8.265,0.032,8.266,0.032,8.267c-0.008,0.024-0.014,0.05-0.019,0.076C0.012,8.35,0.01,8.356,0.009,8.363
	C0.005,8.391,0.002,8.418,0,8.446C0,8.448,0,8.45,0,8.45c-0.001,0.027,0,0.054,0,0.082c0.001,0.007,0.001,0.015,0.002,0.021
	c0.002,0.028,0.006,0.056,0.011,0.082c0,0.001,0,0.001,0,0.001c0.007,0.025,0.015,0.05,0.024,0.072
	C0.038,8.714,0.042,8.72,0.043,8.726c0.02,0.046,0.046,0.086,0.08,0.114c0.004,0.003,0.009,0.007,0.013,0.01
	c0.018,0.014,0.036,0.026,0.059,0.033c-0.177,0.156,0.108,0.77,0.34,0.754C0.581,9.778,0.751,9.98,0.909,9.949
	c0.006,0.023,0.015,0.043,0.027,0.062c0.006,0.008,0.012,0.014,0.019,0.021c0.006,0.009,0.012,0.018,0.021,0.024
	c0,0.001,0.001,0.001,0.001,0.001c0.022,0.02,0.049,0.033,0.078,0.045c0.006,0.002,0.012,0.003,0.017,0.006
	c0.029,0.009,0.059,0.016,0.089,0.017c0.001,0,0.002,0,0.002,0c0.032,0.003,0.064,0.001,0.095-0.004c0.007,0,0.012,0,0.02-0.001
	c0.031-0.006,0.06-0.012,0.086-0.022c0.081,0.193,0.717,0.564,0.788,0.22c0.107,0.122,0.278,0.175,0.438,0.128
	c0.161-0.047,0.174-0.19,0.276-0.269c0.094-0.072,0.241-0.066,0.339-0.208c0.089-0.13,0.082-0.251,0.044-0.406
	c0.144-0.088,0.583-0.22,0.331-0.482c0.104-0.023,0.159-0.132,0.185-0.256c0.549,0.018,0.97-0.056,0.97-0.056
	c0.434-0.15,0.8-0.328,1.114-0.523c0.199,0.488,0.546,0.85,1.126,0.665c0.002,0,0.005,0,0.006-0.001
	c1.59-3.79,5.905-5.672,9.638-4.135c0.008-0.021,0.664,0.363,0.793,0.384c0.179,0.029,0.356,0.085,0.522,0.179
	c-0.008-0.005-0.015-0.011-0.021-0.017c0.009,0.007,0.018,0.012,0.028,0.021c-0.001-0.001-0.005-0.003-0.006-0.004
	c0.054,0.041,0.105,0.084,0.154,0.135c0,0,1.067,1.022,0.349,2.199c0,0-0.05,0.109-0.169,0.24c-0.003,0.004-0.007,0.006-0.01,0.01
	c0.003-0.003,0.006-0.007,0.01-0.01c-0.306-1.082-0.848-1.871-1.472-2.45c0.058-0.042-0.054-0.111-0.015-0.203
	c-3.733-1.538-7.725,0.185-9.314,3.974c0.062-0.02-0.046,0.112,0.003,0.075c-0.002,1.019,0.328,2.409,1.895,3.312
	c-0.209,0.159-0.488,0.33-0.856,0.492c-0.078,0.029-0.161,0.057-0.249,0.084c0.006,0.004,0.013,0.008,0.02,0.012
	c-0.292,0.115-0.635,0.225-1.033,0.32c-0.343-0.111-0.758-0.131-1.239,0.042c0.003-0.003,0.005-0.004,0.005-0.004
	c-0.03,0.011-0.059,0.023-0.089,0.036c-0.011,0.004-0.021,0.007-0.033,0.013c-0.051,0.021-0.101,0.042-0.154,0.068
	c0,0-2.036,1.179-1.391,2.891c0,0,0.001,0.002,0.003,0.006c0,0,0.001,0.004,0.003,0.007c0.002,0.002,0.002,0.004,0.004,0.008
	c0.002,0.003,0.004,0.008,0.006,0.013c0.002,0.004,0.003,0.007,0.005,0.012c0.003,0.005,0.006,0.011,0.008,0.017
	c0.003,0.006,0.005,0.011,0.009,0.018c0.002,0.007,0.006,0.014,0.01,0.021c0.003,0.006,0.006,0.013,0.01,0.02
	c0.005,0.008,0.009,0.018,0.015,0.027c0.004,0.007,0.007,0.014,0.011,0.023c0.006,0.009,0.011,0.019,0.017,0.029
	c0.004,0.008,0.01,0.017,0.015,0.024c0.005,0.011,0.012,0.022,0.019,0.034c0.005,0.008,0.009,0.018,0.015,0.027
	c0.007,0.011,0.015,0.024,0.022,0.036c0.006,0.009,0.011,0.019,0.017,0.029c0.007,0.012,0.016,0.025,0.025,0.038
	c0.006,0.009,0.012,0.019,0.018,0.029c0.009,0.013,0.019,0.028,0.028,0.042c0.006,0.009,0.013,0.019,0.019,0.028
	c0.011,0.014,0.022,0.029,0.032,0.044c0.007,0.01,0.014,0.018,0.02,0.027c0.013,0.016,0.024,0.031,0.036,0.047
	c0.007,0.01,0.014,0.016,0.021,0.026c0.014,0.016,0.027,0.032,0.04,0.049c0.006,0.007,0.013,0.015,0.019,0.022
	c0.015,0.017,0.03,0.034,0.045,0.051c0.004,0.006,0.012,0.012,0.017,0.018c0.017,0.018,0.034,0.035,0.051,0.053
	c0.004,0.004,0.008,0.008,0.012,0.012c0.045,0.045,0.093,0.089,0.143,0.13c-0.001-0.001-0.003-0.002-0.004-0.003
	c0.019,0.017,0.039,0.031,0.059,0.046c0.005,0.004,0.011,0.009,0.017,0.013c0.028,0.021,0.056,0.041,0.085,0.058
	c0.003,0.002,0.006,0.004,0.008,0.005c0.026,0.017,0.054,0.033,0.081,0.048c0.009,0.003,0.017,0.007,0.026,0.012
	c0.022,0.011,0.044,0.023,0.067,0.033c0.011,0.004,0.022,0.008,0.033,0.013c0.021,0.009,0.042,0.017,0.064,0.025
	c0.012,0.003,0.025,0.007,0.038,0.011c0.021,0.006,0.042,0.012,0.064,0.018c0.013,0.003,0.026,0.006,0.04,0.009
	c0.021,0.004,0.042,0.008,0.064,0.013c0.015,0.001,0.029,0.004,0.044,0.004c0.021,0.003,0.043,0.005,0.066,0.006
	c0.015,0,0.03,0,0.046,0c0.021,0,0.044,0,0.066,0c0.016-0.001,0.032-0.002,0.048-0.003c0.023-0.003,0.046-0.006,0.069-0.009
	c0.016-0.003,0.032-0.005,0.049-0.008c0.023-0.005,0.047-0.011,0.07-0.016c0.018-0.006,0.036-0.009,0.052-0.015
	c0.012-0.003,0.025-0.007,0.039-0.011c0.002-0.001,0.005-0.001,0.006-0.003c0.01-0.003,0.02-0.007,0.029-0.01
	c0.017-0.007,0.035-0.012,0.053-0.019c0.012-0.005,0.023-0.01,0.034-0.015c0.005-0.002,0.011-0.004,0.016-0.007
	c0.009-0.004,0.019-0.009,0.028-0.012c0.017-0.009,0.034-0.017,0.052-0.024c0.01-0.006,0.021-0.012,0.031-0.017
	c0.001-0.001,0.003-0.001,0.004-0.002c0,0.001,0,0.001-0.001,0.001c0.018-0.009,0.036-0.021,0.054-0.031
	c0.015-0.008,0.03-0.016,0.045-0.024c0.045-0.027,0.09-0.058,0.136-0.09c0,0,0.836-0.715,1.377-1.506
	c0.2,0.083,0.326,0.255,0.235,0.589l-0.037,0.133c-0.096,2.701-0.881,3.798-0.934,4.744c-0.226-0.011-0.454,0.015-0.68,0.083
	c-1.202,0.363-1.838,1.774-1.423,3.151c0.416,1.38,1.728,2.203,2.928,1.841c0.948-0.286,1.543-1.226,1.547-2.286
	c1.205,0.52,2.425,0.561,2.769,0.607h0.238c0.41-0.056,2.172,0.151,3.549-0.741c-0.045,1.114,0.558,2.122,1.545,2.419
	c1.202,0.362,2.512-0.461,2.927-1.841c0.416-1.377-0.221-2.788-1.423-3.151c-0.507-0.154-1.035-0.092-1.505,0.131
	c0.171-1.449-0.454-3.5-0.961-5.146l-0.022-0.075c0,0-0.481-1.057,0.353-1.026c0,0,0.162,0.093,0.443,0.193
	c0.025,0.048,0.054,0.096,0.085,0.146c0,0,0.315,0.991,1.031,1.545c-0.002-0.001-0.004-0.001-0.008-0.004
	c0.042,0.032,0.084,0.063,0.128,0.092c0.013,0.009,0.028,0.017,0.042,0.026c0.04,0.024,0.081,0.048,0.124,0.071
	c0.015,0.007,0.031,0.016,0.047,0.023c0.056,0.027,0.114,0.052,0.174,0.073c0,0,0.003,0,0.007,0.001c0.001,0,0.002,0,0.004,0
	c0.004,0,0.01,0,0.017,0.001c0.003,0,0.005,0,0.007,0c0.021,0.001,0.05,0.001,0.085,0c0.003,0,0.006,0,0.009,0
	c0.017,0,0.035-0.001,0.053-0.002c0.002,0,0.006,0,0.01,0c0.044-0.003,0.095-0.008,0.152-0.014c0.003,0,0.007-0.001,0.01-0.001
	c0.026-0.004,0.054-0.008,0.082-0.012c0.003,0,0.006-0.001,0.008-0.001c0.062-0.01,0.129-0.025,0.199-0.043
	c0.004-0.001,0.009-0.002,0.013-0.003c0.032-0.009,0.064-0.018,0.097-0.029c0.004-0.001,0.007-0.001,0.011-0.003
	c0.072-0.024,0.146-0.053,0.22-0.087c0.006-0.002,0.011-0.005,0.017-0.007c0.033-0.016,0.066-0.034,0.101-0.052
	c0.003-0.003,0.007-0.004,0.011-0.007c0.075-0.041,0.149-0.089,0.221-0.145c0.003-0.002,0.006-0.004,0.009-0.005
	c-0.002,0-0.003,0-0.003,0.001C20.928,16.987,21.201,16.623,21.341,16.053z M14.694,7.884c0.367,0,0.665,0.28,0.665,0.626
	c0,0.345-0.298,0.625-0.665,0.625S14.03,8.855,14.03,8.51C14.03,8.164,14.328,7.884,14.694,7.884z M11.047,7.911
	c0.367,0,0.665,0.279,0.665,0.625s-0.298,0.625-0.665,0.625s-0.665-0.279-0.665-0.625S10.68,7.911,11.047,7.911z M16.395,11.043
	c0,0-0.476,2.209-3.34,2.342v0.003c-0.011,0-0.021,0-0.033-0.001c-0.012,0.001-0.022,0.001-0.034,0.001v-0.003
	c-2.864-0.133-3.34-2.342-3.34-2.342c-0.143-1.4,1.473-1.883,3.34-1.908c0.012,0,0.021,0,0.034,0c0.011,0,0.021,0,0.033,0
	C14.92,9.161,16.538,9.643,16.395,11.043z"/>
</svg>
