<?xml version="1.0" encoding="iso-8859-1"?>
<!-- Generator: Adobe Illustrator 16.0.0, SVG Export Plug-In . SVG Version: 6.00 Build 0)  -->
<!DOCTYPE svg PUBLIC "-//W3C//DTD SVG 1.1//EN" "http://www.w3.org/Graphics/SVG/1.1/DTD/svg11.dtd">
<svg version="1.1" id="Layer_1" xmlns="http://www.w3.org/2000/svg" xmlns:xlink="http://www.w3.org/1999/xlink" x="0px" y="0px"
	 width="25.576px" height="26.528px" viewBox="0 0 25.576 26.528" style="enable-background:new 0 0 25.576 26.528;"
	 xml:space="preserve">
<g>
	<path d="M7.158,5.648C7.092,5.858,7.024,6.067,6.984,6.287C6.938,6.56,6.913,6.843,6.913,7.128c0,2.823,2.38,5.108,5.316,5.108
		c2.935,0,5.313-2.285,5.313-5.108c0-0.564-0.117-1.097-0.292-1.604l1.08-1.431l-1.935-0.654l0.378-1.899l-2.362,0.648L13.326,0
		L11.31,2.021l-1.563-1.74L9.012,2.58L6.503,1.79l0.945,2.031L5.623,4.313L7.158,5.648z"/>
	<path d="M23.107,24.097v-0.025h-0.092v-0.672h-0.877l-0.129-2.085l-0.26,0.092c-0.776,0.275-1.542,0.409-2.342,0.409
		c-0.152,0-0.293-0.018-0.438-0.026l-0.213-8.137l-3.896-0.646c0,0-0.728,2.146-2.729,2.259c-2.002,0.112-2.76-2.259-2.76-2.259
		L5.889,13.65l-0.261,8.12c-0.537-0.057-1.066-0.175-1.6-0.364l-0.262-0.092l-0.128,2.085h-0.91v0.672v0.025H0v2.432h1.76h7.595
		h7.975h7.079h1.168v-2.432H23.107z M14.365,21.264c0.48-0.053,1.087,0.127,1.809,0.338c0.883,0.258,1.979,0.579,3.234,0.579
		c0.762,0,1.493-0.113,2.229-0.347l0.084,1.381h-8.625C13.119,22.725,13.283,21.382,14.365,21.264z M4.142,21.834
		c0.734,0.234,1.465,0.347,2.226,0.347h0.002c1.255,0,2.352-0.32,3.233-0.579c0.722-0.211,1.329-0.391,1.81-0.338
		c1.079,0.118,1.245,1.459,1.27,1.952H4.056L4.142,21.834z"/>
</g>
<g>
</g>
<g>
</g>
<g>
</g>
<g>
</g>
<g>
</g>
<g>
</g>
<g>
</g>
<g>
</g>
<g>
</g>
<g>
</g>
<g>
</g>
<g>
</g>
<g>
</g>
<g>
</g>
<g>
</g>
</svg>
