<?xml version="1.0" encoding="iso-8859-1"?>
<!-- Generator: Adobe Illustrator 16.0.0, SVG Export Plug-In . SVG Version: 6.00 Build 0)  -->
<!DOCTYPE svg PUBLIC "-//W3C//DTD SVG 1.1//EN" "http://www.w3.org/Graphics/SVG/1.1/DTD/svg11.dtd">
<svg version="1.1" id="Layer_1" xmlns="http://www.w3.org/2000/svg" xmlns:xlink="http://www.w3.org/1999/xlink" x="0px" y="0px"
	 width="31.183px" height="18.978px" viewBox="0 0 31.183 18.978" style="enable-background:new 0 0 31.183 18.978;"
	 xml:space="preserve">
<g>
	<path d="M9.087,9.78c2.505,0,4.534-2.03,4.534-4.538c0-1.566,0.547-2.996-0.659-3.811C12.239,0.94,9.058,0.708,8.117,0.708
		c-1.118,0-2.571,0.911-3.361,1.58C3.771,3.12,4.548,3.853,4.548,5.242C4.548,7.75,6.576,9.78,9.087,9.78z M5.925,4.798
		c0.832-0.152,1.398,0.123,1.398,0.123l1.394-0.678c0,0-0.708,1.025-0.07,0.678c1.415-0.478,3-0.278,3.809-0.12
		c0.028,0.177,0.053,0.358,0.053,0.547c0,1.867-1.482,3.377-3.32,3.377c-1.834,0-3.318-1.51-3.318-3.377
		C5.869,5.159,5.896,4.977,5.925,4.798z"/>
	<path d="M16.878,10.515c-0.252-2.292,0.842-3.674,1.264-4.117c0.39,2.373,2.438,4.194,4.918,4.194c2.35,0,4.312-1.636,4.847-3.826
		c0.401,0.716,1.084,2.179,0.918,3.75c4.168-0.035,2.114-4.797-0.808-5.32c-0.021-0.243-0.04-0.487-0.094-0.721
		c-0.173-1.506-1.521-4.566-5.381-4.472C19.21,0.08,18.483,2.586,18.31,4.114c-0.119,0.376-0.193,0.769-0.219,1.175
		C13.753,6.044,14.231,10.442,16.878,10.515z M20.717,4.178c0,0,0.428,0.145,0.428,1.537c0.735,0.258,2.013-2.161,2.013-2.161v1.905
		c0.818,0.221,3.379-0.074,3.379-0.074l0.096,0.083c0.002,0.041,0.012,0.08,0.012,0.122c0,1.979-1.609,3.587-3.584,3.587
		c-1.95,0-3.535-1.567-3.578-3.509C20.193,5.41,20.717,4.178,20.717,4.178z"/>
	<polygon points="24.171,11.249 22.068,11.249 20.306,11.249 16.466,15.875 12.276,10.727 6.279,10.727 0,17.62 1.317,18.978 
		5.813,15.141 5.911,18.137 12.836,18.032 12.855,15.28 15.685,18.187 16.27,18.978 16.356,18.877 16.45,18.972 16.7,18.484 
		20.118,14.57 20.339,16.315 19.65,17.846 26.638,17.729 25.711,16.315 25.884,14.167 28.893,18.199 30.891,17.704 26.117,11.249 	
		"/>
</g>
<g>
</g>
<g>
</g>
<g>
</g>
<g>
</g>
<g>
</g>
<g>
</g>
<g>
</g>
<g>
</g>
<g>
</g>
<g>
</g>
<g>
</g>
<g>
</g>
<g>
</g>
<g>
</g>
<g>
</g>
</svg>
