<?xml version="1.0" encoding="iso-8859-1"?>
<!-- Generator: Adobe Illustrator 16.0.0, SVG Export Plug-In . SVG Version: 6.00 Build 0)  -->
<!DOCTYPE svg PUBLIC "-//W3C//DTD SVG 1.1//EN" "http://www.w3.org/Graphics/SVG/1.1/DTD/svg11.dtd">
<svg version="1.1" id="Layer_1" xmlns="http://www.w3.org/2000/svg" xmlns:xlink="http://www.w3.org/1999/xlink" x="0px" y="0px"
	 width="27.239px" height="31.667px" viewBox="0 0 27.239 31.667" style="enable-background:new 0 0 27.239 31.667;"
	 xml:space="preserve">
<g>
	<path d="M3.369,17.545c-0.422-3.823,1.404-6.13,2.108-6.87c0.651,3.959,4.068,6.997,8.207,6.997c3.922,0,7.194-2.729,8.086-6.384
		c0.671,1.194,1.811,3.637,1.534,6.257c6.953-0.057,3.528-8.005-1.347-8.876c-0.035-0.407-0.067-0.813-0.158-1.205
		c-0.288-2.512-2.537-7.618-8.979-7.461C7.261,0.133,6.048,4.315,5.757,6.864c-0.196,0.63-0.321,1.283-0.365,1.962
		C-1.844,10.086-1.045,17.426,3.369,17.545z M9.776,6.972c0,0,0.713,0.242,0.713,2.565c1.228,0.43,3.36-3.605,3.36-3.605V9.11
		c1.365,0.367,5.638-0.124,5.638-0.124l0.159,0.138c0.005,0.067,0.02,0.133,0.02,0.204c0,3.3-2.686,5.986-5.981,5.986
		c-3.254,0-5.9-2.615-5.97-5.854C8.903,9.027,9.776,6.972,9.776,6.972z"/>
	<polygon points="15.538,18.77 12.033,18.77 9.088,18.77 0.485,29.137 2.354,31.667 8.775,24.313 9.146,27.226 7.995,29.778 
		19.656,29.583 18.111,27.226 18.398,23.638 23.421,30.368 26.752,29.542 18.786,18.77 	"/>
</g>
<g>
</g>
<g>
</g>
<g>
</g>
<g>
</g>
<g>
</g>
<g>
</g>
<g>
</g>
<g>
</g>
<g>
</g>
<g>
</g>
<g>
</g>
<g>
</g>
<g>
</g>
<g>
</g>
<g>
</g>
</svg>
