<?xml version="1.0" encoding="iso-8859-1"?>
<!-- Generator: Adobe Illustrator 17.0.2, SVG Export Plug-In . SVG Version: 6.00 Build 0)  -->
<!DOCTYPE svg PUBLIC "-//W3C//DTD SVG 1.1//EN" "http://www.w3.org/Graphics/SVG/1.1/DTD/svg11.dtd">
<svg version="1.1" id="Layer_1" xmlns="http://www.w3.org/2000/svg" xmlns:xlink="http://www.w3.org/1999/xlink" x="0px" y="0px"
	 width="64px" height="64px" viewBox="0 0 64 64" style="enable-background:new 0 0 64 64;" xml:space="preserve">
<g>
	<path d="M52.338,56.613c1.345,0,2.438-1.094,2.438-2.438V23.912c0-1.344-1.094-2.438-2.438-2.438h-4.752
		c-0.118-0.385-0.318-0.742-0.611-1.034L33.768,7.232c-0.975-0.975-2.561-0.975-3.535,0L17.026,20.438
		c-0.293,0.293-0.494,0.65-0.612,1.035h-4.585c-1.345,0-2.438,1.094-2.438,2.438v30.263c0,1.344,1.094,2.438,2.438,2.438H52.338z
		 M32,9.707l11.767,11.767H20.233L32,9.707z M12.391,24.474h39.386v29.139H12.391V24.474z"/>
	<path d="M33.093,31.703h-0.887c-0.783,0-1.535,0.599-1.711,1.362l-1.499,6.507l-1.348-6.492c-0.16-0.772-0.903-1.378-1.692-1.378
		h-0.99c-0.791,0-1.53,0.608-1.683,1.385l-1.243,6.333l-1.466-6.356c-0.176-0.764-0.928-1.362-1.712-1.362h-1.009
		c-0.421,0-0.794,0.175-1.025,0.479c-0.23,0.306-0.297,0.713-0.183,1.119l3.3,11.637c0.211,0.744,0.98,1.326,1.754,1.326h0.632
		c0.79,0,1.533-0.605,1.691-1.378l1.425-6.897l1.425,6.897c0.158,0.773,0.901,1.379,1.691,1.379h0.714
		c0.773,0,1.543-0.583,1.752-1.328l3.273-11.636c0.114-0.406,0.047-0.813-0.185-1.119C33.887,31.877,33.514,31.703,33.093,31.703z"
		/>
	<path d="M41.374,34.865c0.846,0,1.456,0.232,1.864,0.708c0.124,0.145,0.24,0.339,0.346,0.576c0.275,0.621,1.002,1.071,1.729,1.071
		h0.834c0.448,0,0.866-0.203,1.12-0.542c0.231-0.311,0.301-0.706,0.188-1.083c-0.166-0.562-0.443-1.13-0.826-1.691
		c-1.139-1.631-2.943-2.458-5.363-2.458c-1.818,0-3.341,0.614-4.525,1.824c-1.345,1.374-2.027,3.333-2.027,5.824
		c0,2.304,0.599,4.154,1.781,5.501c1.198,1.357,2.855,2.046,4.926,2.046c1.683,0,3.089-0.512,4.177-1.522
		c0.831-0.771,1.428-1.73,1.772-2.852c0.12-0.389,0.058-0.791-0.173-1.103c-0.243-0.33-0.636-0.519-1.078-0.519h-0.815
		c-0.73,0-1.46,0.475-1.734,1.129c-0.109,0.261-0.229,0.473-0.361,0.636c-0.412,0.527-1.011,0.783-1.83,0.783
		c-0.796,0-1.435-0.311-1.954-0.951c-0.539-0.664-0.812-1.708-0.812-3.103c0-1.41,0.264-2.5,0.783-3.241
		C39.883,35.203,40.53,34.865,41.374,34.865z"/>
</g>
</svg>
